<svg xmlns="http://www.w3.org/2000/svg" id="svg867" version="1.1" viewBox="0 0 226.77 352.15"><defs id="defs858"><style id="style856">.cls-2{fill:#fff}</style></defs><g id="Layer_1" data-name="Layer 1"><path id="path860" d="M185.47 0H41.3A41.31 41.31 0 0 0 0 41.3v86.23A206.18 206.18 0 0 0 30.25 235l65.54 107.29a20.63 20.63 0 0 0 35.19 0L196.53 235a206.17 206.17 0 0 0 30.24-107.5V41.3A41.31 41.31 0 0 0 185.47 0Z" style="fill:#fff;stroke:#000;stroke-opacity:1"/><path id="path862" d="m210.25 121.31-3-.33a5.29 5.29 0 0 0-5.73 4 5.27 5.27 0 0 1-4.76 4l-13.37-26a19.87 19.87 0 0 0-15.3-10.68 323.3 323.3 0 0 0-75.39 0 19.85 19.85 0 0 0-15.33 10.63L64 128.94a5.29 5.29 0 0 1-4.77-4 5.28 5.28 0 0 0-5.72-4l-3 .33a5.82 5.82 0 0 0-.51 11.52l11 2.37a56.66 56.66 0 0 0-4.35 21.71v26.53a5.68 5.68 0 0 0 5.11 5.6l.62.07a89.61 89.61 0 0 0 .88 11.33 4.25 4.25 0 0 0 4.21 3.65h9.63a4.25 4.25 0 0 0 4.21-3.65 88.18 88.18 0 0 0 .83-9.31q18.44 1.6 37 1.62h22.56q18.5 0 37-1.62a88.18 88.18 0 0 0 .83 9.31 4.25 4.25 0 0 0 4.21 3.65h9.63a4.25 4.25 0 0 0 4.21-3.65 89.6 89.6 0 0 0 .87-11.33l.55-.07a5.67 5.67 0 0 0 5.06-5.64v-26.49a56.65 56.65 0 0 0-4.34-21.71l11.08-2.37a5.82 5.82 0 0 0-.58-11.48ZM87 165.82H75.5a8.89 8.89 0 0 1-8.89-8.89 8.9 8.9 0 0 1 10.72-8.7l11.25 2.37A7.69 7.69 0 0 1 87 165.82Zm-9-32.6a2.83 2.83 0 0 1-2.6-4L86 105a8.49 8.49 0 0 1 6.67-5 285.85 285.85 0 0 1 75.52 0 8.49 8.49 0 0 1 6.68 5l10.53 24.23a2.83 2.83 0 0 1-2.6 4Zm116.15 23.71a8.89 8.89 0 0 1-8.88 8.89h-11.5a7.69 7.69 0 0 1-1.58-15.22l11.24-2.37a8.89 8.89 0 0 1 10.72 8.7Z" class="cls-2" style="fill:#000"/></g><path id="path1038" d="M191.46 17.665a27.38 27.38 0 0 0-10.572-3.504 101.233 101.233 0 0 0-13.891-.872H145.52v70.003h17.495V62.787a91.749 91.749 0 0 0 16.005-1.25 33.724 33.724 0 0 0 11.807-4.19 18.961 18.961 0 0 0 7.254-7.718q2.439-4.815 2.439-11.938 0-7.717-2.377-12.563a17.626 17.626 0 0 0-6.683-7.463zm-13.32 30.691q-4.861 2.801-15.125 2.81V26.153h5.749a49.297 49.297 0 0 1 5.626.316 10.272 10.272 0 0 1 4.507 1.544 8.767 8.767 0 0 1 3.032 3.588 15.126 15.126 0 0 1 1.12 6.436q-.031 7.486-4.909 10.318z" class="cls-2" style="fill:#000;stroke-width:.771712"/></svg>