<svg xmlns="http://www.w3.org/2000/svg" id="Layer_1" version="1.1" viewBox="0 0 400 400"><defs id="defs1615"><style id="style1613">.cls-3{fill:#fff}.cls-4{fill:#000}.cls-3,.cls-4{stroke-width:0}</style></defs><circle id="circle1617" cx="200" cy="200" r="200" class="cls-4" style="fill:#000"/><path id="path1619" d="M250.15 303.33c-.01-.04-.02-.08-.03-.11-.54-2.09-1.14-4.08-1.81-5.98-5.51-18.7-10.47-41.23-7.29-74.38a219.25 219.25 0 0 1 9.13-44.93h-73.97c-.81 9.46-1.74 18.92-2.75 28.38-51.16 33.28-91.93 38.85-120.54 37.3-15-.81-30.04-3.77-46.77-7.8 1.18 2.39 2.13 4.86 2.76 7.35 2.64 10.44 5.88 20.69 9.79 30.72 6.26 13.77 13.83 26.85 22.72 39.09 11.44 14.03 24.47 26.6 38.59 37.93 20 14.81 41.52 27.46 63.99 38.15 1.75.83 3.51 1.65 5.26 2.46 1.09.28 2.17.58 3.25.91 1.66.51 3.31 1.02 4.96 1.5 3.64-.27 7.21-.11 10.66.44 1.67-.21 3.33-.32 4.99-.32 3.97 0 7.78.53 11.37 1.51 27.19-7.74 52.93-21.65 63.17-45.49 6.54-15.22 6.06-32.85 2.52-46.71Z" style="fill:#fff;stroke-miterlimit:10;stroke:#fff;stroke-width:3px"/><path id="path1621" d="M344.5 182.04c-58.35-53.01-57.73-140.76-138.43-140.88s-.05 0-.08 0h-.08c-80.7.12-80.08 87.87-138.43 140.89-6.94 6.3-16.02 9.73-25.4 9.73 0 11.32 9.18 20.5 20.5 20.5s20.43-9.11 20.5-20.37h.05c.65 10.73 9.56 19.23 20.46 19.23s19.8-8.5 20.46-19.23h.09c.65 10.73 9.56 19.23 20.46 19.23 10.02 0 18.33-7.19 20.12-16.69 1.31 21.58 19.21 38.67 41.11 38.67 22.61 0 40.96-18.22 41.19-40.78.87 10.52 9.66 18.79 20.41 18.79s19.8-8.5 20.46-19.23h.09c.65 10.73 9.56 19.23 20.46 19.23s19.8-8.5 20.46-19.23h.05c.07 11.26 9.22 20.37 20.5 20.37s20.5-9.18 20.5-20.5c-9.38 0-18.46-3.43-25.4-9.73Z" style="fill:#fff;stroke:#000;stroke-width:4px;stroke-miterlimit:10"/><circle id="circle1623" cx="171.44" cy="139.02" r="19.85" class="cls-3"/><circle id="circle1625" cx="171.44" cy="139.02" r="12.07" class="cls-4" style="fill:#000"/><circle id="circle1627" cx="240.65" cy="137.99" r="19.85" class="cls-3"/><circle id="circle1629" cx="240.65" cy="137.99" r="12.07" class="cls-4" style="fill:#000"/><path id="path1631" d="M217 193.46h-21.92c-3.16 0-5.72 2.56-5.72 5.72a5.719 5.719 0 0 0 6.32 5.69c1.48 4.31 5.55 7.41 10.36 7.41s8.89-3.1 10.36-7.41a5.719 5.719 0 0 0 6.32-5.69c0-3.16-2.56-5.72-5.72-5.72Z" class="cls-4" style="fill:#000"/><path id="path1633" d="M200 12c25.39 0 50 4.97 73.17 14.77 22.39 9.47 42.49 23.03 59.76 40.29 17.27 17.27 30.83 37.38 40.29 59.76 9.8 23.17 14.77 47.79 14.77 73.17s-4.97 50-14.77 73.17c-9.47 22.39-23.03 42.49-40.29 59.76-17.27 17.27-37.38 30.83-59.76 40.29-23.17 9.8-47.79 14.77-73.17 14.77s-50-4.97-73.17-14.77c-22.39-9.47-42.49-23.03-59.76-40.29-17.27-17.27-30.83-37.38-40.29-59.76-9.8-23.17-14.77-47.79-14.77-73.17s4.97-50 14.77-73.17c9.47-22.39 23.03-42.49 40.29-59.76 17.27-17.27 37.38-30.83 59.76-40.29C150 16.97 174.62 12 200 12m0-12C89.54 0 0 89.54 0 200s89.54 200 200 200 200-89.54 200-200S310.46 0 200 0Z" class="cls-4"/></svg>