<svg viewBox="0 0 226.77 352.15" version="1.1" id="svg3201" xmlns="http://www.w3.org/2000/svg"><defs id="defs3192"><style id="style3190">.cls-2{fill:#fff}</style></defs><g id="g4117"><path d="M185.47 0H41.3A41.31 41.31 0 0 0 0 41.3v86.23A206.18 206.18 0 0 0 30.25 235l65.54 107.29a20.63 20.63 0 0 0 35.19 0L196.53 235a206.17 206.17 0 0 0 30.24-107.5V41.3A41.31 41.31 0 0 0 185.47 0Z" id="path3194" style="fill:#fff;stroke:#000;stroke-opacity:1"/><path class="cls-2" d="M62.36 21.25a41.1 41.1 0 1 0 41.1 41.1 41.1 41.1 0 0 0-41.1-41.1zM84 73.12a10.7 10.7 0 0 1-6.1-1.92L63 82.16a11 11 0 0 1 .48 3.21 10.79 10.79 0 1 1-4.63-8.84l14.93-11a10.94 10.94 0 0 1 0-6.41l-14.93-11a10.76 10.76 0 1 1 4.63-8.84 10.92 10.92 0 0 1-.48 3.2l14.93 11A10.76 10.76 0 1 1 84 73.12Z" id="path3196" style="fill:#000"/><path class="cls-2" d="m197.08 121-8.25 5.18-4.3-5.94 2.34-10.58 3.65 1a11.22 11.22 0 0 0 14.12-10.87 2.91 2.91 0 0 0-2.92-2.89H167a4.64 4.64 0 0 0-4.63 3.78 4.52 4.52 0 0 0 3.85 5.23l6.28.86c2.05.28 4.08.63 6.12 1l-2.75 12.39c0 .15-.07.3-.09.45l-4.81 21.73-54.12-25.8a18.45 18.45 0 0 0-2.5-10l-2.24-3.81a1.43 1.43 0 0 1 1.23-2.14h10a8.51 8.51 0 0 0 8.5-8.5h-18.25a10.16 10.16 0 0 0-8.69 4.66 9.79 9.79 0 0 0-.15 10.27l2.23 3.82a9.91 9.91 0 0 1 1.17 7l-3.4 16.92c-.91-.07-1.83-.11-2.75-.11a35.43 35.43 0 1 0 11.09 1.78l1.74-8.67 42.68 43.47a11.33 11.33 0 0 0 10.21 15.85 8.83 8.83 0 0 0 2.87-.29l12.13-2.94a35.45 35.45 0 0 0 28.82 21.43c1.12-2.74 2.18-5.51 3.18-8.29a27 27 0 0 1-23.58-15.19l25.58-6.2.13-.05a5.67 5.67 0 0 0-.22-11l-13.4-18.49a26.78 26.78 0 0 1 22.77-.71c.26-3 .44-5.91.57-8.87a34.57 34.57 0 0 0-9.63-1.8 35.33 35.33 0 0 0-18.76 4.42l-4.35-6 5.7-3.58a3.24 3.24 0 0 1 1.71-.49h25.52v-8.48h-28a3.24 3.24 0 0 0-1.68.45zm-68.15 49.06A26.93 26.93 0 1 1 102 143.14h1.06l-4.5 22.4a5.68 5.68 0 1 0 8.34 1.67l4.5-22.4a27 27 0 0 1 17.53 25.26zm37.09-5.5a11 11 0 0 0-2.44.69l-31.45-32 36.93 17.6zm14.39-.17h-5.64l7.3-33.05 9.23 12.74a35.28 35.28 0 0 0-10.89 20.32ZM196.34 151l9.66 13.4h-17a27 27 0 0 1 7.34-13.4z" id="path3198" style="fill:#000"/></g></svg>