<?xml version="1.0" encoding="UTF-8"?><svg id="Layer_1" xmlns="http://www.w3.org/2000/svg" viewBox="0 0 400 400"><defs><style>.cls-1,.cls-2{stroke-width:0px;}.cls-1,.cls-3{fill:#000;}.cls-4,.cls-5,.cls-2{fill:#fff;}.cls-4,.cls-5,.cls-3{stroke:#000;stroke-miterlimit:10;}.cls-4,.cls-3{stroke-width:3px;}.cls-5{stroke-width:4px;}</style></defs><circle class="cls-1" cx="200" cy="200" r="200"/><path class="cls-4" d="M250.15,303.33s0,0,0,0c-.01-.04-.02-.08-.03-.11-.54-2.09-1.14-4.08-1.81-5.98-5.51-18.7-10.47-41.23-7.29-74.38,1.66-17.35,5.21-32.47,9.13-44.93h-73.97c-.81,9.46-1.74,18.92-2.75,28.38-51.16,33.28-91.93,38.85-120.54,37.3-15-.81-30.04-3.77-46.77-7.8,1.18,2.39,2.13,4.86,2.76,7.35,2.64,10.44,5.88,20.69,9.79,30.72,6.26,13.77,13.83,26.85,22.72,39.09,11.44,14.03,24.47,26.6,38.59,37.93,20,14.81,41.52,27.46,63.99,38.15h0s0,0,0,0c0,0,0,0,0,0,1.75.83,3.51,1.65,5.26,2.46,1.09.28,2.17.58,3.25.91,1.66.51,3.31,1.02,4.96,1.5,3.64-.27,7.21-.11,10.66.44,1.67-.21,3.33-.32,4.99-.32,3.97,0,7.78.53,11.37,1.51,27.19-7.74,52.93-21.65,63.17-45.49,6.54-15.22,6.06-32.85,2.52-46.71Z"/><path class="cls-5" d="M344.5,182.04c-58.35-53.01-57.73-140.76-138.43-140.88h0s-.05,0-.08,0-.05,0-.08,0h0c-80.7.12-80.08,87.87-138.43,140.89-6.94,6.3-16.02,9.73-25.4,9.73,0,11.32,9.18,20.5,20.5,20.5s20.43-9.11,20.5-20.37h.05c.65,10.73,9.56,19.23,20.46,19.23s19.8-8.5,20.46-19.23h.09c.65,10.73,9.56,19.23,20.46,19.23,10.02,0,18.33-7.19,20.12-16.69,1.31,21.58,19.21,38.67,41.11,38.67h0c22.61,0,40.96-18.22,41.19-40.78.87,10.52,9.66,18.79,20.41,18.79s19.8-8.5,20.46-19.23h.09c.65,10.73,9.56,19.23,20.46,19.23s19.8-8.5,20.46-19.23h.05c.07,11.26,9.22,20.37,20.5,20.37s20.5-9.18,20.5-20.5c-9.38,0-18.46-3.43-25.4-9.73Z"/><circle class="cls-1" cx="153.65" cy="124.88" r="7.22"/><path class="cls-1" d="M153.65,119.16c3.16,0,5.72,2.56,5.72,5.72s-2.56,5.72-5.72,5.72-5.72-2.56-5.72-5.72,2.56-5.72,5.72-5.72M153.65,116.16c-4.81,0-8.72,3.91-8.72,8.72s3.91,8.72,8.72,8.72,8.72-3.91,8.72-8.72-3.91-8.72-8.72-8.72h0Z"/><circle class="cls-1" cx="188.17" cy="155.21" r="7.22"/><path class="cls-1" d="M188.17,149.49c3.16,0,5.72,2.56,5.72,5.72s-2.56,5.72-5.72,5.72-5.72-2.56-5.72-5.72,2.56-5.72,5.72-5.72M188.17,146.49c-4.81,0-8.72,3.91-8.72,8.72s3.91,8.72,8.72,8.72,8.72-3.91,8.72-8.72-3.91-8.72-8.72-8.72h0Z"/><path class="cls-2" d="M171.44,160.37c-11.78,0-21.35-9.58-21.35-21.35s9.58-21.35,21.35-21.35,21.35,9.58,21.35,21.35-9.58,21.35-21.35,21.35Z"/><path class="cls-1" d="M171.44,119.16c10.96,0,19.85,8.89,19.85,19.85s-8.89,19.85-19.85,19.85-19.85-8.89-19.85-19.85,8.89-19.85,19.85-19.85M171.44,116.16c-12.6,0-22.85,10.25-22.85,22.85s10.25,22.85,22.85,22.85,22.85-10.25,22.85-22.85-10.25-22.85-22.85-22.85h0Z"/><circle class="cls-3" cx="171.44" cy="139.02" r="12.07"/><circle class="cls-1" cx="258.44" cy="123.86" r="7.22"/><path class="cls-1" d="M258.44,118.14c3.16,0,5.72,2.56,5.72,5.72s-2.56,5.72-5.72,5.72-5.72-2.56-5.72-5.72,2.56-5.72,5.72-5.72M258.44,115.14c-4.81,0-8.72,3.91-8.72,8.72s3.91,8.72,8.72,8.72,8.72-3.91,8.72-8.72-3.91-8.72-8.72-8.72h0Z"/><circle class="cls-1" cx="223.92" cy="154.18" r="7.22"/><path class="cls-1" d="M223.92,148.46c3.16,0,5.72,2.56,5.72,5.72s-2.56,5.72-5.72,5.72-5.72-2.56-5.72-5.72,2.56-5.72,5.72-5.72M223.92,145.46c-4.81,0-8.72,3.91-8.72,8.72s3.91,8.72,8.72,8.72,8.72-3.91,8.72-8.72-3.91-8.72-8.72-8.72h0Z"/><path class="cls-2" d="M240.65,159.35c-11.77,0-21.35-9.58-21.35-21.35s9.58-21.35,21.35-21.35,21.35,9.58,21.35,21.35-9.58,21.35-21.35,21.35Z"/><path class="cls-1" d="M240.65,118.14c10.96,0,19.85,8.89,19.85,19.85s-8.89,19.85-19.85,19.85-19.85-8.89-19.85-19.85,8.89-19.85,19.85-19.85M240.65,115.14c-12.6,0-22.85,10.25-22.85,22.85s10.25,22.85,22.85,22.85,22.85-10.25,22.85-22.85-10.25-22.85-22.85-22.85h0Z"/><circle class="cls-3" cx="240.65" cy="137.99" r="12.07"/><path class="cls-1" d="M217,193.46h-21.92c-3.16,0-5.72,2.56-5.72,5.72s2.56,5.72,5.72,5.72c.2,0,.4-.01.6-.03,1.48,4.31,5.55,7.41,10.36,7.41s8.89-3.1,10.36-7.41c.2.02.4.03.6.03,3.16,0,5.72-2.56,5.72-5.72s-2.56-5.72-5.72-5.72Z"/><path class="cls-2" d="M200,17c48.88,0,94.84,19.04,129.4,53.6,34.56,34.56,53.6,80.52,53.6,129.4s-19.04,94.84-53.6,129.4c-34.56,34.56-80.52,53.6-129.4,53.6s-94.84-19.04-129.4-53.6c-34.56-34.56-53.6-80.52-53.6-129.4s19.04-94.84,53.6-129.4c34.56-34.56,80.52-53.6,129.4-53.6M200,0C89.54,0,0,89.54,0,200s89.54,200,200,200,200-89.54,200-200S310.46,0,200,0h0Z"/></svg>