<svg xmlns="http://www.w3.org/2000/svg" id="Layer_1" version="1.1" viewBox="0 0 400 400"><defs id="defs849"><style id="style847">.cls-3{fill:#fff}.cls-4{fill:#000}.cls-3,.cls-4{stroke-width:0}</style></defs><circle id="circle851" cx="200" cy="200" r="200" class="cls-4" style="fill:#000"/><path id="path853" d="M160.57 213.61c-11.24-9.43-36.93-6.86-88.32-1.73-10.67 1.07-19.3 2.25-31.99.82-11.73-1.32-20.01-4.11-27.04-7.05.07.74.12 1.48.15 2.22.13 2.93-.22 5.97-.93 9 1.06 3.7 1.64 7.5 1.65 11.25.02 8.94.33 17.86 1.22 26.74 0 .02 0 .04.01.06 1.9 3.59 3.33 7.47 4.23 11.55 4.36 8.54 9.06 16.92 13.65 25.3 6.1 11.13 12.52 22.08 19.93 32.37 5.42 6.52 11.31 12.58 17.78 18.07 13.94 9.96 29.21 18.07 43.63 27.29a47.21 47.21 0 0 1 5.88 4.45c4.12.43 8.4 4.77 11.52 1.57-4.61-4.5-7.42-16.27-7.8-22.7-.14-2.43-.28-4.74-.39-6.96a52.29 52.29 0 0 1 19.34-43.36c12.02-9.73 21.63-16.38 23.09-18.33 22.4-29.91 16.86-51.71-5.62-70.58Z" style="fill:#fff;stroke:#fff;stroke-width:2.86px;stroke-miterlimit:10"/><path id="path855" d="m299.59 184.28-11.68-.15c11.42-7.38 20.13-16.02 26.24-26 16.67-27.21 9.07-57.05 4.05-76.79-.71-2.79-1.38-5.42-1.91-7.76-1.14-5.06-6.31-8.16-11.36-6.71-4.66 1.34-7.33 6.26-6.25 10.99.57 2.5 1.25 5.15 1.96 7.95 2.29 9 5.01 19.68 5.5 30.71.11 2.42-.44 4.83-1.58 6.96-3.57 6.65-9.02 12.85-16.66 11.62-5.6-.9-9.87-5.54-10.76-11.14-1.26-7.89-3.1-15.14-4.67-21.3-.71-2.79-1.38-5.42-1.91-7.76-1.14-5.06-6.31-8.16-11.36-6.71-4.66 1.34-7.33 6.26-6.25 10.99.57 2.5 1.25 5.15 1.96 7.95 4.67 18.33 10.76 42.26-2.21 63.19-2.61 4.22-8.71 4.72-11.69.76-2.92-3.87-4.24-9.21-5.5-15.58-.25-1.26-.48-2.44-.72-3.51-1.22-5.41-7.06-8.59-12.43-6.33-4.07 1.71-6.15 6.24-5.2 10.54.19.87.38 1.81.57 2.81 1.11 5.61 2.75 13.87 7.53 21.18-5.77-4.63-12.89-7.39-20.3-7.39h-5.15c-7.17 0-14.06 2.57-19.72 6.92 4.55-7.2 6.16-15.23 7.25-20.72.2-1 .38-1.94.57-2.81.95-4.31-1.13-8.83-5.2-10.54-5.37-2.26-11.21.91-12.43 6.33-.24 1.07-.48 2.25-.72 3.51-1.26 6.38-2.58 11.71-5.5 15.58-2.99 3.96-9.08 3.46-11.69-.76-12.96-20.93-6.87-44.86-2.21-63.19.71-2.8 1.39-5.45 1.96-7.95 1.08-4.72-1.6-9.65-6.25-10.99-5.05-1.45-10.22 1.65-11.36 6.71-.53 2.35-1.2 4.98-1.91 7.76-1.57 6.16-3.41 13.41-4.67 21.3-.89 5.6-5.16 10.24-10.76 11.14-7.64 1.23-13.09-4.97-16.66-11.62a13.375 13.375 0 0 1-1.58-6.96c.49-11.04 3.21-21.72 5.5-30.71.71-2.8 1.39-5.45 1.96-7.95 1.08-4.72-1.6-9.65-6.25-10.99-5.05-1.45-10.22 1.65-11.36 6.71-.53 2.35-1.2 4.98-1.91 7.76-5.03 19.74-12.62 49.57 4.05 76.79 6.11 9.98 14.82 18.62 26.24 26l-11.68.15c-13.47.17-21.06 15.61-12.9 26.34.93 1.23 1.94 2.46 3 3.69.02.02.03.04.04.06.13.15.26.3.39.44.19.22.39.44.59.66.25.28.51.56.77.84.18.19.36.39.54.58.43.46.87.92 1.33 1.37l.36.36c.35.35.71.7 1.07 1.05.19.18.38.35.57.53.31.29.62.57.94.86.21.19.42.37.63.56.31.28.63.55.95.82.21.18.43.36.65.55.34.28.69.56 1.03.84.2.16.41.33.62.49.43.33.86.66 1.3.99.14.1.27.21.41.31.58.42 1.17.84 1.77 1.26.16.11.33.22.49.33.45.3.9.6 1.36.9.23.15.46.29.69.44a51.274 51.274 0 0 0 2 1.2c.42.24.84.48 1.27.72.25.14.51.28.77.42.47.25.94.49 1.42.74.23.12.45.23.68.35.71.35 1.43.69 2.16 1.03.24.11.47.21.71.32.6.27 1.21.5 1.82.74.16.06.31.13.47.19 10.84 4.05 22.23 3.2 31.88-1.31-2.08 11.08.49 23.1 6.24 33.52a24.274 24.274 0 0 1 2.63 16.13c-.12.65-.22 1.3-.31 1.96-.54 4.06-1.51 8.03-3.07 11.74l-.4.96c-.84 2-1.87 3.89-2.99 5.71-9.38 15.26 1.62 42.95 9.35 58.67 3.33 6.78 10.54 10.7 18.05 9.9 11.52-1.23 24.29-1.16 35.66.04 7.55.8 14.79-3.15 18.12-9.97 7.73-15.84 18.73-43.81 9.08-59.12-1.15-1.83-2.22-3.72-3.11-5.73l-.27-.6c-1.61-3.64-2.6-7.57-3.14-11.59-.07-.51-.14-1.01-.23-1.51-.97-5.59-.15-11.34 2.62-16.29 5.85-10.48 8.47-22.62 6.39-33.81 10.34 4.83 22.66 5.45 34.17.37.24-.1.47-.21.71-.32a71.6 71.6 0 0 0 2.16-1.03c.23-.11.45-.23.68-.35.48-.24.95-.49 1.42-.74.26-.14.51-.28.77-.42.43-.24.85-.48 1.27-.72.25-.15.51-.3.76-.44.42-.25.83-.5 1.24-.76.23-.14.47-.29.69-.44.46-.29.91-.59 1.36-.9.16-.11.33-.22.49-.33.6-.41 1.19-.83 1.77-1.26.14-.1.28-.21.41-.31.44-.33.87-.65 1.3-.99.21-.16.41-.33.62-.49.35-.28.69-.56 1.03-.84.22-.18.43-.36.65-.55.32-.27.64-.55.95-.82.21-.19.42-.37.63-.56.32-.28.63-.57.94-.86.19-.18.38-.35.57-.53.36-.35.72-.7 1.07-1.05l.36-.36c.45-.45.89-.91 1.33-1.37.18-.19.36-.39.54-.58.26-.28.51-.56.77-.84.2-.22.39-.44.59-.66.13-.15.26-.3.39-.44.02-.02.03-.04.04-.06 1.06-1.23 2.06-2.46 3-3.69 8.15-10.73.57-26.16-12.9-26.34Z" style="fill:#fff;stroke-miterlimit:10;stroke:#000;stroke-width:3.82px"/><circle id="circle857" cx="178.69" cy="246.07" r="13.68" class="cls-3"/><circle id="circle859" cx="178.69" cy="246.07" r="8.32" class="cls-4" style="fill:#000"/><circle id="circle861" cx="226.36" cy="245.36" r="13.68" class="cls-3"/><circle id="circle863" cx="226.36" cy="245.36" r="8.32" class="cls-4" style="fill:#000"/><path id="path865" d="M200 13c49.95 0 96.91 19.45 132.23 54.77C367.55 103.09 387 150.05 387 200s-19.45 96.91-54.77 132.23C296.91 367.55 249.95 387 200 387s-96.91-19.45-132.23-54.77C32.45 296.91 13 249.95 13 200s19.45-96.91 54.77-132.23C103.09 32.45 150.05 13 200 13m0-13C89.54 0 0 89.54 0 200s89.54 200 200 200 200-89.54 200-200S310.46 0 200 0Z" class="cls-4"/></svg>