<svg width="64" height="64" xmlns="http://www.w3.org/2000/svg"><g style="fill:#fff;stroke:#000;stroke-opacity:1;stroke-width:5.50252346;stroke-miterlimit:4;stroke-dasharray:none"><path d="M0 0h-144.165c-22.811 0-41.303-18.492-41.303-41.303v-86.234a206.15 206.15 0 0 1 30.246-107.497l65.549-107.262c8.038-13.154 27.143-13.154 35.181 0l65.549 107.262a206.15 206.15 0 0 1 30.246 107.497v86.234C41.303-18.492 22.811 0 0 0" style="fill:#fff;fill-opacity:1;fill-rule:nonzero;stroke:#000;stroke-opacity:1;stroke-width:5.50252346;stroke-miterlimit:4;stroke-dasharray:none" transform="matrix(.18173 0 0 -.18173 45 0)"/></g><g style="fill:maroon"><path d="M0 0a5.665 5.665 0 0 0-2.38 2.55l-8.604 18.353a14.16 14.16 0 0 1-3.455 4.612l-9.068 8.002a2.836 2.836 0 0 0-.927 1.702l-.342 2.268c4.931 2.417 7.925 8.287 7.925 14.289 0 7.828-5.079 12.894-12.926 12.894s-12.926-5.066-12.926-12.894c0-5.816 2.808-11.513 7.468-14.06l-.171-.937a2.84 2.84 0 0 0-1.188-1.832l-8.81-6.027a28.353 28.353 0 0 1-6.408-6.042L-62.601 8.941a14.17 14.17 0 0 1-2.887-10.176l2.599-24.425a4.25 4.25 0 0 1 3.529-3.744l5.316-.887 1.309 26.165a5.665 5.665 0 0 0 1.654 3.727l3.542 3.543c.373.372.878.581 1.404.581h1.304l-7.536-42.478a1.982 1.982 0 0 1 1.066-2.121l1.509-.755-2.703-29.711a8.531 8.531 0 0 0-.756-2.81l-17.8-38.345 8.504-4.252 9.877-4.939.732 1.463a2.835 2.835 0 0 1-.936 3.608l-5.027 3.435-1.568 1.392 21.059 33.929a14.176 14.176 0 0 1 1.872 4.773l4.463 22.953h.649c.877 0 1.649-.575 1.901-1.414l7.484-24.946c.397-1.324.729-2.666.995-4.022l7.396-37.65H6.901v1.637a2.834 2.834 0 0 1-2.45 2.808l-6.032.824-3.266.876-2.192 32.887a70.892 70.892 0 0 1-.808 6.937l-5.094 30.567 1.533.766a1.984 1.984 0 0 1 1.071 2.088l-5.439 33.996h1.026c.684 0 1.32-.352 1.682-.932l.324-.516a14.187 14.187 0 0 1 7.342-5.868l20.799-7.279a4.251 4.251 0 0 1 4.724 1.357l3.788 4.734z" style="fill:maroon;fill-opacity:1;fill-rule:nonzero;stroke:none" transform="matrix(.18173 0 0 -.18173 36.184 20.82)"/></g></svg>