<svg xmlns="http://www.w3.org/2000/svg" viewBox="0 0 226.77 352.16"><g data-name="Layer 2"><g data-name="Layer 1"><path d="M185.47 0H41.3A41.3 41.3 0 0 0 0 41.3v86.24A206.12 206.12 0 0 0 30.25 235l65.54 107.3a20.63 20.63 0 0 0 35.19 0L196.53 235a206.11 206.11 0 0 0 30.24-107.49V41.3A41.3 41.3 0 0 0 185.47 0Z" style="fill:#fff;stroke:#000;stroke-opacity:1"/><path d="M192.05 34.72a10.57 10.57 0 0 0-11.46-2.3 108.93 108.93 0 0 0-41.9 30.47l-1.39 1.65-96.15-15.65a8.51 8.51 0 0 0-7.38 2.38l-5.42 5.42L111 95.61l-40.13 47.54-38.11-7.89a5.7 5.7 0 0 0-5.16 1.55l-4.92 4.92 42.52 19.84L85 204.09l5-4.92a5.7 5.7 0 0 0 1.51-5.17l-7.89-38.1 47.54-40.18 38.92 82.7 5.42-5.42a8.48 8.48 0 0 0 2.38-7.38l-15.65-96.14 1.65-1.4a108.75 108.75 0 0 0 30.47-41.9 10.57 10.57 0 0 0-2.3-11.46Z" style="fill:#000"/></g></g></svg>