<?xml version="1.0" encoding="UTF-8"?><svg id="Layer_1" xmlns="http://www.w3.org/2000/svg" viewBox="0 0 400 400"><defs><style>.cls-1,.cls-2{fill:#000;}.cls-1,.cls-3{stroke-width:0px;}.cls-2,.cls-4{stroke-width:2.88px;}.cls-2,.cls-4,.cls-5{stroke:#000;stroke-miterlimit:10;}.cls-4,.cls-5,.cls-3{fill:#fff;}.cls-5{stroke-width:3.84px;}</style></defs><circle class="cls-1" cx="200" cy="200" r="200"/><path class="cls-4" d="M222.94,357.55l-49.59-83.3,31.02-32.43-58.65-67.05h0c-38.14,17.01-78.27,27.69-119.5,31.79l-17.56,1.75c6.47,26.06,11.94,52.42,21.03,77.68,4.08,4.18,7.52,9.57,8.58,14.44,1.91,2.1,3.54,4.35,4.75,6.7,2.12,4.14,4.56,8.06,7.22,11.85,3.12,3.74,6.36,7.36,9.63,10.96,2.58,2.29,5.22,4.52,7.83,6.8,4.2,3.67,7.74,8.01,11.53,12.07,7.75,4.49,16.01,8.16,23.66,12.85,9.92,6.09,20.08,11.72,30.44,17.01,2.51.04,4.93.34,7.24.88.91-.03,1.83-.05,2.75-.05l-27.04-45.56,7.25-7.58,60.36,48.83-4.32,12.66c2.41.49,4.03-.16,6.11.24,8.11-1.25,16.34,1.25,24.56,1.57,4.41.18,8.73-3.45,13.02-3.17l.41-.77c4.69-8.87,4.42-19.55-.71-28.17Z"/><path class="cls-1" d="M214.19,235.01c-7.8,0-14.14-5.56-14.14-12.4s6.34-12.4,14.14-12.4,14.14,5.56,14.14,12.4-6.34,12.4-14.14,12.4Z"/><path class="cls-1" d="M214.19,211.65c7.02,0,12.7,4.91,12.7,10.96s-5.69,10.96-12.7,10.96-12.7-4.91-12.7-10.96,5.69-10.96,12.7-10.96M214.19,208.77c-8.59,0-15.58,6.21-15.58,13.84s6.99,13.84,15.58,13.84,15.58-6.21,15.58-13.84-6.99-13.84-15.58-13.84h0Z"/><path class="cls-1" d="M151.56,167.44c-4.56,0-8.27-3.71-8.27-8.27s3.71-8.27,8.27-8.27,8.27,3.71,8.27,8.27-3.71,8.27-8.27,8.27Z"/><path class="cls-1" d="M151.56,152.33c3.77,0,6.83,3.06,6.83,6.83s-3.06,6.83-6.83,6.83-6.83-3.06-6.83-6.83,3.06-6.83,6.83-6.83M151.56,149.45c-5.36,0-9.71,4.36-9.71,9.71s4.36,9.71,9.71,9.71,9.71-4.36,9.71-9.71-4.36-9.71-9.71-9.71h0Z"/><path class="cls-1" d="M192.83,203.69c-4.56,0-8.27-3.71-8.27-8.27s3.71-8.27,8.27-8.27,8.27,3.71,8.27,8.27-3.71,8.27-8.27,8.27Z"/><path class="cls-1" d="M192.83,188.58c3.77,0,6.83,3.06,6.83,6.83s-3.06,6.83-6.83,6.83-6.83-3.06-6.83-6.83,3.06-6.83,6.83-6.83M192.83,185.7c-5.36,0-9.71,4.36-9.71,9.71s4.36,9.71,9.71,9.71,9.71-4.36,9.71-9.71-4.36-9.71-9.71-9.71h0Z"/><path class="cls-3" d="M172.82,201.24c-13.88,0-25.17-11.29-25.17-25.17s11.29-25.17,25.17-25.17,25.17,11.29,25.17,25.17-11.29,25.17-25.17,25.17Z"/><path class="cls-1" d="M172.82,152.33c13.11,0,23.73,10.63,23.73,23.73s-10.63,23.73-23.73,23.73-23.73-10.63-23.73-23.73,10.63-23.73,23.73-23.73M172.82,149.45c-14.67,0-26.61,11.94-26.61,26.61s11.94,26.61,26.61,26.61,26.61-11.94,26.61-26.61-11.94-26.61-26.61-26.61h0Z"/><circle class="cls-2" cx="172.82" cy="176.07" r="14.43"/><circle class="cls-1" cx="276.82" cy="157.94" r="8.27"/><path class="cls-1" d="M276.82,151.11c3.77,0,6.83,3.06,6.83,6.83s-3.06,6.83-6.83,6.83-6.83-3.06-6.83-6.83,3.06-6.83,6.83-6.83M276.82,148.23c-5.36,0-9.71,4.36-9.71,9.71s4.36,9.71,9.71,9.71,9.71-4.36,9.71-9.71-4.36-9.71-9.71-9.71h0Z"/><path class="cls-1" d="M235.56,202.46c-4.56,0-8.27-3.71-8.27-8.27s3.71-8.27,8.27-8.27,8.27,3.71,8.27,8.27-3.71,8.27-8.27,8.27Z"/><path class="cls-1" d="M235.56,187.36c3.77,0,6.83,3.06,6.83,6.83s-3.06,6.83-6.83,6.83-6.83-3.06-6.83-6.83,3.06-6.83,6.83-6.83M235.56,184.48c-5.36,0-9.71,4.36-9.71,9.71s4.36,9.71,9.71,9.71,9.71-4.36,9.71-9.71-4.36-9.71-9.71-9.71h0Z"/><path class="cls-3" d="M255.56,200.01c-13.88,0-25.17-11.29-25.17-25.17s11.29-25.17,25.17-25.17,25.17,11.29,25.17,25.17-11.29,25.17-25.17,25.17Z"/><path class="cls-1" d="M255.56,151.11c13.11,0,23.73,10.63,23.73,23.73s-10.63,23.73-23.73,23.73-23.73-10.63-23.73-23.73,10.63-23.73,23.73-23.73M255.56,148.23c-14.67,0-26.61,11.94-26.61,26.61s11.94,26.61,26.61,26.61,26.61-11.94,26.61-26.61-11.94-26.61-26.61-26.61h0Z"/><circle class="cls-2" cx="255.56" cy="174.84" r="14.43"/><path class="cls-5" d="M311.42,99.96c-.18-.4-.36-.8-.55-1.2-8.39-18.04-20.14-31.66-32.22-41.85,0,0,0,0-.07-.06-.03-.03-.07-.05-.11-.08-.8-.66-4.07-3.33-6.4-5.06-18.61-13.8-45.41-.96-45.7,21.85l-.1,7.82c-8.01-1.14-16.14-1.14-24.15,0l-.1-7.81c-.3-22.81-27.09-35.65-45.7-21.85-2.33,1.73-5.6,4.41-6.4,5.06-.04.03-.07.05-.11.08-.06.05-.08.06-.07.06-12.08,10.19-23.83,23.8-32.22,41.85-.19.4-.37.8-.55,1.2-9.98,22.08-7.27,45.94,4.36,64.66-2.57,17.04.84,33.51,12.97,45.64,5.63,5.63,17.71,15.5,32.41,23.49,12.96,7.07,27.97,12.7,42.4,12.7h9.77c30.72,0,65.79-26.42,74.73-35.36,12.33-12.33,15.85-29.03,13.33-46.29,11.74-18.75,14.5-42.7,4.48-64.85Z"/><path class="cls-1" d="M151.41,167.36c-4.56,0-8.27-3.71-8.27-8.27s3.71-8.27,8.27-8.27,8.27,3.71,8.27,8.27-3.71,8.27-8.27,8.27Z"/><path class="cls-1" d="M151.41,152.25c3.77,0,6.83,3.06,6.83,6.83s-3.06,6.83-6.83,6.83-6.83-3.06-6.83-6.83,3.06-6.83,6.83-6.83M151.41,149.37c-5.36,0-9.71,4.36-9.71,9.71s4.36,9.71,9.71,9.71,9.71-4.36,9.71-9.71-4.36-9.71-9.71-9.71h0Z"/><circle class="cls-1" cx="192.67" cy="195.33" r="8.27"/><path class="cls-1" d="M192.67,188.5c3.77,0,6.83,3.06,6.83,6.83s-3.06,6.83-6.83,6.83-6.83-3.06-6.83-6.83,3.06-6.83,6.83-6.83M192.67,185.62c-5.36,0-9.71,4.36-9.71,9.71s4.36,9.71,9.71,9.71,9.71-4.36,9.71-9.71-4.36-9.71-9.71-9.71h0Z"/><path class="cls-3" d="M172.67,201.16c-13.88,0-25.17-11.29-25.17-25.17s11.29-25.17,25.17-25.17,25.17,11.29,25.17,25.17-11.29,25.17-25.17,25.17Z"/><path class="cls-1" d="M172.67,152.25c13.11,0,23.73,10.63,23.73,23.73s-10.63,23.73-23.73,23.73-23.73-10.63-23.73-23.73,10.63-23.73,23.73-23.73M172.67,149.37c-14.67,0-26.61,11.94-26.61,26.61s11.94,26.61,26.61,26.61,26.61-11.94,26.61-26.61-11.94-26.61-26.61-26.61h0Z"/><circle class="cls-2" cx="172.67" cy="175.98" r="14.43"/><path class="cls-1" d="M276.67,166.13c-4.56,0-8.27-3.71-8.27-8.27s3.71-8.27,8.27-8.27,8.27,3.71,8.27,8.27-3.71,8.27-8.27,8.27Z"/><path class="cls-1" d="M276.67,151.02c3.77,0,6.83,3.06,6.83,6.83s-3.06,6.83-6.83,6.83-6.83-3.06-6.83-6.83,3.06-6.83,6.83-6.83M276.67,148.14c-5.36,0-9.71,4.36-9.71,9.71s4.36,9.71,9.71,9.71,9.71-4.36,9.71-9.71-4.36-9.71-9.71-9.71h0Z"/><path class="cls-1" d="M235.41,202.38c-4.56,0-8.27-3.71-8.27-8.27s3.71-8.27,8.27-8.27,8.27,3.71,8.27,8.27-3.71,8.27-8.27,8.27Z"/><path class="cls-1" d="M235.41,187.27c3.77,0,6.83,3.06,6.83,6.83s-3.06,6.83-6.83,6.83-6.83-3.06-6.83-6.83,3.06-6.83,6.83-6.83M235.41,184.39c-5.36,0-9.71,4.36-9.71,9.71s4.36,9.71,9.71,9.71,9.71-4.36,9.71-9.71-4.36-9.71-9.71-9.71h0Z"/><path class="cls-3" d="M255.41,199.93c-13.88,0-25.17-11.29-25.17-25.17s11.29-25.17,25.17-25.17,25.17,11.29,25.17,25.17-11.29,25.17-25.17,25.17Z"/><path class="cls-1" d="M255.41,151.02c13.11,0,23.73,10.63,23.73,23.73s-10.63,23.73-23.73,23.73-23.73-10.63-23.73-23.73,10.63-23.73,23.73-23.73M255.41,148.14c-14.67,0-26.61,11.94-26.61,26.61s11.94,26.61,26.61,26.61,26.61-11.94,26.61-26.61-11.94-26.61-26.61-26.61h0Z"/><circle class="cls-2" cx="255.41" cy="174.76" r="14.43"/><path class="cls-1" d="M215.95,234.93c-7.8,0-14.14-5.56-14.14-12.4s6.34-12.4,14.14-12.4,14.14,5.56,14.14,12.4-6.34,12.4-14.14,12.4Z"/><path class="cls-1" d="M215.95,211.56c7.02,0,12.7,4.91,12.7,10.96s-5.69,10.96-12.7,10.96-12.7-4.91-12.7-10.96,5.69-10.96,12.7-10.96M215.95,208.68c-8.59,0-15.58,6.21-15.58,13.84s6.99,13.84,15.58,13.84,15.58-6.21,15.58-13.84-6.99-13.84-15.58-13.84h0Z"/><path class="cls-3" d="M200,17c48.88,0,94.84,19.04,129.4,53.6,34.56,34.56,53.6,80.52,53.6,129.4s-19.04,94.84-53.6,129.4c-34.56,34.56-80.52,53.6-129.4,53.6s-94.84-19.04-129.4-53.6c-34.56-34.56-53.6-80.52-53.6-129.4s19.04-94.84,53.6-129.4c34.56-34.56,80.52-53.6,129.4-53.6M200,0C89.54,0,0,89.54,0,200s89.54,200,200,200,200-89.54,200-200S310.46,0,200,0h0Z"/></svg>