<svg xmlns="http://www.w3.org/2000/svg" xml:space="preserve" id="svg848" style="enable-background:new 0 0 226.8 352.1" version="1.1" viewBox="0 0 226.8 352.1"><style id="style839">.st2{fill:#fff}</style><g id="Layer_1"><path id="path841" d="M185.5 0H41.3C18.5 0 0 18.5 0 41.3v86.2c0 37.9 10.5 75.1 30.2 107.5l65.5 107.3c8 13.2 27.1 13.2 35.2 0L196.5 235c19.8-32.4 30.2-69.6 30.2-107.5V41.3C226.8 18.5 208.3 0 185.5 0z" style="fill:#fff;stroke:#000;stroke-opacity:1"/><path id="path843" d="M161.3 45.9h-1.6c-2.2 0-4-1.8-4-4s1.8-4 4-4h1.6c2.2 0 4 1.8 4 4s-1.8 4-4 4zm-21.3 0h-1.6c-2.2 0-4-1.8-4-4s1.8-4 4-4h1.6c2.2 0 4 1.8 4 4s-1.7 4-4 4zm-21.2 0h-1.6c-2.2 0-4-1.8-4-4s1.8-4 4-4h1.6c2.2 0 4 1.8 4 4s-1.8 4-4 4zM170.6 78H169c-2.2 0-4-1.8-4-4s1.8-4 4-4h1.6c2.2 0 4 1.8 4 4s-1.8 4-4 4zm-21.2 0h-1.6c-2.2 0-4-1.8-4-4s1.8-4 4-4h1.6c2.2 0 4 1.8 4 4s-1.8 4-4 4zm3.7 117.9h-1.6c-2.2 0-4-1.8-4-4s1.8-4 4-4h1.6c2.2 0 4 1.8 4 4s-1.8 4-4 4zm-21.2 0h-1.6c-2.2 0-4-1.8-4-4s1.8-4 4-4h1.6c2.2 0 4 1.8 4 4s-1.8 4-4 4zM20.6 82.9H19c-2.2 0-4-1.8-4-4s1.8-4 4-4h1.6c2.2 0 4 1.8 4 4s-1.8 4-4 4zm21.2 0h-1.6c-2.2 0-4-1.8-4-4s1.8-4 4-4h1.6c2.2 0 4 1.8 4 4s-1.8 4-4 4z" class="st2" style="fill:#000"/><path id="path845" d="M39.4 200.3c12.3 0 24.6-.5 36.8-1.6.1 3.1.4 6.2.8 9.3.3 2.1 2.1 3.6 4.2 3.6h9.6c2.1 0 3.9-1.6 4.2-3.6.5-3.7.8-7.5.9-11.3l.6-.1c2.9-.3 5.1-2.7 5.1-5.6v-13.7h5.8c28.2 0 49-16.8 51.9-41.9 1.4-12.6-2.1-25-10-34.9-7.9-9.9-19.2-16.2-31.8-17.6-1-.1-2-.2-3-.2.6-18.1-12.8-34-31.1-36.1-7.6-.9-15 .8-21.6 4.6-7.9-15-22.6-25.2-39.5-27.1-6.5-.7-13-.2-19.2 1.4C1.6 29.1.6 33 .2 37.1c6.5-2.8 13.7-3.9 20.9-3.1C36 35.8 48.9 45.6 54.7 59.7c.7 1.7 2.2 3 4 3.4 1.8.5 3.7 0 5.1-1.1 5.3-4.2 11.8-6.2 18.4-5.4 13.7 1.6 23.6 14 22.1 27.7 0 .3-.1.7-.2 1.1-.5 1.8 0 3.7 1.2 5.1 1.2 1.4 3 2.2 4.9 2.1 2.2-.1 4.3-.1 6.3.2 9.9 1.1 18.9 6.1 25.1 13.9 6.2 7.8 9 17.6 7.9 27.5-2.3 20-18.7 33-41.9 33h-5.8v-2.8c0-7.4-1.5-14.8-4.3-21.6l11-2.4c2.7-.6 4.6-2.9 4.6-5.7 0-3-2.2-5.4-5.2-5.8l-3-.3c-2.6-.3-5.1 1.4-5.7 4-.6 2.2-2.5 3.8-4.8 4L81 110.7c-3-5.9-8.7-9.8-15.3-10.6-21.8-2.6-43.8-2.9-65.7-1v7.5c21.9-2.2 44-1.8 65.8 1.1 2.9.4 5.5 2.3 6.7 5L82.9 137c.8 1.9-.6 4-2.6 4H.4c1.3 20.3 5.7 40.3 12.8 59.3h26.2zm24.5-36c.6-3 2.9-5.4 5.9-6l11.2-2.4c5.5-1.2 10.7 3 10.7 8.7 0 4.9-4 8.9-8.9 8.9H71.4c-4.8-.1-8.5-4.5-7.5-9.2z" class="st2" style="fill:#000"/></g></svg>