<svg viewBox="0 0 226.77 352.15" version="1.1" id="svg2755" xmlns="http://www.w3.org/2000/svg"><defs id="defs2736"><style id="style2734">.cls-2{fill:#fff}</style></defs><g id="g4028"><path d="M185.47 0H41.3A41.31 41.31 0 0 0 0 41.3v86.23A206.18 206.18 0 0 0 30.25 235l65.54 107.29a20.63 20.63 0 0 0 35.19 0L196.53 235a206.17 206.17 0 0 0 30.24-107.5V41.3A41.31 41.31 0 0 0 185.47 0Z" id="path2738" style="fill:#fff;stroke:#000;stroke-opacity:1"/><path class="cls-2" d="M168.66 34H58.11a1.42 1.42 0 0 0-1.42 1.42v129h113.39v-129a1.42 1.42 0 0 0-1.42-1.42Zm-7.08 121.9H65.2V42.51h96.38z" id="path2740" style="fill:#000"/><path class="cls-2" d="m47.31 32.94-22.64-9.38a1.41 1.41 0 0 0-2 1.29v146.09a1.42 1.42 0 0 0 1.86 1.35l22.68-7.56a1.43 1.43 0 0 0 1-1.35V34.25a1.42 1.42 0 0 0-.9-1.31z" id="path2742" style="fill:#000"/><path class="cls-2" d="m202.1 23.56-22.64 9.38a1.42 1.42 0 0 0-.88 1.31v129.13a1.43 1.43 0 0 0 1 1.35l22.68 7.56a1.42 1.42 0 0 0 1.86-1.35V24.85a1.41 1.41 0 0 0-2.02-1.29z" id="path2744" style="fill:#000"/><path class="cls-2" d="M56.69 188.5a1.42 1.42 0 0 0 1.42 1.41h5.67v11.34a2.84 2.84 0 0 0 2.83 2.84H78a2.84 2.84 0 0 0 2.84-2.84v-11.34H146v11.34a2.84 2.84 0 0 0 2.84 2.84h11.34a2.84 2.84 0 0 0 2.83-2.84v-11.34h5.67a1.42 1.42 0 0 0 1.42-1.41v-15.59H56.69Z" id="path2746" style="fill:#000"/><rect class="cls-2" x="73.7" y="102.04" width="34.02" height="45.35" rx="1.42" id="rect2748" style="fill:#000"/><rect class="cls-2" x="87.87" y="59.52" width="34.02" height="34.02" rx="1.42" id="rect2750" style="fill:#000"/><rect class="cls-2" x="116.22" y="102.04" width="34.02" height="45.35" rx="1.42" id="rect2752" style="fill:#000"/></g></svg>