<svg viewBox="0 0 226.77 352.16" version="1.1" id="svg1007" xmlns="http://www.w3.org/2000/svg"><defs id="defs997"><style id="style995">.cls-2{fill:#fefefe}</style></defs><g id="Layer_1-2" data-name="Layer 1"><g id="g2137"><path d="M185.47 0H41.3A41.3 41.3 0 0 0 0 41.3v86.24A206.12 206.12 0 0 0 30.25 235l65.54 107.3a20.63 20.63 0 0 0 35.19 0L196.53 235a206.11 206.11 0 0 0 30.24-107.49V41.3A41.3 41.3 0 0 0 185.47 0Z" id="path999" style="fill:#fff;stroke:#000;stroke-opacity:1;stroke-width:1;stroke-miterlimit:4;stroke-dasharray:none"/></g><path class="cls-2" d="M109.13 67.63V82.2h8.51V67.63a22.68 22.68 0 0 0 18.42-22.28v-5.67a2.83 2.83 0 0 0-2.83-2.83H129V25.44a4.19 4.19 0 0 0-4.19-4.18h-.13a4.19 4.19 0 0 0-4.19 4.18v11.41H106.3V25.44a4.18 4.18 0 0 0-4.18-4.18H102a4.18 4.18 0 0 0-4.18 4.18v11.41h-4.28a2.83 2.83 0 0 0-2.83 2.83v5.67a22.68 22.68 0 0 0 18.42 22.28z" id="path1001" style="fill:#000"/><path class="cls-2" d="m193.24 121.31-3-.33a5.3 5.3 0 0 0-5.72 4 5.28 5.28 0 0 1-4.77 4l-13.37-26a19.85 19.85 0 0 0-15.33-10.63 322.22 322.22 0 0 0-75.39 0 19.87 19.87 0 0 0-15.33 10.63L47 128.94a5.26 5.26 0 0 1-4.76-4 5.31 5.31 0 0 0-5.73-4l-3 .33A5.83 5.83 0 0 0 33 132.8l11 2.37a56.64 56.64 0 0 0-4.34 21.7v26.54a5.67 5.67 0 0 0 5.06 5.64l.63.06a87.64 87.64 0 0 0 .87 11.33 4.25 4.25 0 0 0 4.21 3.65h9.63a4.25 4.25 0 0 0 4.21-3.65 87.76 87.76 0 0 0 .83-9.3q18.44 1.61 37 1.62h22.61q18.5 0 36.95-1.62a87.76 87.76 0 0 0 .83 9.3 4.25 4.25 0 0 0 4.21 3.65h9.63a4.25 4.25 0 0 0 4.21-3.65 87.64 87.64 0 0 0 .87-11.33l.63-.06a5.68 5.68 0 0 0 5.07-5.64v-26.54a56.65 56.65 0 0 0-4.35-21.7l11.08-2.37a5.83 5.83 0 0 0-.58-11.49zM70 165.83H58.49a8.89 8.89 0 0 1-8.88-8.89 8.89 8.89 0 0 1 10.72-8.7l11.24 2.37A7.69 7.69 0 0 1 70 165.83Zm-9-32.6a2.83 2.83 0 0 1-2.6-4L69 105a8.49 8.49 0 0 1 6.68-5 285 285 0 0 1 75.52 0 8.49 8.49 0 0 1 6.67 5l10.53 24.23a2.83 2.83 0 0 1-2.59 4zm116.15 23.71a8.89 8.89 0 0 1-8.89 8.89h-11.5a7.69 7.69 0 0 1-1.58-15.22l11.25-2.37a8.89 8.89 0 0 1 10.72 8.7z" id="path1003" style="fill:#000"/></g></svg>