<svg xmlns="http://www.w3.org/2000/svg" xml:space="preserve" id="svg866" x="0" y="0" style="enable-background:new 0 0 254 152.9" version="1.1" viewBox="37.18 1.05 149.06 149.05">
    <style id="style848" type="text/css">.st20{fill:#2c2c2c}</style>
    <path id="path1091" d="M186.242 75.577a74.532 74.524 0 0 1-74.485 74.524 74.532 74.524 0 0 1-74.578-74.43A74.532 74.524 0 0 1 111.57 1.053a74.532 74.524 0 0 1 74.67 74.337" style="fill:#fff;stroke:#000"/>
    <g id="Layer_1" transform="matrix(.5202 0 0 .5202 45.618 35.807)">
        <g id="g863">
            <path id="path851" d="M108.6 51c0-2.8-2.3-5.1-5.1-5.1h-8.6l6.2-5.7c2.1-1.9 2.2-5.2.3-7.2-1.9-2.1-5.2-2.2-7.2-.3L78.3 47.2c-.7.6-1.2 1.4-1.4 2.2v.1c0 .1-.1.3-.1.4v.1c0 .1 0 .2-.1.4v1.4c0 .1 0 .2.1.4v.1c0 .1.1.3.1.4.7 2 2.6 3.4 4.8 3.4h8.5L84 61.8c-2.1 1.9-2.2 5.2-.3 7.2 1 1.1 2.4 1.7 3.8 1.7 1.2 0 2.5-.4 3.5-1.4L106.7 55c1.2-.9 1.9-2.4 1.9-4z" style="fill:#ff6400"/>
            <g id="g861">
                <path id="path853" d="M128.7 3.2h-22.9c-2.9 0-5.2 2.4-5.1 5.3.1 2.8 2.5 5 5.3 5h14.4c1.1 0 1.9.9 1.9 1.9v77.3c0 .5-.4 1-1 1H85.9c-.7 0-1.4-.4-1.7-1L54.4 36.5h12.1c2.8 0 5.1-2.3 5.1-5.1s-2.3-5.1-5.1-5.1h-37c-2.8 0-5.1 2.3-5.1 5.1s2.3 5.1 5.1 5.1H43c.1.4.3.9.5 1.3l34.1 64.1c.7 1.3 2 2.1 3.4 2.1h47.7c2.1 0 3.9-1.7 3.9-3.9v-93c0-2.2-1.8-3.9-3.9-3.9z" class="st20"/>
                <path id="path855" d="M251.9 49.7c0-2.1-1.7-3.8-3.9-3.8h-92.7V34c0-2.8-2.2-5.3-5-5.3-2.9-.1-5.3 2.2-5.3 5.1V100c0 2.1 1.7 3.9 3.9 3.9h9.1c2.8 0 5.3-2.2 5.3-5 .1-2.9-2.2-5.3-5.1-5.3h-1.9c-.5 0-1-.4-1-1V58c0-1.1.9-1.9 1.9-1.9h82.5c1.1 0 1.9.9 1.9 1.9v34.6c0 .5-.4 1-1 1H239c-2.8 0-5.3 2.2-5.3 5-.1 2.9 2.2 5.3 5.1 5.3h9.3c2.1 0 3.9-1.7 3.9-3.9V51Z" class="st20"/>
                <path id="path857" d="M36.9 80.1c-19.2 0-34.8 15.6-34.8 34.8 0 19.2 15.6 34.8 34.8 34.8 19.2 0 34.8-15.6 34.8-34.8 0-19.2-15.6-34.8-34.8-34.8zm0 59.4c-13.5 0-24.6-11-24.6-24.6 0-13.6 11-24.6 24.6-24.6 13.6 0 24.6 11 24.6 24.6 0 13.6-11 24.6-24.6 24.6z" class="st20"/>
                <path id="path859" d="M198.5 80.1c-19.2 0-34.8 15.6-34.8 34.8 0 19.2 15.6 34.8 34.8 34.8 19.2 0 34.8-15.6 34.8-34.8 0-19.2-15.6-34.8-34.8-34.8zm0 59.4c-13.5 0-24.6-11-24.6-24.6 0-13.6 11-24.6 24.6-24.6 13.5 0 24.6 11 24.6 24.6 0 13.6-11.1 24.6-24.6 24.6z" class="st20"/>
            </g>
        </g>
    </g>
</svg>