<svg version="1.1" x="0" y="0" viewBox="0 0 226.8 352.1" style="enable-background:new 0 0 226.8 352.1" xml:space="preserve" id="svg898" xmlns="http://www.w3.org/2000/svg"><style type="text/css" id="style864">.st2{fill:#fff}</style><g id="Layer_1"><g id="g895"><path d="M185.5 0H41.3C18.5 0 0 18.5 0 41.3v86.2c0 37.9 10.5 75.1 30.2 107.5l65.5 107.3c8 13.2 27.1 13.2 35.2 0L196.5 235c19.8-32.4 30.2-69.6 30.2-107.5V41.3C226.8 18.5 208.3 0 185.5 0z" id="path867" style="fill:#fff;stroke:#000;stroke-opacity:1;stroke-width:1;stroke-miterlimit:4;stroke-dasharray:none"/><g id="g873" style="fill:#000"><g id="g871" style="fill:#000"><path d="M81.7 85.9c1-.6 1.9-1.5 2.4-2.6L92.7 65c.8-1.8 2-3.3 3.5-4.6l9.1-8c.5-.4.8-1 .9-1.7l.3-2.3c-4.9-2.4-7.9-8.3-7.9-14.3 0-7.8 5.1-12.9 12.9-12.9s12.9 5.1 12.9 12.9c0 5.8-2.8 11.5-7.5 14.1l.2.9c.1.7.6 1.4 1.2 1.8l8.8 6c2.4 1.7 4.6 3.7 6.4 6l10.8 13.9c2.2 2.9 3.3 6.5 2.9 10.2l-2.6 24.4c-.2 1.9-1.6 3.4-3.5 3.7l-5.3.9-1.3-26c-.1-1.4-.7-2.7-1.7-3.7l-3.5-3.5c-.4-.4-.9-.6-1.4-.6h-1.3l7.5 42.5c.2.9-.3 1.7-1.1 2.1l-1.5.8 2.7 29.7c.1 1 .3 1.9.8 2.8l17.8 38.4-8.5 4.3-9.9 4.9-.7-1.5c-.6-1.3-.2-2.8.9-3.6l5-3.4 1.6-1.4-21.1-34c-.9-1.5-1.5-3.1-1.9-4.8l-4.5-23h-.7c-.9 0-1.7.6-1.9 1.4l-7.5 25c-.4 1.3-.7 2.7-1 4l-7.4 37.7H74.8v-1.6c0-1.4 1-2.6 2.5-2.8l6-.8 3.3-.9 2.2-32.9c.2-2.3.4-4.6.8-6.9l5.1-30.6-1.5-.8c-.8-.4-1.2-1.2-1.1-2.1l5.4-34h-1c-.7 0-1.3.4-1.7.9l-.3.5c-1.7 2.7-4.3 4.8-7.3 5.9l-20.8 7.3c-1.7.6-3.6.1-4.7-1.4l-3.8-4.7 23.8-13.3z" id="path869" style="fill:#000"/></g></g><path class="st2" id="polygon875" style="fill:#000" d="M125.1 226.1h-23.7l1.9-39.2h20z"/><g id="g879" style="fill:#000"><path class="st2" d="M74.8 207.2h-3v-4.6c0-2.9 2.2-5.4 5-5.8l5.9-.8 1-.3.6-8.8h-17l-12.5 39.2h23.7l4.1-19h-7.8z" id="path877" style="fill:#000"/></g><g id="g885" style="fill:#000"><path class="st2" id="polygon881" style="fill:#000" d="m152.8 198.5-5.4-11.6h-7.7l3.6 16.3 1-.5z"/><path class="st2" id="polygon883" style="fill:#000" d="M159.5 186.9h-8.8l4.8 10.3 1.3 2.7-2.6 1.3-8.6 4.2-1.6.9 4.3 19.8H172z"/></g><g id="g893"><path d="M185.5 0H41.3C18.5 0 0 18.5 0 41.3v86.2c0 28.6 6 56.9 17.4 82.9l13.5-23.6h19.2l-18 39.2h-7c1.6 3 3.3 6 5.1 8.9l65.5 107.3c8 13.2 27.1 13.2 35.2 0L196.5 235c1.8-2.9 3.5-5.9 5.1-8.9h-7l-18-39.2h19.2l13.5 23.6c11.4-26 17.4-54.3 17.4-82.9V41.3C226.8 18.5 208.3 0 185.5 0z" id="path887" style="fill:none"/><path class="st2" d="M50.1 186.9H30.9l-13.5 23.6c2.3 5.3 4.9 10.5 7.7 15.7h7l18-39.3z" id="path889" style="fill:#000"/><path class="st2" d="m176.6 186.9 18 39.2h7c2.8-5.1 5.4-10.3 7.7-15.7l-13.5-23.6h-19.2z" id="path891" style="fill:#000"/></g></g></g></svg>