<svg xmlns="http://www.w3.org/2000/svg" id="svg856" version="1.1" viewBox="0 0 226.77 352.16"><defs id="defs844"><style id="style842">.cls-2{fill:#fff}</style></defs><g id="Layer_2" data-name="Layer 2"><g id="Layer_1-2" data-name="Layer 1"><path id="path846" d="M185.47 0H41.3A41.3 41.3 0 0 0 0 41.3v86.24A206.12 206.12 0 0 0 30.25 235l65.54 107.3a20.63 20.63 0 0 0 35.19 0L196.53 235a206.11 206.11 0 0 0 30.24-107.49V41.3A41.3 41.3 0 0 0 185.47 0Z" style="fill:#fff;stroke:#000;stroke-opacity:1"/><path id="path848" d="M175.75 151.65a15.59 15.59 0 1 0 15.59 15.59 15.59 15.59 0 0 0-15.59-15.59Zm0 22.68a7.09 7.09 0 1 1 7.08-7.09 7.08 7.08 0 0 1-7.08 7.09Z" class="cls-2" style="fill:#000"/><path id="path850" d="M51 151.65a15.59 15.59 0 1 0 15.59 15.59A15.59 15.59 0 0 0 51 151.65Zm0 22.68a7.09 7.09 0 1 1 7.09-7.09 7.08 7.08 0 0 1-7.09 7.09Z" class="cls-2" style="fill:#000"/><path id="path852" d="M184.25 134.65h-8.5a32.61 32.61 0 0 0-32.1 26.92H90.3a2.83 2.83 0 0 1-2.45-1.41l-11.43-19.8L80.29 121a17 17 0 0 0-11.76-19.61l8.73-43.61a7.11 7.11 0 0 0-4.44-8 7 7 0 0 0-1.82-.46l-7.34-.74a5.67 5.67 0 1 0-.83 8.42l5.78.58-17.11 85.58a24.08 24.08 0 0 1 20.39 12L78 165.83a14.17 14.17 0 0 0 12.27 7.08h58.52a2.83 2.83 0 0 0 2.83-2.83v-2.84a24.1 24.1 0 0 1 24.1-24.09 8.51 8.51 0 0 0 8.53-8.5Z" class="cls-2" style="fill:#000"/></g></g></svg>