<svg xmlns="http://www.w3.org/2000/svg" viewBox="0 0 226.77 352.16"><g data-name="Layer 2"><g data-name="Layer 1"><path d="M185.47 0H41.3A41.3 41.3 0 0 0 0 41.3v86.24A206.12 206.12 0 0 0 30.25 235l65.54 107.3a20.63 20.63 0 0 0 35.19 0L196.53 235a206.11 206.11 0 0 0 30.24-107.49V41.3A41.3 41.3 0 0 0 185.47 0Z" style="fill:#fff;stroke:#000;stroke-opacity:1"/><path d="M143.34 85.93a5.67 5.67 0 0 1-2.34-2.55L132.35 65a14.25 14.25 0 0 0-3.45-4.62l-9.07-8a2.83 2.83 0 0 1-.93-1.7l-.34-2.27c4.93-2.41 7.92-8.28 7.92-14.29 0-7.82-5.08-12.89-12.92-12.89s-12.93 5.07-12.93 12.89c0 5.82 2.81 11.52 7.47 14.06l-.17.94a2.82 2.82 0 0 1-1.19 1.88l-8.81 6a28.51 28.51 0 0 0-6.41 6L80.73 77a14.14 14.14 0 0 0-2.88 10.17l2.6 24.43a4.23 4.23 0 0 0 3.55 3.73l5.32.89 1.28-26.17a5.67 5.67 0 0 1 1.65-3.72l3.55-3.54a1.94 1.94 0 0 1 1.4-.59h1.3L91 124.68a2 2 0 0 0 1 2.12l1.51.76-2.7 29.71a8.38 8.38 0 0 1-.76 2.81l-17.8 38.34 8.51 4.26 9.87 4.94.74-1.47a2.84 2.84 0 0 0-.94-3.61l-5-3.43-1.56-1.39 21-33.93a14.24 14.24 0 0 0 1.93-4.79l4.46-23h2.13l7.9 26.36c.4 1.33.73 2.67 1 4l7.39 37.65h20.56v-1.63a2.84 2.84 0 0 0-2.45-2.81l-6-.83-3.26-.87-2.19-32.89c-.16-2.32-.43-4.64-.81-6.93l-5.1-30.57 1.54-.77a2 2 0 0 0 1.03-2.01l-5.44-34h1a2 2 0 0 1 1.68.93l.32.52a14.17 14.17 0 0 0 7.37 5.85l20.8 7.28a4.25 4.25 0 0 0 4.73-1.35l3.78-4.74Z" style="fill:#000"/></g></g></svg>