<?xml version="1.0" encoding="UTF-8"?><svg id="Layer_1" xmlns="http://www.w3.org/2000/svg" viewBox="0 0 400 400"><defs><style>.cls-1{fill:#000;}.cls-1,.cls-2{stroke-width:0px;}.cls-3{stroke:#000;stroke-miterlimit:10;stroke-width:3px;}.cls-3,.cls-2{fill:#fff;}</style></defs><circle class="cls-1" cx="200" cy="200" r="200"/><path class="cls-2" d="M395.79,178.9c-1.43-7.42-3.38-14.74-4.72-22.18-.86-4.8-1.67-9.73-2.22-14.69l-164.24,92.44c-.03-.08-.05-.16-.08-.24-3.78-11.52-7.97-24.14-12.29-37.02,2.9-.78,5.59-2.44,7.63-4.96,4.94-6.11,4.21-14.97-1.52-20.2l.04-.05c6.32,4.5,15.13,3.36,20.07-2.75,4.94-6.11,4.21-14.97-1.52-20.2l.04-.05c6.32,4.5,15.13,3.36,20.07-2.75,4.94-6.11,4.21-14.97-1.52-20.2l.02-.03c6.35,5.07,15.61,4.07,20.73-2.26,5.13-6.35,4.15-15.66-2.21-20.8-4.01,4.97-9.62,8.4-15.86,9.64.67-.58,1.3-1.21,1.88-1.92,5.13-6.35,4.15-15.67-2.21-20.8-4.01,4.97-9.62,8.4-15.86,9.64.67-.58,1.3-1.21,1.88-1.92,5.13-6.35,4.15-15.66-2.21-20.8-4.25,5.26-10.3,8.8-16.98,9.84-9.15,1.42-16.97,1.82-23.75,1.68-.05-3.1.1-6.29.51-9.91.98-8.69,4.76-15,7.62-18.83-8.87,0-16.86,5.53-22.46,14.35.11-1.92.33-3.92.68-6.08,1.43-8.69,6.99-15,11.19-18.83-19.44,0-36,12.3-42.33,29.55h0c-4.87,5.74-9.63,14.58-29.57,33.23v174.7c-26.27,4.71-56.5,12.15-90.23,23.25.49.44.96.89,1.42,1.34,1.08,1.08,2.12,2.26,3.12,3.53,2.63,2.65,5.01,5.6,7.17,8.79.43.64.88,1.27,1.33,1.9,5.64,6.68,11.83,12.87,18.51,18.51.63.44,1.26.89,1.9,1.33,6.8,4.61,12.08,9.96,15.9,16.53,4.18,2.81,8.51,5.34,13.1,7.48,2.37.99,4.74,2,7.1,3,1.64.49,3.29.99,4.93,1.47.05.01.09.03.14.04,11.69,3.42,23.24,10.09,34.56,14.62,7.89,3.16,15.66,3.49,23.84,5.61,42.09,7.64,61.09-3.36,90.81-7.01,1.4-.17,2.8.07,4.17.2,1.71-.72,3.44-1.32,5.18-1.74,5.83-1.42,11.52-3.22,17.12-5.33,14.98-6.97,28.79-15.86,42.08-25.67,6.35-5.24,12.26-10.93,17.61-17.19,6.94-10.1,12.25-21.06,18.4-31.68,6.6-11.39,13.56-22.57,19.18-34.47,5.12-13.63,8.72-28.19,11.08-42.59.86-8.75,1.12-17.56,1.19-26.35.06-7.65.15-15.46-.43-23.14Z"/><path class="cls-3" d="M161.49,113.09c-15.22-10.84-37.67-13.43-47.2,7.93-8.95,18.26,10.43,28.65,10.44,40.93,0,.94,1.19,1.33,1.73.57l35.03-49.43"/><path class="cls-2" d="M178.4,119.86c-2.77,0-5.05-2.25-5.08-5.02-.02-1.36.5-2.64,1.45-3.61.95-.97,2.22-1.51,3.58-1.53,2.83,0,5.11,2.25,5.14,5.02.02,1.36-.5,2.64-1.45,3.61-.95.97-2.22,1.51-3.58,1.53h-.06Z"/><path class="cls-1" d="M178.4,111.2c1.95,0,3.56,1.59,3.58,3.54.01.96-.35,1.86-1.02,2.54-.67.68-1.56,1.07-2.56,1.08-1.95,0-3.56-1.59-3.58-3.54-.02-1.97,1.57-3.6,3.54-3.62h.04M178.4,108.2s-.05,0-.08,0c-3.63.04-6.55,3.02-6.51,6.66.04,3.61,2.98,6.51,6.58,6.51.03,0,.05,0,.08,0,3.63-.04,6.55-3.02,6.51-6.66-.04-3.61-2.98-6.51-6.58-6.51h0Z"/><path class="cls-2" d="M159.98,155.61c-11.64,0-21.22-9.47-21.35-21.12-.06-5.71,2.1-11.09,6.08-15.17,3.99-4.08,9.33-6.36,15.03-6.43h.25c11.64,0,21.22,9.47,21.35,21.11.13,11.78-9.34,21.46-21.11,21.6h-.25Z"/><path class="cls-1" d="M159.99,114.4c10.82,0,19.73,8.81,19.85,19.63.06,5.3-1.95,10.31-5.66,14.11-3.71,3.79-8.67,5.91-13.97,5.97h-.23c-10.82,0-19.73-8.81-19.85-19.63-.06-5.3,1.95-10.31,5.66-14.11,3.71-3.79,8.67-5.91,13.97-5.97h.23M159.99,111.4c-.09,0-.18,0-.26,0-12.62.14-22.74,10.49-22.6,23.11.14,12.53,10.35,22.6,22.85,22.6.09,0,.18,0,.26,0,12.62-.14,22.74-10.49,22.6-23.11-.14-12.53-10.35-22.6-22.85-22.6h0Z"/><circle class="cls-1" cx="159.99" cy="134.26" r="13.9"/><path class="cls-2" d="M200,18c48.61,0,94.32,18.93,128.69,53.31,34.38,34.38,53.31,80.08,53.31,128.69s-18.93,94.32-53.31,128.69c-34.38,34.38-80.08,53.31-128.69,53.31s-94.32-18.93-128.69-53.31c-34.38-34.38-53.31-80.08-53.31-128.69s18.93-94.32,53.31-128.69c34.38-34.38,80.08-53.31,128.69-53.31M200,0C89.54,0,0,89.54,0,200s89.54,200,200,200,200-89.54,200-200S310.46,0,200,0h0Z"/></svg>