<?xml version="1.0" encoding="UTF-8"?>
<svg id="Layer_1" xmlns="http://www.w3.org/2000/svg" version="1.1" viewBox="0 0 226.8 352.1">
  <!-- Generator: Adobe Illustrator 29.1.0, SVG Export Plug-In . SVG Version: 2.1.0 Build 142)  -->
  <defs>
    <style>
      .icebw0 {
        fill: #fff;
      }
    </style>
  </defs>
  <path class="icebw0" d="M185.5,0H41.3C18.5,0,0,18.5,0,41.3v86.2c0,37.9,10.5,75.1,30.2,107.5l65.5,107.3c8,13.2,27.1,13.2,35.2,0l65.5-107.3c19.8-32.4,30.2-69.6,30.2-107.5V41.3c0-22.8-18.5-41.3-41.3-41.3Z"/>
  <g>
    <path d="M182.8,145.1v5.2c0,2.4-1.7,4.3-3.9,4.4l-28.3-.2c-9.2,0-18.4-1.2-27.3-3.5,0,0-.1,0-.2,0-9.7-2.5-19.8-5.9-35-8.1l.3,7.7c0,2.1-1.6,3.9-3.5,3.9h-24.4c-2,0-3.5-1.7-3.5-3.9v-23.9c27.9,1.1,46.5,11,58.1,14,13.6,3.5,27.4,5.5,41.3,5.5s4.8,0,7.3-.2l19.1-1Z"/>
    <path d="M176.5,115.4c-7.4-3.3-21.6-6.6-34.4-12.1-14-6-24.2-19.3-27.1-35.4-1.4-7.9-2.4-17.6-2-28.6.2-4.2-3-7.6-6.8-7.4-10,.4-28,2.4-39.1,11.3-2.5,2-3.9,5.2-3.9,8.5v17.8c0,6.7-1.1,13.3-3.4,19.4-3.2,8.7-6.9,16.6-2.9,33h.2c21.1.9,37,6.5,48.6,10.7,4.1,1.4,7.6,2.7,10.5,3.4,13.7,3.5,27,5.3,39.6,5.4h.2c1.3,0,2.7,0,4,0,.6,0,1.1,0,1.7,0,.3,0,.6,0,.9,0,.6,0,1.1,0,1.7,0l18.5-1s0,0,0,0c.2-.5,6.1-19.1-6.3-24.8ZM97,60.7c0-3,2.4-5.4,5.4-5.4s5.4,2.4,5.4,5.4-2.4,5.4-5.4,5.4-5.4-2.4-5.4-5.4ZM106.4,88c-3,0-5.4-2.4-5.4-5.4s2.4-5.4,5.4-5.4,5.4,2.4,5.4,5.4-2.4,5.4-5.4,5.4ZM118.7,105.8c-3,0-5.4-2.4-5.4-5.4s2.4-5.4,5.4-5.4,5.4,2.4,5.4,5.4-2.4,5.4-5.4,5.4ZM139.2,118.4c-3,0-5.4-2.4-5.4-5.4s2.4-5.4,5.4-5.4,5.4,2.4,5.4,5.4-2.4,5.4-5.4,5.4Z"/>
    <path d="M176.7,154.7l-6.4-.8,2.9,7.3c1.7,4.3-1.5,9-6.2,9-4,0-9.1,0-14.9,0-6.4-.9-14.2-4.9-12.1-18.8h-10.2s7.5,18.5-17.9,18.7c-1.7,0-3.1,0-4.1.1h-2.5c-31.8,0-25-16.3-25-16.3h-16.2s8.4,15.5-19.4,16.3c-1.2,0-2.2,1-2.2,2.2v3.2c0,1.2,1,2.2,2.2,2.2h128.8s8,.4,9.3-7.6c1.3-8-6.1-15.5-6.1-15.5Z"/>
  </g>
</svg>