<svg width="70" height="70" xmlns="http://www.w3.org/2000/svg"><g style="fill:#fff;stroke:#000;stroke-opacity:1;stroke-width:5.03087853;stroke-miterlimit:4;stroke-dasharray:none"><path d="M0 0h-144.165c-22.811 0-41.303-18.492-41.303-41.303v-86.234a206.15 206.15 0 0 1 30.246-107.497l65.549-107.262c8.038-13.154 27.143-13.154 35.181 0l65.549 107.262a206.15 206.15 0 0 1 30.246 107.497v86.234C41.303-18.492 22.811 0 0 0" style="fill:#fff;fill-opacity:1;fill-rule:nonzero;stroke:#000;stroke-opacity:1;stroke-width:5.03087853;stroke-miterlimit:4;stroke-dasharray:none" transform="matrix(.19877 0 0 -.19877 49.117 -.511)"/></g><g style="fill:#000"><path d="M0 0v32.403h7.448c2.597 0 5.023-.145 7.29-.409 2.268-.277 4.219-.949 5.84-2.03 1.621-1.081 2.913-2.61 3.889-4.614.962-2.004 1.45-4.772 1.45-8.345 0-6.472-2.096-10.928-6.314-13.367C15.397 1.213 8.859 0 0 0m36.041-8.015c4.166 2.531 7.29 5.88 9.399 10.045 2.11 4.153 3.164 9.307 3.164 15.463 0 6.697-1.028 12.128-3.085 16.281-2.056 4.152-4.943 7.369-8.661 9.636-3.73 2.267-8.291 3.783-13.696 4.535-5.392.751-11.39 1.134-17.981 1.134h-27.855V-41.63H0v26.562c7.778 0 14.686.541 20.736 1.622 6.051 1.081 11.153 2.887 15.305 5.431" style="fill:#000;fill-opacity:1;fill-rule:nonzero;stroke:none" transform="matrix(.19877 0 0 -.19877 21.266 13.751)"/></g><g style="fill:#000"><path d="M0 0a1.418 1.418 0 0 0-1.935-.526 22.665 22.665 0 0 1-11.236 2.983A22.667 22.667 0 0 1-24.407-.526 1.415 1.415 0 0 0-26.342 0a1.42 1.42 0 0 0 .527 1.935 25.502 25.502 0 0 0 25.289 0A1.42 1.42 0 0 0 0 0m-2.593-5.09a1.418 1.418 0 0 0-1.941-.498c-5.254 3.108-12.02 3.108-17.274 0a1.417 1.417 0 1 0-1.443 2.44 19.823 19.823 0 0 0 10.08 2.77c3.53 0 7.017-.958 10.08-2.77a1.417 1.417 0 0 0 .498-1.942m-5.243-10.265a1.415 1.415 0 0 0-1.981-.302c-1.969 1.449-4.741 1.449-6.705 0a1.418 1.418 0 0 0-1.682 2.283 8.435 8.435 0 0 0 5.033 1.658 8.437 8.437 0 0 0 5.033-1.658 1.416 1.416 0 0 0 .302-1.981m-11.36 4.726a1.418 1.418 0 0 0-1.512 2.399 14.136 14.136 0 0 0 7.537 2.183c2.663 0 5.27-.755 7.538-2.183a1.419 1.419 0 0 0 .444-1.956 1.42 1.42 0 0 0-1.956-.443c-3.627 2.286-8.421 2.288-12.051 0m15.238-23.747a2.126 2.126 0 0 0-2.126-2.126h-14.174a2.126 2.126 0 0 0-2.126 2.126v9.921c0 1.174.952 2.126 2.126 2.126h14.174a2.126 2.126 0 0 0 2.126-2.126zm120.67 47.664-4.704-5.75C104.491-1.648 93.4-7.534 81.579-8.608a53.383 53.383 0 0 1-21.931-7.013L42.341-25.723a5.082 5.082 0 0 0-6.71 1.421c-4.371 6.062-4.219 14.412.371 20.309a50.372 50.372 0 0 0 23.947 16.919c12.778 4.245 21.899 15.162 23.803 28.493l.121.85-8.418 1.199-.121-.848c-1.445-10.116-8.368-18.402-18.066-21.624a59.03 59.03 0 0 1-13.49-6.475h-74.665a5.67 5.67 0 0 1-5.67-5.669v-68.031a5.67 5.67 0 0 1 5.67-5.67H71.16a5.67 5.67 0 0 1 5.669 5.67v41.23a44.19 44.19 0 0 0 5.52.872c1 .091 1.994.218 2.984.366v-2.448l5.37-4.083a3.808 3.808 0 0 0 .881-5.093 3.794 3.794 0 0 0-5.066-1.218l-1.185.68v-22.393a14.572 14.572 0 0 1 2.539 2.936c1.971 3.022 2.672 6.541 2.225 9.9 3.409.477 6.596 2.362 8.61 5.449 3.505 5.374 2.25 12.625-2.857 16.508l-2.239 1.702c9.707 3.107 18.471 8.969 24.979 16.924l4.704 5.75a43.707 43.707 0 0 0 10.229 9.083v9.79c-6.455-3.284-12.214-7.87-16.811-13.488" style="fill:#000;fill-opacity:1;fill-rule:nonzero;stroke:none" transform="matrix(.19877 0 0 -.19877 30.787 27.167)"/></g><g style="fill:#000"><path d="m0 0 10.063 2.795v8.826l-12.34-3.428a9.955 9.955 0 0 1-6.126-4.944 9.95 9.95 0 0 1-.753-7.306l-19.291-5.904a166.024 166.024 0 0 0-38.716-6.97l-13.887-.823c-7.639-.452-14.28-5.672-16.525-12.989l-10.676-34.805h8.896l9.911 32.311a9.963 9.963 0 0 0 8.897 6.995l13.888.823a174.444 174.444 0 0 1 40.7 7.327l19.549 5.983 16.473-47.774v26.086L-.96-1.827a1.4 1.4 0 0 0 .085 1.12c.106.203.361.564.875.707" style="fill:#000;fill-opacity:1;fill-rule:nonzero;stroke:none" transform="matrix(.19877 0 0 -.19877 55.327 9.561)"/></g></svg>