<?xml version="1.0" encoding="UTF-8"?>
<svg id="Layer_1" data-name="Layer 1" xmlns="http://www.w3.org/2000/svg" viewBox="0 0 226.77 352.15">
  <defs>
    <style>
      .icecrossedbw-1 {
        fill: #fff;
      }

      .icecrossedbw-2 {
        fill: none;
      }
    </style>
  </defs>
  <path class="icecrossedbw-1" d="M185.47,0H41.3C18.49,0,0,18.49,0,41.3v86.23c0,37.93,10.47,75.13,30.25,107.5l65.55,107.26c8.04,13.15,27.14,13.15,35.18,0l65.55-107.26c19.78-32.37,30.25-69.56,30.25-107.5V41.3c0-22.81-18.49-41.3-41.3-41.3Z"/>
  <g>
    <path d="M186.02,154.69c2.16-.1,3.86-2.04,3.86-4.39v-5.24l-19.08.99c-2.43.13-4.85.19-7.27.19-13.93,0-27.73-2.03-41.34-5.51-11.66-2.99-30.21-12.84-58.09-13.98l-.05,23.91c0,2.13,1.59,3.86,3.54,3.86h3.73c.75,2.98,2.61,15.66-19.59,15.66-1.2,0-2.16,1.02-2.16,2.22v3.17c0,1.23,1,2.22,2.22,2.22h128.78s7.99.44,9.31-7.59c1.32-8.03-6.06-15.52-6.06-15.52h2.19ZM119.07,170.12c-1.71.02-3.07.05-4.13.11h-2.54c-28.07,0-26.08-12.73-25.23-15.72h4.79c1.96,0,3.55-1.73,3.55-3.86l-.34-7.74c15.23,2.22,25.3,5.61,35.03,8.08.06.02.13.03.19.05,2.3.58,4.63,1.09,6.96,1.52,1.13,4,3.28,17.36-18.27,17.55ZM180.3,161.18c1.7,4.34-1.5,9.02-6.16,9.03-4.04,0-9.13,0-14.86,0-6.02-.88-13.28-4.38-12.37-16.29,3.58.36,7.19.55,10.8.58l20.04.14,2.56,6.54Z"/>
    <path d="M64.29,121.9c21.15.86,37.03,6.54,48.62,10.67,4.06,1.45,7.56,2.7,10.47,3.45,13.69,3.51,27,5.31,39.56,5.36h.21c1.33,0,2.67-.02,4-.05.55,0,1.1-.03,1.65-.05.29,0,.58-.02.87-.03.56-.02,1.12-.05,1.69-.08l18.51-.96s0,0,0,0c.16-.5,6.12-19.15-6.29-24.77-7.39-3.34-21.64-6.64-34.39-12.07-14.01-5.97-24.22-19.35-27.06-35.43-1.39-7.87-2.41-17.65-1.98-28.57.16-4.17-2.97-7.58-6.8-7.44-10,.37-27.99,2.36-39.12,11.28-2.48,1.99-3.9,5.17-3.9,8.52v17.76c0,6.65-1.12,13.26-3.38,19.45-3.2,8.72-6.91,16.63-2.86,32.97h.2ZM146.35,107.57c3,0,5.44,2.44,5.44,5.44s-2.44,5.44-5.44,5.44-5.44-2.44-5.44-5.44,2.44-5.44,5.44-5.44ZM125.81,94.9c3,0,5.44,2.44,5.44,5.44s-2.44,5.44-5.44,5.44-5.44-2.44-5.44-5.44,2.44-5.44,5.44-5.44ZM118.96,82.61c0,3-2.44,5.44-5.44,5.44s-5.44-2.44-5.44-5.44,2.44-5.44,5.44-5.44,5.44,2.44,5.44,5.44ZM109.53,55.23c3,0,5.44,2.44,5.44,5.44s-2.44,5.44-5.44,5.44-5.44-2.44-5.44-5.44,2.44-5.44,5.44-5.44Z"/>
  </g>
  <path d="M210.19,8.21L14.62,203.78c1.5,3.76,3.11,7.48,4.83,11.16L218.23,16.16c-2.31-3-5.01-5.68-8.04-7.95Z"/>
  <g>
    <path class="icecrossedbw-2" d="M210.9,8.76L14.95,204.6c4.23,10.51,9.34,20.69,15.29,30.43l65.55,107.26c8.04,13.15,27.14,13.15,35.18,0l65.55-107.26c19.78-32.37,30.25-69.56,30.25-107.5V41.3c0-13.22-6.21-24.97-15.87-32.53Z"/>
    <path class="icecrossedbw-2" d="M185.47,0H41.3C18.49,0,0,18.49,0,41.3v86.23C0,152.58,4.57,177.3,13.36,200.53L207.58,6.42C201.19,2.36,193.61,0,185.47,0Z"/>
    <path class="icecrossedbw-1" d="M207.58,6.42L13.36,200.53c.52,1.36,1.05,2.71,1.59,4.06L210.9,8.76c-1.06-.83-2.17-1.62-3.32-2.34Z"/>
  </g>
</svg>