<svg xmlns="http://www.w3.org/2000/svg" id="Layer_1" version="1.1" viewBox="0 0 400 400"><defs id="defs992"><style id="style990">.cls-1,.cls-2{fill:#000;stroke-width:0}.cls-2{fill:#fff}</style></defs><circle id="circle994" cx="200" cy="200" r="200" class="cls-1" style="fill:#000"/><path id="path996" d="M395.79 178.9c-1.43-7.42-3.38-14.74-4.72-22.18-.86-4.8-1.67-9.73-2.22-14.69l-164.24 92.44c-.03-.08-.05-.16-.08-.24-3.78-11.52-7.97-24.14-12.29-37.02 2.9-.78 5.59-2.44 7.63-4.96 4.94-6.11 4.21-14.97-1.52-20.2l.04-.05c6.32 4.5 15.13 3.36 20.07-2.75 4.94-6.11 4.21-14.97-1.52-20.2l.04-.05c6.32 4.5 15.13 3.36 20.07-2.75 4.94-6.11 4.21-14.97-1.52-20.2l.02-.03c6.35 5.07 15.61 4.07 20.73-2.26 5.13-6.35 4.15-15.66-2.21-20.8-4.01 4.97-9.62 8.4-15.86 9.64.67-.58 1.3-1.21 1.88-1.92 5.13-6.35 4.15-15.67-2.21-20.8-4.01 4.97-9.62 8.4-15.86 9.64.67-.58 1.3-1.21 1.88-1.92 5.13-6.35 4.15-15.66-2.21-20.8-4.25 5.26-10.3 8.8-16.98 9.84-9.15 1.42-16.97 1.82-23.75 1.68-.05-3.1.1-6.29.51-9.91.98-8.69 4.76-15 7.62-18.83-8.87 0-16.86 5.53-22.46 14.35.11-1.92.33-3.92.68-6.08 1.43-8.69 6.99-15 11.19-18.83-19.44 0-36 12.3-42.33 29.55-4.26 5.03-8.44 12.44-22.82 26.73-7.76 1.3-14.75 6.05-19.07 15.74-8.95 18.26 10.43 28.65 10.44 40.93 0 .94 1.19 1.33 1.73.57l.16-.22V286.5c-26.27 4.71-56.5 12.15-90.23 23.25.49.44.96.89 1.42 1.34 1.08 1.08 2.12 2.26 3.12 3.53 2.63 2.65 5.01 5.6 7.17 8.79.43.64.88 1.27 1.33 1.9 5.64 6.68 11.83 12.87 18.51 18.51.63.44 1.26.89 1.9 1.33 6.8 4.61 12.08 9.96 15.9 16.53 4.18 2.81 8.51 5.34 13.1 7.48 2.37.99 4.74 2 7.1 3 1.64.49 3.29.99 4.93 1.47.05.01.09.03.14.04 11.69 3.42 23.24 10.09 34.56 14.62 7.89 3.16 15.66 3.49 23.84 5.61 42.09 7.64 61.09-3.36 90.81-7.01 1.4-.17 2.8.07 4.17.2 1.71-.72 3.44-1.32 5.18-1.74 5.83-1.42 11.52-3.22 17.12-5.33 14.98-6.97 28.79-15.86 42.08-25.67 6.35-5.24 12.26-10.93 17.61-17.19 6.94-10.1 12.25-21.06 18.4-31.68 6.6-11.39 13.56-22.57 19.18-34.47 5.12-13.63 8.72-28.19 11.08-42.59.86-8.75 1.12-17.56 1.19-26.35.06-7.65.15-15.46-.43-23.14Z" class="cls-2" style="fill:#fff"/><path id="path998" d="M156.98 146.61c-11.64 0-21.22-9.47-21.35-21.12-.06-5.71 2.1-11.09 6.08-15.17 3.99-4.08 9.33-6.36 15.03-6.43h.25c11.64 0 21.22 9.47 21.35 21.11.13 11.78-9.34 21.46-21.11 21.6h-.25Z" class="cls-2"/><path id="path1000" d="M156.99 105.4c10.82 0 19.73 8.81 19.85 19.63.06 5.3-1.95 10.31-5.66 14.11a19.734 19.734 0 0 1-13.97 5.97h-.23c-10.82 0-19.73-8.81-19.85-19.63-.06-5.3 1.95-10.31 5.66-14.11 3.71-3.79 8.67-5.91 13.97-5.97h.23m0-3h-.26c-12.62.14-22.74 10.49-22.6 23.11.14 12.53 10.35 22.6 22.85 22.6h.26c12.62-.14 22.74-10.49 22.6-23.11-.14-12.53-10.35-22.6-22.85-22.6Z" class="cls-2"/><path id="path1002" d="M156.98 138.65c-7.3 0-13.31-5.94-13.39-13.25-.04-3.58 1.32-6.96 3.82-9.52a13.3 13.3 0 0 1 9.43-4.03h.15c7.3 0 13.31 5.94 13.39 13.25.08 7.39-5.86 13.46-13.25 13.55h-.15Z" class="cls-1" style="fill:#000"/><path id="path1004" d="M156.99 112.36c7.03 0 12.81 5.72 12.89 12.75.08 7.11-5.64 12.96-12.75 13.04h-.15c-7.03 0-12.81-5.72-12.89-12.75-.08-7.11 5.64-12.96 12.75-13.04h.15m0-1h-.16c-7.68.09-13.83 6.38-13.74 14.05.09 7.62 6.29 13.74 13.89 13.74h.16c7.68-.09 13.83-6.38 13.74-14.05-.09-7.62-6.29-13.74-13.89-13.74Z" class="cls-2"/><path id="path1006" d="M200 13c49.95 0 96.91 19.45 132.23 54.77C367.55 103.09 387 150.05 387 200s-19.45 96.91-54.77 132.23C296.91 367.55 249.95 387 200 387s-96.91-19.45-132.23-54.77C32.45 296.91 13 249.95 13 200s19.45-96.91 54.77-132.23C103.09 32.45 150.05 13 200 13m0-13C89.54 0 0 89.54 0 200s89.54 200 200 200 200-89.54 200-200S310.46 0 200 0Z" class="cls-1"/></svg>