<?xml version="1.0" encoding="UTF-8"?><svg id="Layer_1" xmlns="http://www.w3.org/2000/svg" viewBox="0 0 400 400"><defs><style>.cls-1{fill:#000;}.cls-1,.cls-2{stroke-width:0px;}.cls-3{fill:none;stroke-linejoin:round;}.cls-3,.cls-4,.cls-5{stroke:#000;}.cls-3,.cls-5{stroke-width:3.91px;}.cls-4{stroke-width:2.93px;}.cls-4,.cls-5{stroke-miterlimit:10;}.cls-4,.cls-5,.cls-2{fill:#fff;}</style></defs><circle class="cls-1" cx="200" cy="200" r="200"/><path class="cls-4" d="M181.77,391.9c2.43.03,5.05.31,7.72.85,3.5.36,7.02.67,10.54.96,1.68-.21,3.36-.34,5.03-.34,1.76,0,3.52-.02,5.28-.09.7-.12,1.41-.22,2.11-.31-.27-.37-.55-.74-.82-1.12,4.12-2.75,8.04-5.88,11.5-9.47,19.42-20.17,19.05-49.64,18.75-74.11-.34-27.15-.49-55.02-21.15-72.48-22.1-18.67-44.34,12.09-65.07,20.69-22.39,9.29-47.45,25.95-67.2,29.74-23.81,4.57-42.33,3.28-58.55,1.2,1.31,1.61,2.48,3.3,3.48,5.06,2.77,4.83,4.62,10.06,7.28,14.92,2.02,2.03,4.12,3.98,6.09,6.07,5.49,5.81,10.41,12.31,14.77,19,.55.84,1.05,1.7,1.51,2.57,1.21.93,2.41,1.86,3.62,2.8,4.78,4.79,9.2,9.7,13.4,14.87,5.95,3.08,12.11,5.78,17.6,9.67,7.69,5.46,15.58,10.3,24.05,14.32,18.69,7.14,38.77,11.99,58.54,15.01.51.06,1.02.12,1.54.18Z"/><path class="cls-5" d="M254.49,334.58c2.3-17.38,12.72-21.02,9.95-30.36-2.66-8.94-14.63-13.79-21.24-16.47-5.07-2.06-9.62-3-12.92-3.46l-88.02-64.28c-4.08-2.98-9.21-4.25-14.16-3.29-2.45.48-4.76,1.45-6.58,3.22-6.05,5.9-1.28,15.42-5.76,25.65-1.72,3.93-5.06,8.53-11.98,12.66-6.41,3.83-9.87,11.15-8.81,18.53.12.85.26,1.72.41,2.6-14.73,2.66-30.17,5.05-46.3,7.04-6.22.77-12.35,1.44-18.39,2.05.98,1.3,1.89,2.64,2.69,4.02,2.77,4.83,4.62,10.06,7.28,14.92,2.02,2.03,4.12,3.98,6.09,6.07,5.49,5.81,10.41,12.31,14.77,19,.54.83,1.03,1.69,1.48,2.56,1.21.94,2.43,1.88,3.64,2.81.66.66,1.31,1.33,1.96,2,3.89-2.57,7.72-5.23,11.46-7.83,6.57-4.57,15.61-10.82,26.91-18.52.33.6.65,1.21.99,1.81,22.07,38.83,76.62,61.04,118.19,55.46,7.29-.98,22.78-3.26,27.81-13.66,3.28-6.78-1.08-10.39.52-22.51Z"/><path class="cls-4" d="M195.56,57.62c-.23-24.33-21.43-38.03-36.15-23.31-1.66,1.66-3.33,3.45-4.99,5.33-.05.06-.1.11-.15.16-.21.23-.41.48-.61.71-.3.35-.6.69-.9,1.05-.39.46-.77.92-1.16,1.39-.26.32-.53.64-.79.96-.63.78-1.26,1.58-1.88,2.4-.16.21-.31.42-.47.63-.48.64-.97,1.29-1.45,1.96-.24.34-.48.68-.72,1.02-.4.56-.79,1.12-1.18,1.69-.26.37-.51.75-.76,1.13-.38.57-.76,1.14-1.13,1.72-.25.39-.5.77-.74,1.16-.39.62-.77,1.24-1.16,1.88-.22.37-.45.73-.67,1.11-.46.77-.91,1.56-1.36,2.35-.14.25-.28.49-.42.74-.58,1.05-1.16,2.12-1.73,3.2-.15.29-.3.59-.45.89-.41.81-.83,1.63-1.23,2.46-.2.41-.4.83-.6,1.25-.35.74-.7,1.49-1.04,2.24-.2.45-.41.91-.61,1.37-.33.76-.66,1.52-.99,2.3-.19.46-.39.92-.58,1.39-.34.84-.68,1.7-1.01,2.56-.16.41-.32.81-.47,1.22-.48,1.28-.95,2.58-1.41,3.9-.15.43-.29.86-.44,1.28-14.7,43.87,5.4,94.37,41.15,103.71l2.59.68h0c8.29,2.17,16.58,4.33,24.87,6.5l-1.34-139.05Z"/><path class="cls-4" d="M282.09,85.79c-.14-.43-.29-.85-.44-1.28-.46-1.33-.93-2.63-1.41-3.91-.15-.41-.31-.81-.47-1.21-.33-.87-.67-1.73-1.02-2.57-.19-.46-.38-.92-.57-1.38-.33-.78-.66-1.55-.99-2.31-.2-.46-.4-.91-.61-1.36-.34-.76-.69-1.51-1.05-2.25-.2-.41-.39-.83-.59-1.24-.41-.84-.82-1.66-1.24-2.47-.15-.29-.29-.59-.44-.88-.57-1.09-1.14-2.16-1.73-3.21-.14-.25-.28-.48-.42-.73-.45-.8-.91-1.59-1.37-2.37-.22-.37-.44-.73-.67-1.1-.38-.63-.77-1.26-1.16-1.88-.25-.39-.49-.78-.74-1.16-.38-.58-.75-1.16-1.13-1.73-.25-.38-.5-.76-.76-1.13-.39-.58-.79-1.14-1.19-1.7-.24-.34-.48-.68-.72-1.01-.48-.67-.97-1.32-1.46-1.97-.15-.2-.31-.42-.46-.62-.63-.82-1.25-1.62-1.89-2.4-.26-.32-.52-.64-.78-.95-.39-.47-.78-.94-1.16-1.4-.3-.35-.6-.7-.9-1.04-.21-.24-.41-.48-.62-.72-.05-.06-.1-.11-.16-.16-1.66-1.88-3.33-3.66-4.99-5.33-14.72-14.72-35.91-1.02-36.15,23.31l-1.34,139.05c8.29-2.17,16.58-4.33,24.87-6.5h0s2.59-.68,2.59-.68c35.74-9.34,55.85-59.83,41.15-103.71Z"/><path class="cls-5" d="M263.6,210.22l-.37-.75c-2.24-4.5-3.63-9.35-4.38-14.32-3.53-23.42-25.73-41.48-50.02-41.48h-7.72c-24.3,0-46.49,18.06-50.02,41.48-.76,5.02-2.11,9.92-4.29,14.51l-.56,1.19c-1.17,2.47-2.61,4.8-4.17,7.05-18.98,27.34-5.57,65.97,21.83,86.95h0c24.39,18.67,58.27,18.67,82.66,0h0c27.6-21.13,40.88-60.17,21.39-87.55-1.61-2.26-3.1-4.6-4.34-7.08Z"/><circle class="cls-1" cx="155.65" cy="227.82" r="5.41"/><circle class="cls-1" cx="188.29" cy="256.49" r="5.41"/><path class="cls-2" d="M172.47,261.42c-11.16,0-20.24-9.08-20.24-20.24s9.08-20.24,20.24-20.24,20.24,9.08,20.24,20.24-9.08,20.24-20.24,20.24Z"/><path class="cls-1" d="M172.47,222.42c10.37,0,18.77,8.4,18.77,18.77s-8.4,18.77-18.77,18.77-18.77-8.4-18.77-18.77,8.4-18.77,18.77-18.77M172.47,219.49c-11.97,0-21.7,9.74-21.7,21.7s9.74,21.7,21.7,21.7,21.7-9.74,21.7-21.7-9.74-21.7-21.7-21.7h0Z"/><circle class="cls-1" cx="172.47" cy="241.19" r="11.41"/><circle class="cls-1" cx="254.73" cy="226.85" r="5.41"/><circle class="cls-1" cx="222.09" cy="255.52" r="5.41"/><path class="cls-2" d="M237.91,260.46c-11.16,0-20.24-9.08-20.24-20.24s9.08-20.24,20.24-20.24,20.24,9.08,20.24,20.24-9.08,20.24-20.24,20.24Z"/><path class="cls-1" d="M237.91,221.45c10.37,0,18.77,8.4,18.77,18.77s-8.4,18.77-18.77,18.77-18.77-8.4-18.77-18.77,8.4-18.77,18.77-18.77M237.91,218.52c-11.97,0-21.7,9.74-21.7,21.7s9.74,21.7,21.7,21.7,21.7-9.74,21.7-21.7-9.74-21.7-21.7-21.7h0Z"/><circle class="cls-1" cx="237.91" cy="240.22" r="11.41"/><path class="cls-3" d="M220.59,287.73l-5.31,5.78c-4.89,5.33-13.29,5.33-18.18,0l-5.31-5.78"/><line class="cls-3" x1="206.2" y1="297.5" x2="206.2" y2="318.85"/><path class="cls-2" d="M200,17c48.88,0,94.84,19.04,129.4,53.6,34.56,34.56,53.6,80.52,53.6,129.4s-19.04,94.84-53.6,129.4c-34.56,34.56-80.52,53.6-129.4,53.6s-94.84-19.04-129.4-53.6c-34.56-34.56-53.6-80.52-53.6-129.4s19.04-94.84,53.6-129.4c34.56-34.56,80.52-53.6,129.4-53.6M200,0C89.54,0,0,89.54,0,200s89.54,200,200,200,200-89.54,200-200S310.46,0,200,0h0Z"/></svg>