<svg xmlns="http://www.w3.org/2000/svg" id="svg868" version="1.1" viewBox="0 0 226.77 352.16"><defs id="defs850"><style id="style848">.cls-2{fill:#fefefe}</style></defs><g id="Layer_2" data-name="Layer 2"><g id="Layer_1-2" data-name="Layer 1"><path id="path852" d="M185.47 0H41.3A41.3 41.3 0 0 0 0 41.3v86.24A206.12 206.12 0 0 0 30.25 235l65.54 107.3a20.63 20.63 0 0 0 35.19 0L196.53 235a206.11 206.11 0 0 0 30.24-107.49V41.3A41.3 41.3 0 0 0 185.47 0Z" style="fill:#fff;stroke-width:1;stroke-miterlimit:4;stroke-dasharray:none;stroke:#000;stroke-opacity:1"/><path id="rect854" d="M56.69 90.71h8.5v11.34h-8.5z" class="cls-2" style="fill:#000"/><path id="path856" d="M45.35 180a1.43 1.43 0 0 0 1.42 1.42h5.67a1.43 1.43 0 0 0 1.42-1.42v-38.27h-8.51Z" class="cls-2" style="fill:#000"/><path id="path858" d="M172.91 180a1.43 1.43 0 0 0 1.42 1.42H180a1.43 1.43 0 0 0 1.42-1.42v-38.27h-8.51Z" class="cls-2" style="fill:#000"/><path id="rect860" d="M161.57 90.71h8.5v11.34h-8.5z" class="cls-2" style="fill:#000"/><path id="path862" d="M46.77 85H180a1.42 1.42 0 0 0 1.42-1.42V51a2.84 2.84 0 0 0-2.84-2.83H48.19A2.84 2.84 0 0 0 45.35 51v32.6a1.42 1.42 0 0 0 1.42 1.4Z" class="cls-2" style="fill:#000"/><path id="path864" d="m191.8 123.3-9.54-14.3a2.83 2.83 0 0 0-2.36-1.26h-133a2.83 2.83 0 0 0-2.39 1.26L35 123.3a5.65 5.65 0 0 0-.95 3.14v8.21a1.41 1.41 0 0 0 1.41 1.41h155.88a1.42 1.42 0 0 0 1.42-1.41v-8.21a5.66 5.66 0 0 0-.96-3.14Zm-10.38 5.7H45.35a2.84 2.84 0 0 1 0-5.67h136.07a2.84 2.84 0 0 1 0 5.67Z" class="cls-2" style="fill:#000"/></g></g></svg>