<svg version="1.1" x="0" y="0" viewBox="0 0 283.5 283.5" style="enable-background:new 0 0 283.5 283.5" xml:space="preserve" id="svg1261" xmlns="http://www.w3.org/2000/svg"><style type="text/css" id="style1241">.st0{fill:#e94e1b}.st1{fill:none;stroke:#fefefe;stroke-width:.25;stroke-miterlimit:10}.st2{fill:#fff}.st3{fill:#00a7e1}.st4{fill:#002c73}.st5{fill:#fefefe}.st6,.st7{fill:none;stroke:#002c73;stroke-width:4;stroke-miterlimit:10}.st7{stroke-width:8}.st8{fill:none;stroke-width:2}.st10,.st8,.st9{stroke:#fff;stroke-miterlimit:10}.st9{fill:none;stroke-width:2;stroke-dasharray:6,8}.st10{stroke-linejoin:round}.st10,.st11{fill:#0075c9}.st12{fill:none;stroke:#fff;stroke-linejoin:round;stroke-miterlimit:10}.st13,.st14,.st15,.st16{fill:none;stroke:#231f20;stroke-width:.25;stroke-miterlimit:10}.st14,.st15,.st16{stroke:#002c73;stroke-width:7}.st15,.st16{stroke:#fff;stroke-width:4}.st16{stroke-width:4.1077}.st17{stroke-width:14}.st17,.st18,.st20,.st21,.st22{fill:none;stroke:#fff;stroke-miterlimit:10}.st18{stroke-width:8.5;stroke-linecap:round}.st20,.st21,.st22{stroke-width:6.7936}.st21,.st22{fill:#fff;stroke-width:4.8526}.st22{fill:none;stroke-width:6.7936;stroke-linecap:round}</style><g id="g1473"><circle cx="141.7" cy="141.7" r="141.7" id="circle1244" style="fill:#fff;stroke:#000;stroke-opacity:1"/><g id="g1258"><path d="M73.3 135.5c-19.5 0-35.3 15.8-35.3 35.3 0 19.5 15.8 35.3 35.3 35.3 19.5 0 35.3-15.8 35.3-35.3 0-19.5-15.8-35.3-35.3-35.3m0 76.7c-22.9 0-41.3-18.5-41.3-41.3 0-22.8 18.5-41.3 41.3-41.3 22.9 0 41.3 18.5 41.3 41.3.1 22.6-18.4 41.3-41.3 41.3" id="path1246"/><path d="M138.7 173.8h-.4c-1 0-1.8-.6-2.4-1.6L92.4 94.4h-11c-1.6 0-3-1.4-3-3s1.4-3 3-3h27.9c1.6 0 3 1.4 3 3s-1.4 3-3 3h-9.8l39.7 71 52.1-60.4c1-1.2 3-1.4 4.2-.4 1.2 1 1.4 3 .4 4.2L141 172.6c-.7.8-1.5 1.2-2.3 1.2" id="path1248"/><path d="M210.1 172.8c-1.4 0-2.6-1-3-2.4-7.4-32.3-20.1-82.6-24.3-89.2-2.8-4.4-14.4-4.2-19.5-3.2-1.6.4-3.2-.8-3.6-2.4-.4-1.6.8-3.2 2.4-3.6 2-.4 19.9-3 25.7 6 6.2 9.6 23.1 82.8 25.1 91 .4 1.6-.6 3.2-2.2 3.6-.2.2-.4.2-.6.2" id="path1250"/><path d="M138.7 173.8H73.3c-1.6 0-3-1.4-3-3s1.4-3 3-3h65.4c1.6 0 3 1.4 3 3s-1.4 3-3 3" id="path1252"/><path d="M73.3 173.8c-.6 0-1-.2-1.4-.4-1.4-.8-2-2.6-1-4l32.3-56c.8-1.4 2.6-2 4-1 1.4.8 2 2.6 1 4l-32.3 56c-.5.8-1.6 1.4-2.6 1.4" id="path1254"/><path d="M210.1 135.5c-19.5 0-35.3 15.8-35.3 35.3 0 19.5 15.8 35.3 35.3 35.3 19.5 0 35.3-15.8 35.3-35.3 0-19.5-15.8-35.3-35.3-35.3m0 76.7c-22.9 0-41.3-18.5-41.3-41.3 0-22.8 18.5-41.3 41.3-41.3 22.9 0 41.3 18.5 41.3 41.3 0 22.6-18.4 41.3-41.3 41.3" id="path1256"/></g></g></svg>