<svg viewBox="0 0 226.77 352.15" version="1.1" id="svg2546" xmlns="http://www.w3.org/2000/svg"><defs id="defs2535"><style id="style2533">.cls-2{fill:#fff}</style></defs><g id="g3928"><path d="M185.47 0H41.3A41.31 41.31 0 0 0 0 41.3v86.23A206.18 206.18 0 0 0 30.25 235l65.54 107.29a20.63 20.63 0 0 0 35.19 0L196.53 235a206.17 206.17 0 0 0 30.24-107.5V41.3A41.31 41.31 0 0 0 185.47 0Z" id="path2537" style="fill:#fff;stroke:#000;stroke-opacity:1"/><path class="cls-2" d="M192.35 28.34a35.48 35.48 0 0 0-13.7-4.54 131.18 131.18 0 0 0-18-1.13h-27.83v90.71h22.67V86.81a118.89 118.89 0 0 0 20.74-1.62 43.7 43.7 0 0 0 15.3-5.43 24.57 24.57 0 0 0 9.4-10q3.16-6.24 3.16-15.47 0-10-3.08-16.28a22.84 22.84 0 0 0-8.66-9.67zm-17.26 39.77q-6.3 3.63-19.6 3.64V39.34h7.45a63.88 63.88 0 0 1 7.29.41 13.31 13.31 0 0 1 5.84 2A11.36 11.36 0 0 1 180 46.4a19.6 19.6 0 0 1 1.45 8.34q-.04 9.7-6.36 13.37z" id="path2539" style="fill:#000"/><path class="cls-2" d="m158.18 164.37-15.89 6.11-20.29-47H73.93l-.56-8.48h34.46v-14H72.44l-1.91-28.68a14.41 14.41 0 1 0-14.48-6.77l4.78 71.9h52l22 50.93 28.45-10.94z" id="path2541" style="fill:#000"/><path class="cls-2" d="M111.51 165.07a38 38 0 0 1-36.18 25 38.66 38.66 0 0 1-20.87-71.2l-1.07-15.27a32.41 32.41 0 0 0-3.33 1.64c-16.46 10-27.38 26.89-27.38 46.2a52.71 52.71 0 0 0 52.65 52.65c20 0 37.81-10.63 46.65-28.23l-8.65-19a48.13 48.13 0 0 1-1.82 8.21z" id="path2543" style="fill:#000"/></g></svg>