<svg xmlns="http://www.w3.org/2000/svg" id="Layer_1" version="1.1" viewBox="0 0 400 400"><defs id="defs1205"><style id="style1203">.cls-1,.cls-2{fill:#000}.cls-1,.cls-3{stroke-width:0}.cls-2{stroke-width:2.88px;stroke:#000;stroke-miterlimit:10}.cls-3{fill:#fff}</style></defs><circle id="circle1207" cx="200" cy="200" r="200" class="cls-1" style="fill:#000"/><path id="path1209" d="m222.94 357.55-49.59-83.3 31.02-32.43-58.65-67.05c-38.14 17.01-78.27 27.69-119.5 31.79l-17.56 1.75c6.47 26.06 11.94 52.42 21.03 77.68 4.08 4.18 7.52 9.57 8.58 14.44 1.91 2.1 3.54 4.35 4.75 6.7 2.12 4.14 4.56 8.06 7.22 11.85 3.12 3.74 6.36 7.36 9.63 10.96 2.58 2.29 5.22 4.52 7.83 6.8 4.2 3.67 7.74 8.01 11.53 12.07 7.75 4.49 16.01 8.16 23.66 12.85 9.92 6.09 20.08 11.72 30.44 17.01 2.51.04 4.93.34 7.24.88.91-.03 1.83-.05 2.75-.05l-27.04-45.56 7.25-7.58 60.36 48.83-4.32 12.66c2.41.49 4.03-.16 6.11.24 8.11-1.25 16.34 1.25 24.56 1.57 4.41.18 8.73-3.45 13.02-3.17l.41-.77a28.787 28.787 0 0 0-.71-28.17Z" class="cls-3" style="fill:#fff"/><path id="path1211" d="M214.19 235.01c-7.8 0-14.14-5.56-14.14-12.4s6.34-12.4 14.14-12.4 14.14 5.56 14.14 12.4-6.34 12.4-14.14 12.4Z" class="cls-1"/><path id="path1213" d="M214.19 211.65c7.02 0 12.7 4.91 12.7 10.96s-5.69 10.96-12.7 10.96-12.7-4.91-12.7-10.96 5.69-10.96 12.7-10.96m0-2.88c-8.59 0-15.58 6.21-15.58 13.84s6.99 13.84 15.58 13.84 15.58-6.21 15.58-13.84-6.99-13.84-15.58-13.84Z" class="cls-1"/><path id="path1215" d="M151.56 167.44c-4.56 0-8.27-3.71-8.27-8.27s3.71-8.27 8.27-8.27 8.27 3.71 8.27 8.27-3.71 8.27-8.27 8.27Z" class="cls-1"/><path id="path1217" d="M151.56 152.33c3.77 0 6.83 3.06 6.83 6.83s-3.06 6.83-6.83 6.83-6.83-3.06-6.83-6.83 3.06-6.83 6.83-6.83m0-2.88c-5.36 0-9.71 4.36-9.71 9.71s4.36 9.71 9.71 9.71 9.71-4.36 9.71-9.71-4.36-9.71-9.71-9.71Z" class="cls-1"/><path id="path1219" d="M192.83 203.69c-4.56 0-8.27-3.71-8.27-8.27s3.71-8.27 8.27-8.27 8.27 3.71 8.27 8.27-3.71 8.27-8.27 8.27Z" class="cls-1"/><path id="path1221" d="M192.83 188.58c3.77 0 6.83 3.06 6.83 6.83s-3.06 6.83-6.83 6.83-6.83-3.06-6.83-6.83 3.06-6.83 6.83-6.83m0-2.88c-5.36 0-9.71 4.36-9.71 9.71s4.36 9.71 9.71 9.71 9.71-4.36 9.71-9.71-4.36-9.71-9.71-9.71Z" class="cls-1"/><path id="path1223" d="M172.82 201.24c-13.88 0-25.17-11.29-25.17-25.17s11.29-25.17 25.17-25.17 25.17 11.29 25.17 25.17-11.29 25.17-25.17 25.17Z" class="cls-3"/><path id="path1225" d="M172.82 152.33c13.11 0 23.73 10.63 23.73 23.73s-10.63 23.73-23.73 23.73-23.73-10.63-23.73-23.73 10.63-23.73 23.73-23.73m0-2.88c-14.67 0-26.61 11.94-26.61 26.61s11.94 26.61 26.61 26.61 26.61-11.94 26.61-26.61-11.94-26.61-26.61-26.61Z" class="cls-1"/><circle id="circle1227" cx="172.82" cy="176.07" r="14.43" class="cls-2"/><circle id="circle1229" cx="276.82" cy="157.94" r="8.27" class="cls-1"/><path id="path1231" d="M276.82 151.11c3.77 0 6.83 3.06 6.83 6.83s-3.06 6.83-6.83 6.83-6.83-3.06-6.83-6.83 3.06-6.83 6.83-6.83m0-2.88c-5.36 0-9.71 4.36-9.71 9.71s4.36 9.71 9.71 9.71 9.71-4.36 9.71-9.71-4.36-9.71-9.71-9.71Z" class="cls-1"/><path id="path1233" d="M235.56 202.46c-4.56 0-8.27-3.71-8.27-8.27s3.71-8.27 8.27-8.27 8.27 3.71 8.27 8.27-3.71 8.27-8.27 8.27Z" class="cls-1"/><path id="path1235" d="M235.56 187.36c3.77 0 6.83 3.06 6.83 6.83s-3.06 6.83-6.83 6.83-6.83-3.06-6.83-6.83 3.06-6.83 6.83-6.83m0-2.88c-5.36 0-9.71 4.36-9.71 9.71s4.36 9.71 9.71 9.71 9.71-4.36 9.71-9.71-4.36-9.71-9.71-9.71Z" class="cls-1"/><path id="path1237" d="M255.56 200.01c-13.88 0-25.17-11.29-25.17-25.17s11.29-25.17 25.17-25.17 25.17 11.29 25.17 25.17-11.29 25.17-25.17 25.17Z" class="cls-3"/><path id="path1239" d="M255.56 151.11c13.11 0 23.73 10.63 23.73 23.73s-10.63 23.73-23.73 23.73-23.73-10.63-23.73-23.73 10.63-23.73 23.73-23.73m0-2.88c-14.67 0-26.61 11.94-26.61 26.61s11.94 26.61 26.61 26.61 26.61-11.94 26.61-26.61-11.94-26.61-26.61-26.61Z" class="cls-1"/><circle id="circle1241" cx="255.56" cy="174.84" r="14.43" class="cls-2"/><path id="path1243" d="M311.42 99.96c-.18-.4-.36-.8-.55-1.2-8.39-18.04-20.14-31.66-32.22-41.85l-.07-.06c-.03-.03-.07-.05-.11-.08-.8-.66-4.07-3.33-6.4-5.06-18.61-13.8-45.41-.96-45.7 21.85l-.1 7.82a85.694 85.694 0 0 0-24.15 0l-.1-7.81c-.3-22.81-27.09-35.65-45.7-21.85-2.33 1.73-5.6 4.41-6.4 5.06l-.11.08c-.06.05-.08.06-.07.06-12.08 10.19-23.83 23.8-32.22 41.85-.19.4-.37.8-.55 1.2-9.98 22.08-7.27 45.94 4.36 64.66-2.57 17.04.84 33.51 12.97 45.64 5.63 5.63 17.71 15.5 32.41 23.49 12.96 7.07 27.97 12.7 42.4 12.7h9.77c30.72 0 65.79-26.42 74.73-35.36 12.33-12.33 15.85-29.03 13.33-46.29 11.74-18.75 14.5-42.7 4.48-64.85Z" style="fill:#fff;stroke-width:3.84px;stroke:#000;stroke-miterlimit:10"/><circle id="circle1245" cx="172.67" cy="175.98" r="23.73" class="cls-3"/><circle id="circle1247" cx="172.67" cy="175.98" r="14.43" class="cls-1" style="fill:#000"/><circle id="circle1249" cx="255.41" cy="174.76" r="23.73" class="cls-3"/><circle id="circle1251" cx="255.41" cy="174.76" r="14.43" class="cls-1" style="fill:#000"/><path id="path1253" d="M215.95 234.93c-7.8 0-14.14-5.56-14.14-12.4s6.34-12.4 14.14-12.4 14.14 5.56 14.14 12.4-6.34 12.4-14.14 12.4Z" class="cls-1" style="fill:#000"/><path id="path1255" d="M215.95 211.56c7.02 0 12.7 4.91 12.7 10.96s-5.69 10.96-12.7 10.96-12.7-4.91-12.7-10.96 5.69-10.96 12.7-10.96m0-2.88c-8.59 0-15.58 6.21-15.58 13.84s6.99 13.84 15.58 13.84 15.58-6.21 15.58-13.84-6.99-13.84-15.58-13.84Z" class="cls-1"/><path id="path1257" d="M200 13c49.95 0 96.91 19.45 132.23 54.77C367.55 103.09 387 150.05 387 200s-19.45 96.91-54.77 132.23C296.91 367.55 249.95 387 200 387s-96.91-19.45-132.23-54.77C32.45 296.91 13 249.95 13 200s19.45-96.91 54.77-132.23C103.09 32.45 150.05 13 200 13m0-13C89.54 0 0 89.54 0 200s89.54 200 200 200 200-89.54 200-200S310.46 0 200 0Z" class="cls-1"/></svg>