<svg xmlns="http://www.w3.org/2000/svg" viewBox="0 0 226.77 352.15"><g data-name="Layer 1"><path d="M185.47 0H41.3A41.31 41.31 0 0 0 0 41.3v86.23A206.18 206.18 0 0 0 30.25 235l65.54 107.29a20.63 20.63 0 0 0 35.19 0L196.53 235a206.17 206.17 0 0 0 30.24-107.5V41.3A41.31 41.31 0 0 0 185.47 0Z" style="fill:#fff;stroke:#000;stroke-opacity:1"/><path d="M168.42 132.12a35.69 35.69 0 0 0-8.06.93l-3.81-11.39-2.5-7.16a2.12 2.12 0 0 1 .14-1.69l1.1-2a8.4 8.4 0 0 0 0-8.27 8 8 0 0 0-7-4h-5.84L124 89.28a2.73 2.73 0 0 1-1.32-1.44l-8.51-21.28L112 51.77a1.37 1.37 0 0 1 .91-1.49c5.53-1.89 9-8.06 9-14.38 0-7.59-4.93-12.51-12.54-12.51S96.76 28.31 96.76 35.9a16.54 16.54 0 0 0 4.64 11.7 1.35 1.35 0 0 1 .23 1.56l-.45.9a13.78 13.78 0 0 1-2 3l-3 3.35A13.79 13.79 0 0 0 94 59.66L75.8 98.18c-2.07 4.39-1.84 9.6 1 13.21a40.16 40.16 0 0 0 4.47 3.8l6.58 4.91-3.85 5.57-8.53-5.35a2.72 2.72 0 0 0-1.47-.42H41.41a3.4 3.4 0 0 0-3.4 3.4 3.4 3.4 0 0 0 3.4 3.4H72a2.77 2.77 0 0 1 1.45.41l6.55 4.12-4 5.61a35.72 35.72 0 1 0 15.59 43.92l16.16 3.5a11.62 11.62 0 0 0 2.41.26 11.29 11.29 0 0 0 7.09-2.51l.37-.34 7.27.87.19-1.57a2.76 2.76 0 0 0-2-3s-1.47-.36-2.39-.61a11.16 11.16 0 0 0-1.43-10.92l31.92-39.34 2.71 8.1a35.69 35.69 0 1 0 14.5-3.09Zm-81.76 29.75H66.73l11-15.53a28.89 28.89 0 0 1 8.93 15.53Zm21.45-5.28-3.65-10.3 5.26-2.51Zm19-21.13 13.91-6.63-18.7 23Zm-22.47-34.84 2-11.86a2.76 2.76 0 0 1 2.16 1l5.72 7.24a8.27 8.27 0 0 0 4.21 2.84l21.16 6.16a2.74 2.74 0 0 0 2.66-.67h5.76a1.27 1.27 0 0 1 1.13.64 1.31 1.31 0 0 1 0 1.3l-1.26 2.32a9 9 0 0 0-.57 7.16l.43 1.22-21.65 10.33a8.5 8.5 0 0 0-.67-.94l-20.43-24.52a2.79 2.79 0 0 1-.6-2.22Zm4.6 34.66a2.66 2.66 0 0 1 .75.82l-7.87 3.75-4.4-12.55Zm-18.58-7.41 12.07 34h-9.16a35.72 35.72 0 0 0-11.95-21.1Zm-32.3 68.91a28.93 28.93 0 1 1 13.78-54.36l-13.73 19.46a5.8 5.8 0 0 0-1.09 11.46l27.6 6a29 29 0 0 1-26.56 17.44Zm109 0a28.93 28.93 0 0 1-11.25-55.08l7.7 23a5.62 5.62 0 0 0-.83 4.47 5.61 5.61 0 1 0 7.28-6.59l-7.71-23a29.36 29.36 0 0 1 10.52-.24 28.94 28.94 0 0 1-5.71 57.48Z" style="fill:#000"/></g></svg>