<svg viewBox="0 0 226.77 352.16" xmlns="http://www.w3.org/2000/svg"><g data-name="Layer 1"><path d="M185.47 0H41.3A41.3 41.3 0 0 0 0 41.3v86.24A206.12 206.12 0 0 0 30.25 235l65.54 107.3a20.63 20.63 0 0 0 35.19 0L196.53 235a206.11 206.11 0 0 0 30.24-107.49V41.3A41.3 41.3 0 0 0 185.47 0Z" style="fill:#fff;stroke:#000;stroke-opacity:1"/><path d="M181.42 45.35h-11.34V34a5.67 5.67 0 0 0-5.67-5.67h-34a5.65 5.65 0 0 0-5.48 4.25H90.12a32.56 32.56 0 0 0-31.61 24.65L31 166.36a30.32 30.32 0 1 0 59.72 7.41v-68.89h1.42a1.41 1.41 0 0 0 1.41-1.42V90.71h8.51v112a1.41 1.41 0 0 0 1.41 1.41h87.88a1.41 1.41 0 0 0 1.41-1.41v-146a11.34 11.34 0 0 0-11.34-11.36Zm-79.37 11.34V68l-16.24 4.09a8.51 8.51 0 0 0-6.44 8.25v23.12a1.41 1.41 0 0 0 1.42 1.42h1.42v68.89a21.82 21.82 0 1 1-43-5.33L66.75 59.31A24.08 24.08 0 0 1 90.12 41.1h34.6v4.25h-11.33a11.34 11.34 0 0 0-11.34 11.34zm57.53 112.53a2.83 2.83 0 0 1-2 .86H154c15.69-16.62-6.28-27.8-.69-39-22.21 11.11-22.66 27.65-12 39h-4a2.86 2.86 0 0 1-2-.85c-21.83-22.4-21.27-44.79 23.52-67.18-11.33 22.48 33.17 33.82.75 67.17zm21.84-81.35a2.84 2.84 0 0 1-2.84 2.84h-62.36a2.83 2.83 0 0 1-2.83-2.84V59.53a2.83 2.83 0 0 1 2.83-2.84h62.36a2.84 2.84 0 0 1 2.84 2.84z" style="fill:#000"/></g></svg>