<svg version="1.1" x="0" y="0" viewBox="0 0 226.8 352.1" style="enable-background:new 0 0 226.8 352.1" xml:space="preserve" id="svg853" xmlns="http://www.w3.org/2000/svg"><style type="text/css" id="style841">.st2{fill:#fff}</style><g id="g979"><path d="M185.5 0H41.3C18.5 0 0 18.5 0 41.3v86.2c0 37.9 10.5 75.1 30.2 107.5l65.5 107.3c8 13.2 27.1 13.2 35.2 0L196.5 235c19.8-32.4 30.2-69.6 30.2-107.5V41.3C226.8 18.5 208.3 0 185.5 0Z" id="path844" style="fill:#fff;stroke:#000;stroke-opacity:1"/><g id="g850" style="fill:#000"><circle class="st2" cx="175.9" cy="170.5" r="16.8" id="circle846" style="fill:#000"/><path class="st2" d="M200.6 146.6c-6.6-6.2-15.3-9.7-24.7-9.7-17.1 0-31.4 11.7-34.3 27.1H94c-1.4 0-2.7-.7-3.4-1.9l-27.1-42.9 8.4-68h22.4c3.4 0 6.2-2.6 6.2-5.9 0-3.3-2.8-5.9-6.2-5.9H67.2c-3.5 0-6.5 2.6-6.9 6.1L46.7 154.2c-7.9 2-13.5 9.6-12.5 18.3.9 7.7 7.1 13.9 14.8 14.7 10.2 1.1 18.8-6.8 18.8-16.7 0-6.4-3.5-11.9-8.7-14.8l2.1-17.3 20.9 33.2c1.6 2.6 4.5 4.2 7.6 4.2h58.8c2.8 0 5-2.2 5-5v-.9c0-11.7 10.1-21.2 22.4-21.2 6 0 11.6 2.2 15.9 6.2 2.4 2.3 6.4 2.3 8.8 0 2.4-2.3 2.4-6 0-8.3z" id="path848" style="fill:#000"/></g></g></svg>