<svg viewBox="0 0 226.77 352.15" version="1.1" id="svg3024" xmlns="http://www.w3.org/2000/svg"><defs id="defs3015"><style id="style3013">.cls-2{fill:#fff}</style></defs><g id="g3825"><path d="M185.47 0H41.3A41.31 41.31 0 0 0 0 41.3v86.23A206.18 206.18 0 0 0 30.25 235l65.54 107.29a20.63 20.63 0 0 0 35.19 0L196.53 235a206.17 206.17 0 0 0 30.24-107.5V41.3A41.31 41.31 0 0 0 185.47 0Z" id="path3017" style="fill:#fff;stroke:#000;stroke-opacity:1"/><path class="cls-2" d="M82.21 28.34a35.48 35.48 0 0 0-13.7-4.54 131.18 131.18 0 0 0-18-1.13H22.68v90.71h22.67V86.81a118.89 118.89 0 0 0 20.74-1.62 43.7 43.7 0 0 0 15.3-5.43 24.57 24.57 0 0 0 9.4-10Q94 63.48 94 54.25q0-10-3.08-16.28a22.84 22.84 0 0 0-8.71-9.63ZM65 68.11q-6.3 3.63-19.6 3.64V39.34h7.4a63.88 63.88 0 0 1 7.29.41 13.31 13.31 0 0 1 5.84 2 11.36 11.36 0 0 1 3.89 4.62 19.6 19.6 0 0 1 1.45 8.34q0 9.73-6.27 13.4z" id="path3019" style="fill:#000"/><path class="cls-2" d="M215.65 182h-47.58a4 4 0 0 1-3.38-1.87l-27.05-42.94 8.42-68h22.41a5.89 5.89 0 1 0 0-11.77h-27.29a7 7 0 0 0-6.94 6.14l-13.47 108.59a16.82 16.82 0 1 0 12.34 1.52l2.14-17.32 20.9 33.17a9 9 0 0 0 7.61 4.2h52.09c.06-.15.11-.31.16-.47.52-1.53 1-3.07 1.49-4.61l.39-1.28q.75-2.46 1.44-5l.12-.46z" id="path3021" style="fill:#000"/></g></svg>