<svg viewBox="0 0 226.77 352.15" version="1.1" id="svg3555" xmlns="http://www.w3.org/2000/svg"><defs id="defs3546"><style id="style3544">.cls-2{fill:#fff}</style></defs><g id="g3811"><g id="g3805"><path d="M185.47 0H41.3A41.31 41.31 0 0 0 0 41.3v86.23A206.18 206.18 0 0 0 30.25 235l65.54 107.29a20.63 20.63 0 0 0 35.19 0L196.53 235a206.17 206.17 0 0 0 30.24-107.5V41.3A41.31 41.31 0 0 0 185.47 0Z" id="path3548" style="fill:#fff;fill-opacity:1;stroke:#000;stroke-opacity:1"/></g><path class="cls-2" d="M143.33 85.92a5.7 5.7 0 0 1-2.33-2.55L132.35 65a14.1 14.1 0 0 0-3.45-4.61l-9.07-8a2.85 2.85 0 0 1-.93-1.71l-.34-2.26c4.93-2.42 7.92-8.29 7.92-14.29 0-7.83-5.08-12.9-12.92-12.9s-12.93 5.07-12.93 12.9c0 5.81 2.81 11.51 7.47 14.06l-.17.93a2.84 2.84 0 0 1-1.19 1.88l-8.81 6a28.51 28.51 0 0 0-6.41 6L80.73 77a14.15 14.15 0 0 0-2.88 10.18l2.6 24.42a4.26 4.26 0 0 0 3.55 3.73l5.32.88 1.28-26.16a5.69 5.69 0 0 1 1.65-3.73l3.55-3.54a2 2 0 0 1 1.4-.58h1.3L91 124.68a2 2 0 0 0 1 2.12l1.51.75-2.7 29.71a8.49 8.49 0 0 1-.76 2.81l-17.8 38.35 8.51 4.25 9.87 4.94.74-1.46a2.84 2.84 0 0 0-.94-3.61l-5-3.44-1.56-1.39 21-33.93a14.16 14.16 0 0 0 1.93-4.78l4.46-22.95h.65a2 2 0 0 1 1.9 1.41l7.48 24.95c.4 1.32.73 2.66 1 4l7.39 37.65h20.56v-1.64a2.84 2.84 0 0 0-2.45-2.81l-6-.82-3.26-.88-2.19-32.88q-.24-3.5-.81-6.94l-5.1-30.57 1.54-.76a2 2 0 0 0 1.03-2.06l-5.44-34h1a2 2 0 0 1 1.68.93l.32.52a14.24 14.24 0 0 0 7.37 5.85l20.8 7.28a4.27 4.27 0 0 0 4.73-1.36l3.78-4.73z" id="path3550" style="fill:#000"/><path class="cls-2" d="m180.71 87.06-8.26-3.78a1.43 1.43 0 0 0-1.82.58L165 93.48l7.82 4.34a.44.44 0 0 1 .13.66l-5.77 7.21 2.41 1.1a1.41 1.41 0 0 0 1.82-.58l9.91-17.16a1.41 1.41 0 0 0-.64-2" id="path3552" style="fill:#000"/></g></svg>