<svg version="1.1" x="0" y="0" viewBox="0 0 226.8 352.1" style="enable-background:new 0 0 226.8 352.1" xml:space="preserve" id="svg846" xmlns="http://www.w3.org/2000/svg"><style type="text/css" id="style838">.st0{fill:#e94e1b}.st1{fill:none;stroke:#fefefe;stroke-width:.25;stroke-miterlimit:10}.st3{fill:#00a7e1}.st4{fill:#002c73}.st5{fill:#fefefe}.st6,.st7{fill:none;stroke:#002c73;stroke-width:4;stroke-miterlimit:10}.st7{stroke-width:8}.st8{fill:none;stroke-width:2}.st10,.st8,.st9{stroke:#fff;stroke-miterlimit:10}.st9{fill:none;stroke-width:2;stroke-dasharray:6,8}.st10{stroke-linejoin:round}.st10,.st11{fill:#0075c9}.st12{fill:none;stroke:#fff;stroke-linejoin:round;stroke-miterlimit:10}.st13,.st14,.st15,.st16,.st17,.st18{fill:none;stroke:#231f20;stroke-width:.25;stroke-miterlimit:10}.st14,.st15,.st16,.st17,.st18{stroke:#002c73;stroke-width:7}.st15,.st16,.st17,.st18{stroke:#fff;stroke-width:4}.st16,.st17,.st18{stroke-width:4.1077}.st17,.st18{stroke-width:14}.st18{stroke-width:8.5;stroke-linecap:round}.st19{fill:#ffbe2e}.st20,.st21,.st22{fill:none;stroke:#fff;stroke-width:6.7936;stroke-miterlimit:10}.st21,.st22{fill:#fff;stroke-width:4.8526}.st22{fill:none;stroke-width:6.7936;stroke-linecap:round}</style><g id="Layer_1"><path d="M185.5 0H41.3C18.5 0 0 18.5 0 41.3v86.2c0 37.9 10.5 75.1 30.2 107.5l65.5 107.3c8 13.2 27.1 13.2 35.2 0L196.5 235c19.8-32.4 30.2-69.6 30.2-107.5V41.3C226.8 18.5 208.3 0 185.5 0z" id="path841" style="fill:#fff;stroke:#000;stroke-opacity:1;stroke-width:1;stroke-miterlimit:4;stroke-dasharray:none"/><path d="M186.3 36.4c-2.3 0-4.1 1.8-4.1 4.1v1.4h-26.6c-.2-.7-.8-1.2-1.6-1.3l-4.1-.4c-1.1-.1-2 .7-2.1 1.7H124c1.3-2.4 2-5.3 2-8.1 0-7.6-4.9-12.5-12.5-12.5S101 26.2 101 33.8c0 2.9.7 5.7 2 8.1H79c-.1-1.1-1.1-1.8-2.1-1.7l-4.1.4c-.8.1-1.4.6-1.6 1.3H44.6v-1.4c0-2.3-1.8-4.1-4.1-4.1s-4.1 1.8-4.1 4.1v158.1h8.2V47.4h26.2l-1.6 28.2c-.1 2.3 1.3 4.3 3.5 4.9 1.1.3 2.2.2 3.2-.2l17.9-7.5c.9-.4 1.9-.6 2.9-.6l-5.1 47.2c-.1 1.1.8 2.1 1.9 2.1h2l4 71c.1 1 .9 1.8 1.9 1.8h4.6c1 0 1.9-.8 1.9-1.8l4-69.7h2.7l4 69.7c.1 1 .9 1.8 1.9 1.8h4.6c1 0 1.9-.8 1.9-1.8l4-71h2c1.1 0 2-1 1.9-2.1L130 72.3c1 0 2 .2 2.9.6l17.9 7.5c1 .4 2.1.5 3.2.2 2.2-.6 3.6-2.7 3.5-4.9l-1.6-28.2h26.2v151.2h8.2V40.5c.1-2.3-1.8-4.1-4-4.1zm-81.7 14.7-8.1 2.5c-1.8.5-3.5 1.5-4.9 2.7L83.7 63c-.7.6-1.5.9-2.4.9l-1.7-16.5h28.5c.1 0 .1.1.2.1-.6 1.7-1.9 3.1-3.7 3.6zm40.9 12.8c-.9 0-1.7-.3-2.4-.9l-7.9-6.7c-1.4-1.2-3.1-2.1-4.9-2.7l-8.1-2.5c-1.8-.5-3.1-1.9-3.7-3.6.1 0 .1-.1.2-.1h28.5l-1.7 16.5z" id="path843" style="fill:#000"/></g></svg>