<svg xmlns="http://www.w3.org/2000/svg" xml:space="preserve" id="svg866" x="0" y="0" style="enable-background:new 0 0 226.8 352.1" version="1.1" viewBox="0 0 226.8 352.1"><style id="style848" type="text/css">.st2{fill:#fff}</style><g id="Layer_1"><g id="g863"><path id="path851" d="M185.5 0H41.3C18.5 0 0 18.5 0 41.3v86.2c0 37.9 10.5 75.1 30.2 107.5l65.5 107.3c8 13.2 27.1 13.2 35.2 0L196.5 235c19.8-32.4 30.2-69.6 30.2-107.5V41.3C226.8 18.5 208.3 0 185.5 0z" style="fill:#fff;stroke:#000;stroke-opacity:1"/><g id="g861" style="fill:#000"><path id="path853" d="M92.1 135.9c-5.9 0-24.3-8.2-24.3-24.7 0-22.2 19.2-36.4 5.1-55-.8-1.1.1-2.6 1.4-2.3 10.7 2.6 18.2 10.4 21 21.2 7.5-15.6 4.2-31.6-8.3-42.6-1-.9-.3-2.6 1.1-2.5 43.1 3.5 91.3 67 50.5 99.9 5.7-14.6 1.2-29.7-5.8-37.6-.9-1-2.5-.4-2.5.9-.1 10-3.7 21.3-10 28 2-9.2-1.1-18-8.4-24.1-.9-.8-2.4-.1-2.3 1.1.2 6.8-.7 13.5-3.2 20 .7-1.8-1.9-6.1-4.3-8.5-.9-.9-2.4-.2-2.4 1.1-.1 5-.6 16-7.6 25.1z" class="st2" style="fill:#000"/><path id="path855" d="M165.1 137.9c-.2 0-.4 0-.5.1L37.4 165.3c-2.9.6-4.2 6.4-2.8 12.8 1.3 6.1 4.5 10.6 7.3 10.6.2 0 .4 0 .5-.1l127.2-27.3c2.9-.6 4.2-6.4 2.8-12.8-1.4-6.1-4.5-10.6-7.3-10.6z" class="st2" style="fill:#000"/><path id="path857" d="M93.2 144.6 62.3 138c-2.9-.6-6.4 4.1-7.8 10.5-.3 1.6-.5 3.1-.5 4.6l39.2-8.5z" class="st2" style="fill:#000"/><path id="path859" d="m189.4 165.3-10-2.2c-1.7 3.4-4.5 5.7-8 6.5l-37.7 8.1 50.8 10.9c2.9.6 6.4-4.1 7.8-10.5 1.3-6.4 0-12.2-2.9-12.8z" class="st2" style="fill:#000"/></g></g></g></svg>