<svg viewBox="0 0 226.77 352.15" version="1.1" id="svg1720" xmlns="http://www.w3.org/2000/svg"><defs id="defs1711"><style id="style1709">.cls-2{fill:#fff}</style></defs><g id="g1901"><path d="M185.47 0H41.3A41.31 41.31 0 0 0 0 41.3v86.23A206.18 206.18 0 0 0 30.25 235l65.54 107.29a20.63 20.63 0 0 0 35.19 0L196.53 235a206.17 206.17 0 0 0 30.24-107.5V41.3A41.31 41.31 0 0 0 185.47 0Z" id="path1713" style="fill:#fff;fill-opacity:1;stroke:#000;stroke-opacity:1"/></g><path class="cls-2" d="M97.82 75.9a1.42 1.42 0 0 0-1.2-2.19H72a2.86 2.86 0 0 1-2.46-1.41l-8.23-14.18a2.81 2.81 0 0 1 0-2.83l8.18-14.18A2.86 2.86 0 0 1 72 39.7h24.62a1.42 1.42 0 0 0 1.2-2.19 35.43 35.43 0 0 0-62.06 4.59 5.63 5.63 0 0 1-5.13 3.27H0V68h30.63a5.63 5.63 0 0 1 5.13 3.27 35.43 35.43 0 0 0 62.06 4.63z" id="path1715" style="fill:#000"/><path class="cls-2" d="M198.85 120.51a3.17 3.17 0 0 0-1.72.5l-8.24 5.17-4.31-5.94 2.34-10.58 3.65 1a11.22 11.22 0 0 0 14.12-10.87 2.91 2.91 0 0 0-2.92-2.89H167a4.64 4.64 0 0 0-4.64 3.78 4.53 4.53 0 0 0 3.85 5.23l6.28.86q3.07.42 6.12 1l-2.75 12.4c0 .15-.07.29-.09.45L171 142.31l-54.12-25.79a18.5 18.5 0 0 0-2.5-10l-2.24-3.81a1.37 1.37 0 0 1 0-1.42 1.35 1.35 0 0 1 1.23-.71h10a8.51 8.51 0 0 0 8.5-8.51h-18.23a10.19 10.19 0 0 0-8.64 4.7 9.81 9.81 0 0 0-.15 10.28l2.23 3.81a9.92 9.92 0 0 1 1.17 7l-3.4 16.92c-.91-.07-1.83-.12-2.75-.12a35.43 35.43 0 1 0 11.09 1.78l1.74-8.66 42.68 43.47a11.33 11.33 0 0 0 10.21 15.85 9.18 9.18 0 0 0 2.88-.29l12.12-2.95a35.46 35.46 0 0 0 28.78 21.43c1.11-2.74 2.18-5.5 3.17-8.29a27 27 0 0 1-23.53-15.18l25.58-6.21h.13a5.67 5.67 0 0 0-.22-11l-13.4-18.49a26.82 26.82 0 0 1 22.72-.74c.26-2.94.44-5.9.57-8.86a34.64 34.64 0 0 0-9.58-1.78 35.18 35.18 0 0 0-18.75 4.42l-4.36-6 5.7-3.57a3.16 3.16 0 0 1 1.71-.5h25.47v-8.48zM129 170.07a26.93 26.93 0 1 1-26.93-26.93h1.06l-4.5 22.4a5.67 5.67 0 1 0 9.11 4.51 5.59 5.59 0 0 0-.77-2.84l4.5-22.4A27 27 0 0 1 129 170.07Zm37.09-5.5a11 11 0 0 0-2.44.69l-31.44-32 36.92 17.6zm14.39-.17h-5.64l7.31-33.05 9.22 12.73a35.39 35.39 0 0 0-10.91 20.32zm15.91-13.4 9.68 13.36h-17a27 27 0 0 1 7.32-13.36Z" id="path1717" style="fill:#000"/></svg>