<svg xmlns="http://www.w3.org/2000/svg" id="svg856" version="1.1" viewBox="0 0 226.77 352.16"><defs id="defs844"><style id="style842">.cls-2{fill:#fefefe}</style></defs><g id="Layer_2" data-name="Layer 2"><g id="Layer_1-2" data-name="Layer 1"><path id="path846" d="M185.47 0H41.3A41.3 41.3 0 0 0 0 41.3v86.24A206.12 206.12 0 0 0 30.25 235l65.54 107.3a20.63 20.63 0 0 0 35.19 0L196.53 235a206.11 206.11 0 0 0 30.24-107.49V41.3A41.3 41.3 0 0 0 185.47 0Z" style="fill:#fff;stroke:#000;stroke-opacity:1"/><path id="path848" d="M170.79 79.37h10.63a2.83 2.83 0 0 0 2.83-2.83v-17a2.84 2.84 0 0 0-2.83-2.84h-14.89l-1.69-9a2.84 2.84 0 0 0-2.78-2.32h-31.67l-5.13-20.52a2.82 2.82 0 0 0-2.75-2.15h-18.25a2.83 2.83 0 0 0-2.75 2.14l-5.13 20.5H64.71a2.84 2.84 0 0 0-2.78 2.32l-1.69 9H45.35a2.84 2.84 0 0 0-2.83 2.84v17a2.83 2.83 0 0 0 2.83 2.83H56l-8.85 47.16 64.44-21.5a5.65 5.65 0 0 1 3.59 0l64.44 21.48Z" class="cls-2" style="fill:#000"/><path id="path850" d="M56.44 203.25a21.27 21.27 0 0 0 22.93-7.66 21.26 21.26 0 0 0 29.76 4.25v-85L36.85 138.9Zm39.94-72.86a5.67 5.67 0 1 1-5.67 5.67 5.67 5.67 0 0 1 5.67-5.67Z" class="cls-2" style="fill:#000"/><path id="path852" d="M117.64 114.8v85a21.26 21.26 0 0 0 29.76-4.25 21.25 21.25 0 0 0 17 8.5 21.51 21.51 0 0 0 5.93-.84l19.58-64.35Zm12.75 26.93a5.67 5.67 0 1 1 5.67-5.67 5.67 5.67 0 0 1-5.67 5.67Z" class="cls-2" style="fill:#000"/></g></g></svg>