<svg xmlns="http://www.w3.org/2000/svg" id="svg852" version="1.1" viewBox="0 0 226.77 352.16"><defs id="defs842"><style id="style840">.cls-2{fill:#fff}</style></defs><g id="Layer_2" data-name="Layer 2"><g id="Layer_1-2" data-name="Layer 1"><path id="path844" d="M185.47 0H41.3A41.3 41.3 0 0 0 0 41.3v86.24A206.12 206.12 0 0 0 30.25 235l65.54 107.3a20.63 20.63 0 0 0 35.19 0L196.53 235a206.11 206.11 0 0 0 30.24-107.49V41.3A41.3 41.3 0 0 0 185.47 0Z" style="fill:#fff;stroke:#000;stroke-opacity:1"/><path id="path846" d="M202.68 195.59h-32.6v-9.7a1.64 1.64 0 0 0-1.64-1.64h-8.06a1.64 1.64 0 0 0-1.64 1.64v9.7H68v-9.7a1.64 1.64 0 0 0-1.64-1.64h-8.03a1.65 1.65 0 0 0-1.64 1.64v9.7h-32.6a1.42 1.42 0 0 0-1.41 1.41v5.67a1.42 1.42 0 0 0 1.41 1.42h178.59a1.42 1.42 0 0 0 1.41-1.42V197a1.42 1.42 0 0 0-1.41-1.41Z" class="cls-2" style="fill:#000"/><path id="path848" d="M55.32 168a14.17 14.17 0 0 0 11.79 6.31h8a1.43 1.43 0 0 1 1.42 1.42v8.5a2.83 2.83 0 0 0 2.83 2.84h68a2.84 2.84 0 0 0 2.84-2.84v-8.5a1.42 1.42 0 0 1 1.41-1.42h8a14.15 14.15 0 0 0 11.84-6.31l5.21-7.81a28.34 28.34 0 0 0 4.76-15.72v-65.3A42.49 42.49 0 0 0 176 58.33l-12.27-21.75A28.36 28.36 0 0 0 140 22.15q-26.57-.88-53.15 0a28.33 28.33 0 0 0-23.8 14.43L50.82 58.32a42.57 42.57 0 0 0-5.47 20.85v65.32a28.27 28.27 0 0 0 4.77 15.72Zm111.92-15a8.5 8.5 0 1 1-8.5-8.5 8.5 8.5 0 0 1 8.5 8.57ZM69.78 68H157a5.67 5.67 0 0 1 5.47 7.16l-13.63 50a7.09 7.09 0 0 1-6.84 5.22H84.78a7.07 7.07 0 0 1-6.78-5.21l-13.63-50A5.67 5.67 0 0 1 69.78 68ZM68 144.57a8.51 8.51 0 1 1-8.5 8.5 8.51 8.51 0 0 1 8.5-8.5Z" class="cls-2" style="fill:#000"/></g></g></svg>