<svg xmlns="http://www.w3.org/2000/svg" xml:space="preserve" id="svg862" x="0" y="0" style="enable-background:new 0 0 226.8 352.1" version="1.1" viewBox="0 0 226.8 352.1"><style id="style846" type="text/css">.st2{fill:#fff}</style><g id="Layer_1"><g id="g859"><path id="path849" d="M185.5 0H41.3C18.5 0 0 18.5 0 41.3v86.2c0 37.9 10.5 75.1 30.2 107.5l65.5 107.3c8 13.2 27.1 13.2 35.2 0L196.5 235c19.8-32.4 30.2-69.6 30.2-107.5V41.3C226.8 18.5 208.3 0 185.5 0z" style="fill:#fff;stroke:#000;stroke-opacity:1;stroke-width:1;stroke-miterlimit:4;stroke-dasharray:none"/><path id="path851" d="M164.5 20.5c-22.7 0-41.1 18.4-41.1 41.1 0 22.7 18.4 41.1 41.1 41.1 22.7 0 41.1-18.4 41.1-41.1 0-22.7-18.4-41.1-41.1-41.1zm21.7 51.8c-2.3 0-4.4-.7-6.1-1.9l-14.9 11c.3 1 .5 2.1.5 3.2 0 5.9-4.8 10.8-10.8 10.8-5.9 0-10.8-4.8-10.8-10.8s4.8-10.8 10.8-10.8c2.3 0 4.4.7 6.1 1.9l14.9-11c-.3-1-.5-2.1-.5-3.2s.2-2.2.5-3.2l-14.9-11c-1.7 1.2-3.9 1.9-6.1 1.9-5.9 0-10.8-4.8-10.8-10.8s4.8-10.8 10.8-10.8c5.9 0 10.8 4.8 10.8 10.8 0 1.1-.2 2.2-.5 3.2l14.9 11c1.7-1.2 3.9-1.9 6.1-1.9 5.9 0 10.8 4.8 10.8 10.8-.1 6-4.9 10.8-10.8 10.8z" class="st2" style="fill:#000"/><g id="g857" style="fill:#000"><path id="path853" d="M203.6 125.2h-83.2v-3.6s.2-4.8 3.2-8.2c.4-.5 1.2-1.6 1.7-2.4 2.6-3.7 2.2-8.9-1.4-12.2-1.5-1.3-3.4-2.1-5.4-2.2h-16.8c0 4.4 3.6 8.1 8 8.1l8.5-.1c.4.1.7.3.8.6.1.2.2.7-.1 1.1l-.1.1c-.5.7-1 1.5-1.2 1.7-5 5.7-5.1 13.1-5.1 13.4l-.1 51.2H92.2L72.8 124l8.3-1.6c1.5-.3 2.6-1.6 2.6-3.1 0-1.7-1.4-3.2-3.2-3.2H55.1c-4.2 0-1.3 6.1 0 7.5 1.9 2.1 4.5 3 7.3 2.4l2.3-.4 5.5 13.8-8.5 12.1c-3.9-2-8.3-3.1-12.9-3.1-15.6 0-28.4 12.7-28.4 28.4 0 15.6 12.7 28.4 28.4 28.4s28.4-12.7 28.4-28.4c0-8.1-3.4-15.5-8.9-20.6l5.5-7.8L86 179c.4 1.1 1.5 1.8 2.6 1.8l44.9.1c1.9 13.8 13.8 24.4 28.1 24.4s26.1-10.6 28.1-24.4h14c1.6 0 2.8-1.3 2.8-2.8V128c-.1-1.5-1.4-2.8-2.9-2.8zM69.1 176.7c0 11.2-9.1 20.4-20.4 20.4s-20.4-9.1-20.4-20.4c0-11.2 9.1-20.4 20.4-20.4 2.9 0 5.7.6 8.2 1.8l-9.7 13.8c-2.1.6-3.6 2.5-3.6 4.8 0 2.8 2.3 5.1 5.1 5.1s5.1-2.3 5.1-5.1v-.2l9.7-13.8c3.5 3.7 5.6 8.6 5.6 14zm92.4 20.4c-11.2 0-20.4-9.1-20.4-20.4 0-11.2 9.1-20.4 20.4-20.4s20.4 9.1 20.4 20.4c0 11.2-9.1 20.4-20.4 20.4zm36.9-24.4h-8.8c-2-13.8-13.8-24.4-28.1-24.4s-26.1 10.6-28.1 24.4h-13.1v-39.5h78.1v39.5z" class="st2" style="fill:#000"/><circle id="ellipse855" cx="161.5" cy="176.7" r="5.1" class="st2" style="fill:#000" transform="rotate(-9.213 161.517 176.661)"/></g></g></g></svg>