<svg xmlns="http://www.w3.org/2000/svg" id="Layer_1" version="1.1" viewBox="0 0 400 400"><defs id="defs847"><style id="style845">.cls-1{stroke-width:0}</style></defs><circle id="circle849" cx="200" cy="200" r="200" style="fill:#072c73;fill-opacity:1;stroke-width:0"/><path id="path851" d="M200 7c26.06 0 51.33 5.1 75.12 15.16 22.98 9.72 43.62 23.64 61.35 41.36 17.73 17.73 31.64 38.37 41.36 61.35 10.06 23.79 15.16 49.06 15.16 75.12s-5.1 51.33-15.16 75.12c-9.72 22.98-23.64 43.62-41.36 61.35s-38.37 31.64-61.35 41.36c-23.79 10.06-49.06 15.16-75.12 15.16s-51.33-5.1-75.12-15.16c-22.98-9.72-43.62-23.64-61.35-41.36-17.73-17.73-31.64-38.37-41.36-61.35-10.06-23.79-15.16-49.06-15.16-75.12s5.1-51.33 15.16-75.12c9.72-22.98 23.64-43.62 41.36-61.35 17.73-17.73 38.37-31.64 61.35-41.36C148.67 12.1 173.94 7 200 7m0-7C89.54 0 0 89.54 0 200s89.54 200 200 200 200-89.54 200-200S310.46 0 200 0Z" class="cls-1"/><path id="path853" d="M391.198 177.373c-1.412-7.333-3.337-14.567-4.66-21.92-.848-4.743-1.648-9.615-2.191-14.517L222.205 232.29c-.03-.079-.05-.158-.079-.237a5966.877 5966.877 0 0 0-12.133-36.585 14.49 14.49 0 0 0 7.533-4.901c4.877-6.039 4.156-14.794-1.5-19.963l.039-.05c6.239 4.448 14.936 3.321 19.813-2.717 4.877-6.038 4.156-14.794-1.5-19.962l.04-.05c6.238 4.447 14.936 3.32 19.813-2.717 4.877-6.039 4.156-14.794-1.5-19.963l.019-.03c6.269 5.01 15.41 4.023 20.465-2.233 5.064-6.275 4.097-15.476-2.182-20.555-3.959 4.911-9.497 8.3-15.657 9.526a15.34 15.34 0 0 0 1.856-1.897c5.064-6.275 4.097-15.486-2.182-20.556-3.959 4.912-9.497 8.302-15.657 9.527a15.34 15.34 0 0 0 1.856-1.897c5.064-6.276 4.097-15.476-2.182-20.556-4.196 5.198-10.169 8.697-16.763 9.725-9.033 1.403-16.753 1.798-23.447 1.66-.049-3.064.099-6.216.504-9.794.967-8.587 4.699-14.823 7.522-18.608-8.756 0-16.644 5.465-22.173 14.181a58.24 58.24 0 0 1 .672-6.008c1.411-8.588 6.9-14.824 11.047-18.609-19.192 0-35.54 12.155-41.79 29.202-4.807 5.673-9.507 14.409-29.192 32.84v172.645c-25.934 4.655-55.778 12.007-89.077 22.977.484.435.948.88 1.402 1.324a39.37 39.37 0 0 1 3.08 3.489c2.596 2.618 4.946 5.534 7.078 8.686a80.09 80.09 0 0 0 1.313 1.878 153.668 153.668 0 0 0 18.274 18.292c.622.435 1.244.88 1.876 1.315 6.713 4.555 11.925 9.842 15.696 16.335 4.127 2.777 8.402 5.277 12.933 7.392 2.34.979 4.68 1.977 7.01 2.965 1.618.484 3.247.978 4.866 1.453.05.01.09.03.139.04 11.54 3.379 22.943 9.97 34.118 14.447 7.79 3.123 15.46 3.45 23.536 5.544 41.552 7.55 60.31-3.32 89.65-6.927 1.382-.168 2.764.069 4.116.197 1.688-.711 3.396-1.304 5.114-1.72 5.756-1.403 11.373-3.181 16.901-5.267 14.789-6.888 28.422-15.673 41.543-25.368 6.269-5.178 12.103-10.801 17.385-16.988 6.851-9.98 12.093-20.812 18.165-31.307 6.515-11.256 13.386-22.305 18.935-34.065 5.054-13.47 8.608-27.858 10.938-42.089.85-8.647 1.106-17.353 1.175-26.04.06-7.56.148-15.278-.425-22.868z" class="cls-1" style="fill:#fff;stroke-width:3.77952756;stroke-miterlimit:4;stroke-dasharray:none;stroke:#000;stroke-opacity:1"/></svg>