<svg xmlns="http://www.w3.org/2000/svg" viewBox="0 0 226.77 352.16"><defs><style>.cls-1{fill:#002c73;}.cls-2{fill:#fefefe;}</style></defs><g id="Layer_2" data-name="Layer 2"><g id="Layer_1-2" data-name="Layer 1"><path class="cls-1" d="M185.47,0H41.3A41.3,41.3,0,0,0,0,41.3v86.24A206.12,206.12,0,0,0,30.25,235L95.79,342.3a20.63,20.63,0,0,0,35.19,0L196.53,235a206.11,206.11,0,0,0,30.24-107.49V41.3A41.3,41.3,0,0,0,185.47,0Z"/><path class="cls-2" d="M170.79,79.37h10.63a2.83,2.83,0,0,0,2.83-2.83v-17a2.84,2.84,0,0,0-2.83-2.84H166.53l-1.69-9a2.84,2.84,0,0,0-2.78-2.32H130.39l-5.13-20.52a2.82,2.82,0,0,0-2.75-2.15H104.26a2.83,2.83,0,0,0-2.75,2.14L96.38,45.35H64.71a2.84,2.84,0,0,0-2.78,2.32l-1.69,9H45.35a2.84,2.84,0,0,0-2.83,2.84v17a2.83,2.83,0,0,0,2.83,2.83H56L47.15,126.5,111.59,105a5.65,5.65,0,0,1,3.59,0l64.44,21.48Z"/><path class="cls-2" d="M56.44,203.25a21.27,21.27,0,0,0,22.93-7.66,21.26,21.26,0,0,0,29.76,4.25v-85L36.85,138.9Zm39.94-72.86a5.67,5.67,0,1,1-5.67,5.67A5.67,5.67,0,0,1,96.38,130.39Z"/><path class="cls-2" d="M117.64,114.8v85a21.26,21.26,0,0,0,29.76-4.25,21.25,21.25,0,0,0,17,8.5,21.51,21.51,0,0,0,5.93-.84l19.58-64.35Zm12.75,26.93a5.67,5.67,0,1,1,5.67-5.67A5.67,5.67,0,0,1,130.39,141.73Z"/></g></g></svg>