<svg viewBox="0 0 226.77 352.16" version="1.1" id="svg852" xmlns="http://www.w3.org/2000/svg"><defs id="defs842"><style id="style840"></style></defs><g id="Layer_2" data-name="Layer 2"><g id="Layer_1-2" data-name="Layer 1"><path class="cls-2" d="M199.1 158.12 29.19 136.88a3.53 3.53 0 0 0-3.62 5.12 73 73 0 0 1 3.5 55.94l-.52 1.51a3.53 3.53 0 0 0 3.35 4.69H196a3.54 3.54 0 0 0 3.35-4.69 46.49 46.49 0 0 1 2.46-36.1v-.07a3.54 3.54 0 0 0-2.71-5.16Z" id="path846"/><path class="cls-2" d="m181.42 102.05-2.34-46.82a31.44 31.44 0 0 0-6.57-17.68 14.19 14.19 0 0 0-10.1-5.43 639.31 639.31 0 0 0-98 0 14.19 14.19 0 0 0-10.1 5.43 31.44 31.44 0 0 0-6.57 17.68l-2.34 46.82v28.28l136.07 17ZM68 127.56a8.51 8.51 0 1 1 8.5-8.51 8.5 8.5 0 0 1-8.5 8.51Zm90.71 0a8.51 8.51 0 1 1 8.5-8.51 8.51 8.51 0 0 1-8.47 8.51Zm8.37-25.51H59.67a2.85 2.85 0 0 1-2.84-3L58.93 55a5.67 5.67 0 0 1 5.66-5.4h97.59a5.67 5.67 0 0 1 5.66 5.4l2.1 44.08a2.85 2.85 0 0 1-2.83 2.97Z" id="path848"/></g></g></svg>