<?xml version="1.0" encoding="UTF-8"?>
<svg id="Layer_1" data-name="Layer 1" xmlns="http://www.w3.org/2000/svg" viewBox="0 0 182.86 352.15" width="40" height="40">
  <defs>
    <style>
      .sports-maintenance-1 {
        fill: #fff;
      }

      .sports-maintenance-2 {
        fill: none;
        stroke: #fff;
        stroke-miterlimit: 10;
        stroke-width: 3.01px;
      }
    </style>
  </defs>
  <g>
    <path d="M180.49,324.09v4.27c0,1.92-1.39,3.5-3.15,3.58l-23.08-.16c-7.51-.05-14.99-.98-22.28-2.82-.05-.01-.1-.03-.15-.04-7.93-2.02-16.14-4.78-28.55-6.59l.28,6.31c0,1.74-1.3,3.15-2.89,3.15h-19.86c-1.6,0-2.89-1.41-2.89-3.15l.04-19.49c22.73.93,37.85,8.96,47.35,11.39,11.1,2.84,22.35,4.49,33.7,4.49,1.97,0,3.95-.05,5.93-.15l15.55-.81Z"/>
    <path d="M175.36,299.94c-6.02-2.72-17.64-5.41-28.03-9.84-11.42-4.87-19.74-15.77-22.06-28.88-1.13-6.42-1.96-14.38-1.62-23.29.13-3.4-2.42-6.18-5.55-6.07-8.15.3-22.81,1.92-31.89,9.19-2.02,1.62-3.18,4.21-3.18,6.94v14.48c0,5.42-.91,10.81-2.76,15.85-2.61,7.11-5.63,13.55-2.33,26.88h.16c17.24.71,30.18,5.34,39.63,8.71,3.31,1.18,6.17,2.2,8.53,2.81,11.16,2.86,22.01,4.33,32.25,4.37h.17c1.09,0,2.17-.02,3.26-.04.45,0,.9-.02,1.35-.04.24,0,.47-.02.71-.03.46-.02.92-.04,1.38-.06l15.09-.78s0,0,0,0c.13-.41,4.99-15.61-5.13-20.19ZM110.56,255.3c0-2.45,1.99-4.43,4.43-4.43s4.43,1.98,4.43,4.43-1.99,4.43-4.43,4.43-4.43-1.99-4.43-4.43ZM118.25,277.62c-2.45,0-4.43-1.98-4.43-4.43s1.99-4.43,4.43-4.43,4.43,1.99,4.43,4.43-1.99,4.43-4.43,4.43ZM128.26,292.06c-2.45,0-4.43-1.99-4.43-4.43s1.99-4.43,4.43-4.43,4.43,1.98,4.43,4.43-1.99,4.43-4.43,4.43ZM145,302.4c-2.45,0-4.43-1.99-4.43-4.43s1.98-4.43,4.43-4.43,4.43,1.99,4.43,4.43-1.99,4.43-4.43,4.43Z"/>
    <path d="M175.55,331.93l-5.2-.65,2.33,5.95c1.38,3.54-1.22,7.36-5.02,7.36-3.29,0-7.44,0-12.12,0-5.23-.77-11.61-3.96-9.84-15.31h-8.34s6.07,15.05-14.59,15.23c-1.4.01-2.5.04-3.37.09h-2.07c-25.92,0-20.39-13.32-20.39-13.32h-13.23s6.81,12.66-15.82,13.28c-.98.03-1.76.83-1.76,1.81v2.59c0,1,.81,1.81,1.81,1.81h104.97s6.51.36,7.59-6.19c1.08-6.55-4.94-12.65-4.94-12.65Z"/>
  </g>
  <g>
    <path d="M43.29,1.38c4.78,0,8.65,23.24,8.65,40.28v180.74s0,123.52,0,123.52h0c0,.5-.07.99-.19,1.44-.04.15-.09.3-.14.45-.63,1.74-2.11,2.97-3.84,2.97h-7.72s-1.25,0-1.25,0h0c-.82,0-1.58-.28-2.23-.76-.05-.04-.1-.07-.14-.11-.15-.12-.3-.26-.43-.4-.84-.89-1.36-2.16-1.36-3.59h0s0-123.52,0-123.52V41.66c0-17.05,3.87-40.28,8.65-40.28Z"/>
    <path class="sports-maintenance-2" d="M45.93,233.67h-5.28c-2.95,0-5.33-2.3-5.33-5.13v-27.72s0-48.57,0-48.57c0-1.07.36-2.1,1.03-2.96l2.86-3.66c2.06-2.64,6.17-2.63,8.22.01l2.83,3.65c.66.85,1.02,1.88,1.02,2.94v76.3c0,2.83-2.39,5.13-5.33,5.13Z"/>
    <rect class="sports-maintenance-1" x="39.38" y="162.84" width="7.81" height="5.64" rx="1.15" ry="1.15"/>
    <path class="sports-maintenance-1" d="M43.29,160.13h0c-1.6,0-2.9-1.3-2.9-2.9v-5.9c0-.42.14-.83.4-1.17l1.01-1.29c.76-.97,2.23-.97,2.99,0l1,1.29c.26.33.4.74.4,1.16v5.9c0,1.6-1.3,2.9-2.9,2.9Z"/>
  </g>
  <g>
    <path d="M11.18,1.38c4.78,0,8.65,23.24,8.65,40.28v180.74s0,123.52,0,123.52h0c0,.5-.07.99-.19,1.44-.04.15-.09.3-.14.45-.63,1.74-2.11,2.97-3.84,2.97h-7.72s-1.25,0-1.25,0h0c-.82,0-1.58-.28-2.23-.76-.05-.04-.1-.07-.14-.11-.15-.12-.3-.26-.43-.4-.84-.89-1.36-2.16-1.36-3.59h0s0-123.52,0-123.52V41.66c0-17.05,3.87-40.28,8.65-40.28Z"/>
    <path class="sports-maintenance-2" d="M13.81,233.67h-5.28c-2.95,0-5.33-2.3-5.33-5.13v-76.29c0-1.07.36-2.1,1.03-2.96l2.86-3.66c2.06-2.64,6.17-2.63,8.22.01l2.83,3.65c.66.85,1.02,1.88,1.02,2.94v76.3c0,2.83-2.39,5.13-5.33,5.13Z"/>
    <rect class="sports-maintenance-1" x="7.27" y="162.84" width="7.81" height="5.64" rx="1.15" ry="1.15"/>
    <path class="sports-maintenance-1" d="M11.18,160.13h0c-1.6,0-2.9-1.3-2.9-2.9v-5.9c0-.42.14-.83.4-1.17l1.01-1.29c.76-.97,2.23-.97,2.99,0l1,1.29c.26.33.4.74.4,1.16v5.9c0,1.6-1.3,2.9-2.9,2.9Z"/>
  </g>
</svg>