<svg xmlns="http://www.w3.org/2000/svg" viewBox="0 0 226.77 352.16"><defs><style>.cls-1{fill:#002c73;}.cls-2{fill:#fefefe;}</style></defs><g id="Layer_2" data-name="Layer 2"><g id="Layer_1-2" data-name="Layer 1"><path class="cls-1" d="M185.47,0H41.3A41.3,41.3,0,0,0,0,41.3v86.24A206.12,206.12,0,0,0,30.25,235L95.79,342.3a20.63,20.63,0,0,0,35.19,0L196.53,235a206.11,206.11,0,0,0,30.24-107.49V41.3A41.3,41.3,0,0,0,185.47,0Z"/><rect class="cls-2" x="56.69" y="90.71" width="8.5" height="11.34"/><path class="cls-2" d="M45.35,180a1.43,1.43,0,0,0,1.42,1.42h5.67A1.43,1.43,0,0,0,53.86,180V141.73H45.35Z"/><path class="cls-2" d="M172.91,180a1.43,1.43,0,0,0,1.42,1.42H180a1.43,1.43,0,0,0,1.42-1.42V141.73h-8.51Z"/><rect class="cls-2" x="161.57" y="90.71" width="8.5" height="11.34"/><path class="cls-2" d="M46.77,85H180a1.42,1.42,0,0,0,1.42-1.42V51a2.84,2.84,0,0,0-2.84-2.83H48.19A2.84,2.84,0,0,0,45.35,51v32.6A1.42,1.42,0,0,0,46.77,85Z"/><path class="cls-2" d="M191.8,123.3,182.26,109a2.83,2.83,0,0,0-2.36-1.26h-133A2.83,2.83,0,0,0,44.51,109L35,123.3a5.65,5.65,0,0,0-.95,3.14v8.21a1.41,1.41,0,0,0,1.41,1.41H191.34a1.42,1.42,0,0,0,1.42-1.41v-8.21A5.66,5.66,0,0,0,191.8,123.3ZM181.42,129H45.35a2.84,2.84,0,0,1,0-5.67H181.42a2.84,2.84,0,0,1,0,5.67Z"/></g></g></svg>