<svg xmlns="http://www.w3.org/2000/svg" id="Layer_1" version="1.1" viewBox="0 0 400 400"><defs id="defs2384"><style id="style2382">.cls-1,.cls-2{stroke-width:0}.cls-3,.cls-4{stroke:#000;stroke-miterlimit:10;stroke-width:3px}.cls-2{fill:#fff}.cls-4{fill:#7a6251}</style></defs><circle id="circle2386" cx="200" cy="200" r="200" class="cls-2" style="fill:#072c73;fill-opacity:1"/><path id="path2388" d="m226.43 363.37-51.66-86.77 32.31-33.78-61.09-69.85c-39.73 17.72-81.53 28.84-124.48 33.12l-18.29 1.82c6.74 27.15 12.43 54.6 21.9 80.91 4.25 4.35 7.83 9.97 8.93 15.04 1.99 2.18 3.69 4.53 4.94 6.98 2.21 4.31 4.75 8.4 7.52 12.34 3.24 3.89 6.62 7.67 10.04 11.41 2.69 2.39 5.43 4.71 8.15 7.09 4.38 3.82 8.06 8.35 12.01 12.58 8.08 4.68 16.68 8.5 24.64 13.39 10.34 6.34 20.91 12.2 31.7 17.72 2.61.04 5.13.36 7.55.92.95-.03 1.91-.06 2.86-.05l-28.16-47.46 7.55-7.89 62.88 50.86-4.5 13.19c2.51.51 4.2-.16 6.37.25 8.45-1.31 17.02 1.3 25.58 1.64 4.59.18 9.09-3.59 13.57-3.3l.42-.8a29.951 29.951 0 0 0-.74-29.34Z" class="cls-4" style="fill:#fff"/><path id="path2390" d="M217.32 235.73c-8.12 0-14.73-5.8-14.73-12.92s6.61-12.92 14.73-12.92 14.73 5.8 14.73 12.92-6.61 12.92-14.73 12.92Z" class="cls-1"/><path id="path2392" d="M217.32 211.39c7.31 0 13.23 5.11 13.23 11.42s-5.92 11.42-13.23 11.42-13.23-5.11-13.23-11.42 5.92-11.42 13.23-11.42m0-3c-8.95 0-16.23 6.47-16.23 14.42s7.28 14.42 16.23 14.42 16.23-6.47 16.23-14.42-7.28-14.42-16.23-14.42Z" class="cls-1"/><path id="path2394" d="M152.08 165.34c-4.75 0-8.62-3.87-8.62-8.62s3.87-8.62 8.62-8.62 8.62 3.87 8.62 8.62-3.87 8.62-8.62 8.62Z" class="cls-1"/><path id="path2396" d="M152.08 149.6c3.93 0 7.12 3.19 7.12 7.12s-3.19 7.12-7.12 7.12-7.12-3.19-7.12-7.12 3.19-7.12 7.12-7.12m0-3c-5.58 0-10.12 4.54-10.12 10.12s4.54 10.12 10.12 10.12 10.12-4.54 10.12-10.12-4.54-10.12-10.12-10.12Z" class="cls-1"/><path id="path2398" d="M195.06 203.1c-4.75 0-8.62-3.87-8.62-8.62s3.87-8.62 8.62-8.62 8.62 3.87 8.62 8.62-3.87 8.62-8.62 8.62Z" class="cls-1"/><path id="path2400" d="M195.06 187.36c3.93 0 7.12 3.19 7.12 7.12s-3.19 7.12-7.12 7.12-7.12-3.19-7.12-7.12 3.19-7.12 7.12-7.12m0-3c-5.58 0-10.12 4.54-10.12 10.12s4.54 10.12 10.12 10.12 10.12-4.54 10.12-10.12-4.54-10.12-10.12-10.12Z" class="cls-1"/><path id="path2402" d="M174.23 200.55c-14.46 0-26.22-11.76-26.22-26.22s11.76-26.22 26.22-26.22 26.22 11.76 26.22 26.22-11.76 26.22-26.22 26.22Z" class="cls-2"/><path id="path2404" d="M174.23 149.6c13.65 0 24.72 11.07 24.72 24.72s-11.07 24.72-24.72 24.72-24.72-11.07-24.72-24.72 11.07-24.72 24.72-24.72m0-3c-15.29 0-27.72 12.44-27.72 27.72s12.44 27.72 27.72 27.72 27.72-12.44 27.72-27.72-12.44-27.72-27.72-27.72Z" class="cls-1"/><circle id="circle2406" cx="174.23" cy="174.33" r="15.03" class="cls-3"/><path id="path2408" d="M282.56 164.06c-4.75 0-8.62-3.87-8.62-8.62s3.87-8.62 8.62-8.62 8.62 3.87 8.62 8.62-3.87 8.62-8.62 8.62Z" class="cls-1"/><path id="path2410" d="M282.56 148.33c3.93 0 7.12 3.19 7.12 7.12s-3.19 7.12-7.12 7.12-7.12-3.19-7.12-7.12 3.19-7.12 7.12-7.12m0-3c-5.58 0-10.12 4.54-10.12 10.12s4.54 10.12 10.12 10.12 10.12-4.54 10.12-10.12-4.54-10.12-10.12-10.12Z" class="cls-1"/><path id="path2412" d="M239.58 201.82c-4.75 0-8.62-3.87-8.62-8.62s3.87-8.62 8.62-8.62 8.62 3.87 8.62 8.62-3.87 8.62-8.62 8.62Z" class="cls-1"/><path id="path2414" d="M239.58 186.09c3.93 0 7.12 3.19 7.12 7.12s-3.19 7.12-7.12 7.12-7.12-3.19-7.12-7.12 3.19-7.12 7.12-7.12m0-3c-5.58 0-10.12 4.54-10.12 10.12s4.54 10.12 10.12 10.12 10.12-4.54 10.12-10.12-4.54-10.12-10.12-10.12Z" class="cls-1"/><path id="path2416" d="M260.41 199.27c-14.46 0-26.22-11.76-26.22-26.22s11.76-26.22 26.22-26.22 26.22 11.76 26.22 26.22-11.76 26.22-26.22 26.22Z" class="cls-2"/><path id="path2418" d="M260.41 148.33c13.65 0 24.72 11.07 24.72 24.72s-11.07 24.72-24.72 24.72-24.72-11.07-24.72-24.72 11.07-24.72 24.72-24.72m0-3c-15.29 0-27.72 12.44-27.72 27.72s12.44 27.72 27.72 27.72 27.72-12.44 27.72-27.72-12.44-27.72-27.72-27.72Z" class="cls-1"/><circle id="circle2420" cx="260.41" cy="173.05" r="15.03" class="cls-3"/><path id="path2422" d="M318.6 95.05c-.19-.42-.38-.83-.57-1.25-8.74-18.79-20.98-32.98-33.56-43.59.01 0 0 0-.07-.06-.04-.03-.07-.06-.11-.09-.84-.68-4.24-3.47-6.67-5.27-19.39-14.38-47.3-1-47.61 22.76l-.11 8.15a89.853 89.853 0 0 0-25.16-.01l-.11-8.14c-.31-23.76-28.22-37.13-47.61-22.76-2.43 1.8-5.83 4.59-6.67 5.27-.04.03-.07.06-.11.09-.07.06-.08.07-.07.06-12.59 10.61-24.82 24.8-33.56 43.59-.19.42-.39.84-.57 1.25-10.39 23-7.57 47.85 4.55 67.36-2.68 17.75.87 34.9 13.51 47.55 5.87 5.87 18.45 16.14 33.76 24.47 13.5 7.36 29.13 13.23 44.16 13.23h10.17c32 0 68.53-27.52 77.84-36.83 12.84-12.84 16.51-30.24 13.88-48.22 12.22-19.54 15.1-44.48 4.67-67.56Z" class="cls-4" style="fill:#fff"/><path id="path2446" d="M260.25 199.18c-14.46 0-26.22-11.76-26.22-26.22s11.76-26.22 26.22-26.22 26.22 11.76 26.22 26.22-11.76 26.22-26.22 26.22Z" class="cls-2"/><path id="path2456" d="M200 7c26.06 0 51.33 5.1 75.12 15.16 22.98 9.72 43.62 23.64 61.35 41.36 17.73 17.73 31.64 38.37 41.36 61.35 10.06 23.79 15.16 49.06 15.16 75.12s-5.1 51.33-15.16 75.12c-9.72 22.98-23.64 43.62-41.36 61.35-17.73 17.73-38.37 31.64-61.35 41.36-23.79 10.06-49.06 15.16-75.12 15.16s-51.33-5.1-75.12-15.16c-22.98-9.72-43.62-23.64-61.35-41.36-17.73-17.73-31.64-38.37-41.36-61.35-10.06-23.79-15.16-49.06-15.16-75.12s5.1-51.33 15.16-75.12c9.72-22.98 23.64-43.62 41.36-61.35 17.73-17.73 38.37-31.64 61.35-41.36C148.67 12.1 173.94 7 200 7m0-7C89.54 0 0 89.54 0 200s89.54 200 200 200 200-89.54 200-200S310.46 0 200 0Z" class="cls-1"/></svg>