<svg width="40" height="40"
    xmlns="http://www.w3.org/2000/svg">
    <path d="m0 0-.04-.07" style="fill-opacity:1;stroke:#002c73;stroke-width:4;stroke-linecap:butt;stroke-linejoin:miter;stroke-miterlimit:10;stroke-dasharray:none;stroke-opacity:1" transform="matrix(.20487 0 0 -.20487 17.062 16.292)"/>
<g style="fill-opacity:1">
<path d="m0 0-.003 16.418c0 .783-.634 1.418-1.417 1.418h-31.181a1.417 1.417 0 0 1-1.417-1.418l.002-10.04z" style="fill-opacity:1;fill-rule:nonzero;stroke:none" transform="matrix(.20487 0 0 -.20487 31.712 14.574)"/>
</g>
<g style="fill-opacity:1">
<path d="M0 0a1.418 1.418 0 0 0-1.497-1.28l-14.692.891a1.418 1.418 0 0 0-1.301 1.708l2.407 11.378c.159.75.885 1.238 1.64 1.101l13.231-2.406A1.417 1.417 0 0 0 .945 9.863Zm-23.47 14.139-2.689-12.713A1.418 1.418 0 0 0-27.631.304l-19.505 1.182a.993.993 0 0 0-.822 1.445l7.349 14.275a2.124 2.124 0 0 0 2.27 1.118l13.736-2.497a1.417 1.417 0 0 0 1.133-1.688m72.653-3.963a1.417 1.417 0 0 1-1.129 1.084l-91.586 16.652a1.416 1.416 0 0 1-1.514-.746L-62.182-6.121l116.604-7.067Z" style="fill-opacity:1;fill-rule:nonzero;stroke:none" transform="matrix(.20487 0 0 -.20487 24 19)"/>
</g>
<g style="fill-opacity:1">
<path d="m0 0-182.648 11.07c-1.12.068-1.871-1.132-1.321-2.11l20.301-36.091a21.409 21.409 0 0 1 9.605 7.177c3.886-5.155 10.047-8.504 17.008-8.504 6.96 0 13.122 3.349 17.008 8.504 3.886-5.155 10.047-8.504 17.008-8.504 6.96 0 13.122 3.349 17.008 8.504 3.886-5.155 10.047-8.504 17.008-8.504 6.96 0 13.122 3.349 17.008 8.504 3.886-5.155 10.047-8.504 17.008-8.504 6.96 0 13.122 3.349 17.008 8.504a21.358 21.358 0 0 1 10.71-7.552L1.259-1.863A1.418 1.418 0 0 1 0 0" style="fill-opacity:1;fill-rule:nonzero;stroke:none" transform="matrix(.20487 0 0 -.20487 38.883 23.673)"/>
</g>
</svg>