<svg width="46" height="46" xmlns="http://www.w3.org/2000/svg"><path d="M0 0h-144.165c-22.811 0-41.303-18.492-41.303-41.303v-86.234a206.15 206.15 0 0 1 30.246-107.497l65.549-107.262c8.038-13.154 27.143-13.154 35.181 0l65.549 107.262a206.15 206.15 0 0 1 30.246 107.497v86.234C41.303-18.492 22.811 0 0 0" style="fill:#002c73;fill-opacity:1;fill-rule:nonzero;stroke:none" transform="matrix(.11358 0 0 -.11358 31.084 2.533)"/><path d="M0 0v53.858a2.835 2.835 0 0 1-2.835 2.835h-22.677a2.834 2.834 0 0 1-2.834-2.835V0h-9.449v127.559a2.834 2.834 0 0 1-2.835 2.834h-22.677a2.834 2.834 0 0 1-2.835-2.834V0h-9.448v104.882a2.834 2.834 0 0 1-2.835 2.834h-22.677a2.835 2.835 0 0 1-2.835-2.834V0h-9.448v65.197a2.835 2.835 0 0 1-2.835 2.835h-22.677a2.835 2.835 0 0 1-2.835-2.835V0h-19.843v-5.669H19.842V0Z" style="fill:#fff;fill-opacity:1;fill-rule:nonzero;stroke:none" transform="matrix(.11358 0 0 -.11358 30.946 22.495)"/></svg>