<svg xmlns="http://www.w3.org/2000/svg" id="Layer_1" version="1.1" viewBox="0 0 400 400"><defs id="defs873"><style id="style871">.cls-5{stroke:#000;stroke-miterlimit:10;stroke-width:3px;fill:#7a6251}</style></defs><circle id="circle875" cx="200" cy="200" r="200" style="fill:#072c73;fill-opacity:1;stroke-width:0"/><path id="path877" d="M160.2 211.23c-11.78-9.88-38.7-7.19-92.53-1.81-11.18 1.12-20.22 2.36-33.52.86-12.29-1.39-20.97-4.3-28.33-7.39.07.77.13 1.55.16 2.33.14 3.07-.23 6.26-.97 9.43 1.11 3.87 1.72 7.86 1.73 11.79.02 9.37.35 18.71 1.28 28.02 0 .02 0 .04.01.07 1.99 3.76 3.49 7.83 4.43 12.1 4.56 8.95 9.49 17.73 14.31 26.51 6.39 11.66 13.12 23.13 20.89 33.92 5.68 6.83 11.85 13.18 18.63 18.93 14.61 10.44 30.6 18.93 45.71 28.59 2.22 1.42 4.27 2.99 6.16 4.66 4.32.45 8.8 5 12.07 1.65-4.83-4.72-7.77-17.05-8.17-23.78-.15-2.55-.29-4.97-.41-7.29-.92-17.51 6.63-34.4 20.26-45.43 12.6-10.2 22.66-17.16 24.19-19.21 23.47-31.34 17.67-54.18-5.89-73.95Z" class="cls-5" style="fill:#fff"/><path id="path879" d="m305.85 180.5-12.23-.16c11.97-7.73 21.09-16.78 27.5-27.24 17.47-28.51 9.51-59.77 4.24-80.45-.74-2.92-1.45-5.68-2-8.13-1.2-5.3-6.61-8.55-11.9-7.03-4.88 1.4-7.68 6.56-6.55 11.51.6 2.62 1.31 5.4 2.05 8.33 2.4 9.43 5.25 20.62 5.76 32.18.11 2.53-.46 5.06-1.66 7.29-3.74 6.96-9.46 13.46-17.46 12.17-5.87-.95-10.34-5.81-11.27-11.68-1.32-8.27-3.25-15.86-4.89-22.32-.74-2.92-1.45-5.68-2-8.13-1.2-5.3-6.61-8.55-11.9-7.03-4.88 1.4-7.68 6.56-6.55 11.51.6 2.62 1.31 5.4 2.05 8.33 4.89 19.2 11.27 44.28-2.31 66.2-2.74 4.42-9.12 4.94-12.25.79-3.06-4.05-4.44-9.65-5.76-16.33-.26-1.32-.51-2.55-.76-3.68-1.28-5.67-7.39-9-13.02-6.63-4.26 1.79-6.44 6.53-5.45 11.05.2.91.39 1.89.6 2.94 1.16 5.87 2.88 14.53 7.89 22.19-6.05-4.85-13.5-7.74-21.27-7.74h-5.4c-7.51 0-14.73 2.7-20.67 7.25 4.77-7.54 6.45-15.96 7.59-21.71.21-1.05.4-2.03.6-2.94 1-4.51-1.18-9.25-5.45-11.05-5.63-2.37-11.74.96-13.02 6.63-.25 1.12-.5 2.36-.76 3.68-1.32 6.68-2.7 12.27-5.76 16.33-3.13 4.15-9.52 3.62-12.25-.79-13.58-21.92-7.2-47-2.31-66.2.75-2.94 1.46-5.71 2.05-8.33 1.13-4.95-1.67-10.11-6.55-11.51-5.29-1.52-10.7 1.73-11.9 7.03-.56 2.46-1.26 5.22-2 8.13-1.64 6.46-3.58 14.05-4.89 22.32-.93 5.87-5.41 10.73-11.27 11.68-8 1.29-13.72-5.21-17.46-12.17-1.2-2.23-1.77-4.76-1.66-7.29.51-11.56 3.36-22.75 5.76-32.18.75-2.94 1.45-5.71 2.05-8.33 1.13-4.95-1.67-10.11-6.55-11.51-5.29-1.52-10.7 1.73-11.9 7.03-.56 2.46-1.26 5.22-2 8.13-5.27 20.68-13.23 51.94 4.24 80.45 6.41 10.46 15.53 19.51 27.5 27.24l-12.23.16c-14.11.18-22.06 16.36-13.52 27.59.98 1.29 2.03 2.58 3.14 3.87.02.02.03.04.05.06.13.16.27.31.41.46.2.23.41.46.61.69.26.29.53.58.8.88.19.2.37.41.56.61.45.48.92.96 1.39 1.43.12.13.25.25.38.37.37.37.74.73 1.12 1.09.19.19.4.37.59.55.32.3.65.6.98.9.22.2.44.39.66.58.33.29.66.57 1 .86.23.19.45.38.68.57.36.3.72.59 1.08.88a69.255 69.255 0 0 0 2.01 1.54c.15.11.29.22.43.33.61.44 1.23.88 1.86 1.32.17.12.34.23.52.34.47.32.94.63 1.42.94.24.15.48.3.73.46.43.27.86.53 1.3.79.26.16.53.31.79.47.44.25.88.51 1.33.75.27.15.53.3.8.44.49.26.98.52 1.48.77.24.12.47.24.71.36.74.37 1.5.73 2.26 1.08.25.11.5.22.74.33.63.28 1.27.53 1.9.77.16.06.33.14.49.2 11.36 4.24 23.29 3.35 33.41-1.38-2.18 11.61.52 24.21 6.54 35.12a25.408 25.408 0 0 1 2.75 16.9c-.13.68-.24 1.37-.33 2.06-.57 4.25-1.59 8.42-3.22 12.3l-.42 1.01c-.88 2.1-1.96 4.07-3.13 5.98-9.83 15.99 1.7 45 9.8 61.47 3.49 7.1 11.05 11.21 18.91 10.38 12.07-1.29 25.45-1.22 37.36.04 7.91.84 15.5-3.3 18.99-10.45 8.1-16.6 19.62-45.91 9.51-61.94-1.21-1.92-2.33-3.9-3.26-6.01l-.28-.63c-1.68-3.82-2.72-7.93-3.29-12.14-.07-.53-.15-1.06-.24-1.58-1.01-5.85-.16-11.88 2.74-17.07 6.13-10.98 8.88-23.7 6.69-35.42 10.83 5.06 23.74 5.71 35.8.39.25-.11.5-.22.74-.33.77-.35 1.52-.71 2.26-1.08.24-.12.48-.24.71-.36.5-.25 1-.51 1.48-.77.27-.15.54-.29.8-.44.45-.25.89-.5 1.33-.75.27-.15.53-.31.79-.47.44-.26.87-.53 1.3-.79.24-.15.49-.3.73-.46.48-.31.95-.62 1.42-.94.17-.12.35-.23.52-.34.63-.43 1.25-.87 1.86-1.32.15-.11.29-.22.43-.33.46-.34.91-.69 1.36-1.03.22-.17.43-.34.65-.51.37-.29.73-.58 1.08-.88.23-.19.45-.38.68-.57.34-.29.67-.57 1-.86.22-.19.44-.39.66-.58.33-.3.66-.6.98-.9.2-.18.4-.37.59-.55.38-.36.75-.73 1.12-1.09.13-.12.26-.25.38-.37.47-.48.94-.95 1.39-1.43.19-.2.38-.41.56-.61.27-.29.54-.58.8-.88.21-.23.41-.46.61-.69.14-.16.28-.31.41-.46.02-.02.03-.04.05-.06 1.11-1.29 2.16-2.58 3.14-3.87 8.54-11.24.59-27.41-13.52-27.59Z" class="cls-5" style="fill:#fff"/><path id="path913" d="M200 7c26.06 0 51.33 5.1 75.12 15.16 22.98 9.72 43.62 23.64 61.35 41.36 17.73 17.73 31.64 38.37 41.36 61.35 10.06 23.79 15.16 49.06 15.16 75.12s-5.1 51.33-15.16 75.12c-9.72 22.98-23.64 43.62-41.36 61.35-17.73 17.73-38.37 31.64-61.35 41.36-23.79 10.06-49.06 15.16-75.12 15.16s-51.33-5.1-75.12-15.16c-22.98-9.72-43.62-23.64-61.35-41.36-17.73-17.73-31.64-38.37-41.36-61.35-10.06-23.79-15.16-49.06-15.16-75.12s5.1-51.33 15.16-75.12c9.72-22.98 23.64-43.62 41.36-61.35 17.73-17.73 38.37-31.64 61.35-41.36C148.67 12.1 173.94 7 200 7m0-7C89.54 0 0 89.54 0 200s89.54 200 200 200 200-89.54 200-200S310.46 0 200 0Z" style="stroke-width:0"/></svg>