<?xml version="1.0" encoding="utf-8"?>
<!-- Generator: Adobe Illustrator 25.0.1, SVG Export Plug-In . SVG Version: 6.00 Build 0)  -->
<svg version="1.1" xmlns="http://www.w3.org/2000/svg" xmlns:xlink="http://www.w3.org/1999/xlink" x="0px" y="0px"
	 viewBox="0 0 226.8 352.1" style="enable-background:new 0 0 226.8 352.1;" xml:space="preserve">
<style type="text/css">
	.st0{fill:#E94E1B;}
	.st1{fill:none;stroke:#FEFEFE;stroke-width:0.25;stroke-miterlimit:10;}
	.st2{fill:#FFFFFF;}
	.st3{fill:#00A7E1;}
	.st4{fill:#002C73;}
	.st5{fill:#FEFEFE;}
	.st6{fill:none;stroke:#002C73;stroke-width:4;stroke-miterlimit:10;}
	.st7{fill:none;stroke:#002C73;stroke-width:8;stroke-miterlimit:10;}
	.st8{fill:none;stroke:#FFFFFF;stroke-width:2;stroke-miterlimit:10;}
	.st9{fill:none;stroke:#FFFFFF;stroke-width:2;stroke-miterlimit:10;stroke-dasharray:6,8;}
	.st10{fill:#0075C9;stroke:#FFFFFF;stroke-linejoin:round;stroke-miterlimit:10;}
	.st11{fill:#0075C9;}
	.st12{fill:none;stroke:#FFFFFF;stroke-linejoin:round;stroke-miterlimit:10;}
	.st13{fill:none;stroke:#231F20;stroke-width:0.25;stroke-miterlimit:10;}
	.st14{fill:none;stroke:#002C73;stroke-width:7;stroke-miterlimit:10;}
	.st15{fill:none;stroke:#FFFFFF;stroke-width:4;stroke-miterlimit:10;}
	.st16{fill:none;stroke:#FFFFFF;stroke-width:4.1077;stroke-miterlimit:10;}
	.st17{fill:none;stroke:#FFFFFF;stroke-width:14;stroke-miterlimit:10;}
	.st18{fill:none;stroke:#FFFFFF;stroke-width:8.5;stroke-linecap:round;stroke-miterlimit:10;}
	.st19{fill:none;stroke:#FFFFFF;stroke-width:6.7936;stroke-miterlimit:10;}
	.st20{fill:#FFFFFF;stroke:#FFFFFF;stroke-width:4.8526;stroke-miterlimit:10;}
	.st21{fill:none;stroke:#FFFFFF;stroke-width:6.7936;stroke-linecap:round;stroke-miterlimit:10;}
	.st22{fill:#FFED00;}
</style>
<g id="Ruudukko">
</g>
<g id="Layer_1">
	<path class="st4" d="M185.5,0H41.3C18.5,0,0,18.5,0,41.3l0,86.2c0,37.9,10.5,75.1,30.2,107.5l65.5,107.3c8,13.2,27.1,13.2,35.2,0
		L196.5,235c19.8-32.4,30.2-69.6,30.2-107.5V41.3C226.8,18.5,208.3,0,185.5,0z"/>
	<g>
		<circle class="st2" cx="175.9" cy="170.5" r="16.8"/>
		<path class="st2" d="M200.6,146.6c-6.6-6.2-15.3-9.7-24.7-9.7c-17.1,0-31.4,11.7-34.3,27.1H94c-1.4,0-2.7-0.7-3.4-1.9l-27.1-42.9
			l8.4-68h22.4c3.4,0,6.2-2.6,6.2-5.9c0-3.3-2.8-5.9-6.2-5.9H67.2c-3.5,0-6.5,2.6-6.9,6.1L46.7,154.2c-7.9,2-13.5,9.6-12.5,18.3
			c0.9,7.7,7.1,13.9,14.8,14.7c10.2,1.1,18.8-6.8,18.8-16.7c0-6.4-3.5-11.9-8.7-14.8l2.1-17.3l20.9,33.2c1.6,2.6,4.5,4.2,7.6,4.2
			h58.8c2.8,0,5-2.2,5-5v-0.9c0-11.7,10.1-21.2,22.4-21.2c6,0,11.6,2.2,15.9,6.2c2.4,2.3,6.4,2.3,8.8,0
			C203,152.6,203,148.9,200.6,146.6z"/>
	</g>
</g>
</svg>
