<?xml version="1.0" encoding="UTF-8"?><svg id="Layer_1" xmlns="http://www.w3.org/2000/svg" viewBox="0 0 400 400"><defs><style>.cls-1{fill:#a5897e;}.cls-1,.cls-2{stroke:#000;stroke-miterlimit:10;stroke-width:3px;}.cls-3,.cls-4{stroke-width:0px;}.cls-4{fill:#fff;}</style></defs><circle class="cls-4" cx="200" cy="200" r="200"/><path class="cls-1" d="M256.43,182.02c-2.21-4.44-3.82-9.18-4.51-14.1-1.15-8.28-4.69-15.89-9.85-22.25,30.02-10.55,45.78-44.84,32.5-74.95-.14-.32-.28-.64-.43-.95-6.48-14.27-15.54-25.06-24.87-33.13-.04-.03-.08-.07-.11-.1,0,0-.01,0-.02-.02,0,0,0,0,0,0,0,0,0,0,0,0,0,0,0,0,0,0-1.67-1.44-3.35-2.79-5.02-4.07-14.4-10.95-35.13-.76-35.36,17.33l-.98,77.31c-1.61-.16-3.24-.26-4.88-.26h-7.56c-1.49,0-2.98.07-4.45.21l-.98-77.26c-.23-18.09-20.96-28.27-35.36-17.33-1.67,1.27-3.35,2.63-5.02,4.07,0,0,0,0,0,0,0,0,0,0,0,0,0,0,0,0,0,0,0,0-.01,0-.02.02-.04.03-.08.07-.11.1-9.33,8.07-18.39,18.85-24.87,33.13-.14.32-.29.64-.43.95-13.23,30,2.37,64.16,32.17,74.84-5.24,6.42-8.82,14.11-9.96,22.49-.67,4.92-2.25,9.66-4.38,14.14l-.13.27c-1.2,2.53-2.65,4.93-4.24,7.23-18.04,26.02-6.12,62.47,19.21,83.32,1.21,5.89,3.62,11.33,6.95,16.09.33,4.69.59,9.47.76,14.35.02.56.04,1.12.06,1.66,1.03,32.21-17,60.46-43.76,74.24,12.98,4.74,26.6,7.5,39.56,12.34,1.11.41,2.18.85,3.22,1.31,26.89,2.17,53.88.27,80.85-.3-1.73-15.51-3.88-30.97-6.42-46.38-1.53-9.27-2.23-21.45-1.66-41.72.18-6.55.5-12.94.92-19.19,2.13-3.8,3.71-7.95,4.62-12.35,25.62-21.05,37.45-58.05,18.73-84.13-1.57-2.19-2.99-4.49-4.2-6.9Z"/><path class="cls-3" d="M210.91,278.44h-23.12c-3.33,0-6.03,2.7-6.03,6.03s2.7,6.03,6.03,6.03c.21,0,.42-.01.62-.03,1.56,4.55,5.86,7.82,10.94,7.82h0c5.07,0,9.38-3.27,10.94-7.82.2.02.41.03.62.03,3.33,0,6.03-2.7,6.03-6.03s-2.7-6.03-6.03-6.03Z"/><path class="cls-3" d="M150.89,209.03c-3.74,0-6.79-3.04-6.79-6.79s3.04-6.79,6.79-6.79,6.79,3.04,6.79,6.79-3.04,6.79-6.79,6.79Z"/><path class="cls-3" d="M150.89,196.96c2.92,0,5.29,2.37,5.29,5.29s-2.37,5.29-5.29,5.29-5.29-2.37-5.29-5.29,2.37-5.29,5.29-5.29M150.89,193.96c-4.57,0-8.29,3.72-8.29,8.29s3.72,8.29,8.29,8.29,8.29-3.72,8.29-8.29-3.72-8.29-8.29-8.29h0Z"/><path class="cls-3" d="M182.82,237.08c-3.74,0-6.79-3.04-6.79-6.79s3.04-6.79,6.79-6.79,6.79,3.04,6.79,6.79-3.04,6.79-6.79,6.79Z"/><path class="cls-3" d="M182.82,225c2.92,0,5.29,2.37,5.29,5.29s-2.37,5.29-5.29,5.29-5.29-2.37-5.29-5.29,2.37-5.29,5.29-5.29M182.82,222c-4.57,0-8.29,3.72-8.29,8.29s3.72,8.29,8.29,8.29,8.29-3.72,8.29-8.29-3.72-8.29-8.29-8.29h0Z"/><path class="cls-4" d="M167.35,235.18c-10.95,0-19.86-8.91-19.86-19.86s8.91-19.86,19.86-19.86,19.86,8.91,19.86,19.86-8.91,19.86-19.86,19.86Z"/><path class="cls-3" d="M167.35,196.96c10.14,0,18.36,8.22,18.36,18.36s-8.22,18.36-18.36,18.36-18.36-8.22-18.36-18.36,8.22-18.36,18.36-18.36M167.35,193.96c-11.78,0-21.36,9.58-21.36,21.36s9.58,21.36,21.36,21.36,21.36-9.58,21.36-21.36-9.58-21.36-21.36-21.36h0Z"/><circle class="cls-2" cx="167.35" cy="215.32" r="11.17"/><path class="cls-3" d="M247.81,208.08c-3.74,0-6.79-3.04-6.79-6.79s3.04-6.79,6.79-6.79,6.79,3.04,6.79,6.79-3.04,6.79-6.79,6.79Z"/><path class="cls-3" d="M247.81,196.01c2.92,0,5.29,2.37,5.29,5.29s-2.37,5.29-5.29,5.29-5.29-2.37-5.29-5.29,2.37-5.29,5.29-5.29M247.81,193.01c-4.57,0-8.29,3.72-8.29,8.29s3.72,8.29,8.29,8.29,8.29-3.72,8.29-8.29-3.72-8.29-8.29-8.29h0Z"/><path class="cls-3" d="M215.89,236.13c-3.74,0-6.79-3.04-6.79-6.79s3.04-6.79,6.79-6.79,6.79,3.04,6.79,6.79-3.04,6.79-6.79,6.79Z"/><path class="cls-3" d="M215.89,224.06c2.92,0,5.29,2.37,5.29,5.29s-2.37,5.29-5.29,5.29-5.29-2.37-5.29-5.29,2.37-5.29,5.29-5.29M215.89,221.06c-4.57,0-8.29,3.72-8.29,8.29s3.72,8.29,8.29,8.29,8.29-3.72,8.29-8.29-3.72-8.29-8.29-8.29h0Z"/><path class="cls-4" d="M231.36,234.23c-10.95,0-19.86-8.91-19.86-19.86s8.91-19.86,19.86-19.86,19.86,8.91,19.86,19.86-8.91,19.86-19.86,19.86Z"/><path class="cls-3" d="M231.36,196.01c10.14,0,18.36,8.22,18.36,18.36s-8.22,18.36-18.36,18.36-18.36-8.22-18.36-18.36,8.22-18.36,18.36-18.36M231.36,193.01c-11.78,0-21.36,9.58-21.36,21.36s9.58,21.36,21.36,21.36,21.36-9.58,21.36-21.36-9.58-21.36-21.36-21.36h0Z"/><circle class="cls-2" cx="231.36" cy="214.37" r="11.17"/><path class="cls-3" d="M200,7c26.06,0,51.33,5.1,75.12,15.16,22.98,9.72,43.62,23.64,61.35,41.36,17.73,17.73,31.64,38.37,41.36,61.35,10.06,23.79,15.16,49.06,15.16,75.12s-5.1,51.33-15.16,75.12c-9.72,22.98-23.64,43.62-41.36,61.35-17.73,17.73-38.37,31.64-61.35,41.36-23.79,10.06-49.06,15.16-75.12,15.16s-51.33-5.1-75.12-15.16c-22.98-9.72-43.62-23.64-61.35-41.36-17.73-17.73-31.64-38.37-41.36-61.35-10.06-23.79-15.16-49.06-15.16-75.12s5.1-51.33,15.16-75.12c9.72-22.98,23.64-43.62,41.36-61.35,17.73-17.73,38.37-31.64,61.35-41.36,23.79-10.06,49.06-15.16,75.12-15.16M200,0C89.54,0,0,89.54,0,200s89.54,200,200,200,200-89.54,200-200S310.46,0,200,0h0Z"/></svg>