<svg width="40" height="40" xmlns="http://www.w3.org/2000/svg"><path class="cls-2" d="M30.996 21.503a6.92 6.92 0 0 0-3.665.864l-2.667-3.682.457-2.068.713.196a2.193 2.193 0 0 0 2.76-2.125.569.569 0 0 0-.573-.565h-6.789a.905.905 0 0 0-.913.735.885.885 0 0 0 .753 1.024l1.225.166c.4.055.8.124 1.196.196l-.535 2.423a.612.612 0 0 0-.02.086L22 23l-10.569-5.044a3.59 3.59 0 0 0-.492-1.945l-.436-.744a.278.278 0 0 1 .24-.409h1.954a1.661 1.661 0 0 0 1.664-1.66H10.8a1.991 1.991 0 0 0-1.7.91 1.925 1.925 0 0 0-.03 2.009l.438.745a1.935 1.935 0 0 1 .227 1.368l-.663 3.308a7.004 7.004 0 0 0-.54-.023 6.924 6.924 0 1 0 2.17.348l.34-1.695 8.341 8.496a2.187 2.187 0 0 0-.185.883 2.214 2.214 0 0 0 2.179 2.214 1.733 1.733 0 0 0 .562-.057l2.371-.574a6.926 6.926 0 1 0 6.686-9.627Zm-17.198 6.918a5.263 5.263 0 1 1-5.263-5.263h.209l-.88 4.378a1.106 1.106 0 1 0 1.63.326l.88-4.377a5.277 5.277 0 0 1 3.422 4.936zm15.068-1.108h-3.323a5.243 5.243 0 0 1 1.421-2.609zm-2.88-3.97a6.914 6.914 0 0 0-2.13 3.97h-1.102l1.429-6.45zm-4.348 1.32-.586 2.683a2.203 2.203 0 0 0-.479.135l-6.144-6.254zm9.055 9.021a5.277 5.277 0 0 1-4.737-2.97l4.997-1.214a.113.113 0 0 0 .027 0 1.108 1.108 0 0 0-.043-2.15l-2.619-3.613a5.261 5.261 0 1 1 2.375 9.967z" style="stroke-width:.195431"/></svg>