<svg xmlns="http://www.w3.org/2000/svg" viewBox="0 0 226.77 352.15"><defs><style>.cls-1{fill:#002c73;}.cls-2{fill:#fff;}</style></defs><g id="Layer_1" data-name="Layer 1"><path class="cls-1" d="M185.47,0H41.3A41.31,41.31,0,0,0,0,41.3v86.23A206.18,206.18,0,0,0,30.25,235L95.79,342.29a20.63,20.63,0,0,0,35.19,0L196.53,235a206.17,206.17,0,0,0,30.24-107.5V41.3A41.31,41.31,0,0,0,185.47,0Z"/><path class="cls-2" d="M97.82,75.9a1.42,1.42,0,0,0-1.2-2.19H72a2.86,2.86,0,0,1-2.46-1.41L61.31,58.12a2.81,2.81,0,0,1,0-2.83l8.18-14.18A2.86,2.86,0,0,1,72,39.7H96.62a1.42,1.42,0,0,0,1.2-2.19A35.43,35.43,0,0,0,35.76,42.1a5.63,5.63,0,0,1-5.13,3.27H0V68H30.63a5.63,5.63,0,0,1,5.13,3.27A35.43,35.43,0,0,0,97.82,75.9Z"/><path class="cls-2" d="M198.85,120.51a3.17,3.17,0,0,0-1.72.5l-8.24,5.17-4.31-5.94,2.34-10.58,0,0,3.65,1a11.22,11.22,0,0,0,14.12-10.87,2.91,2.91,0,0,0-2.92-2.89H167a4.64,4.64,0,0,0-4.64,3.78,4.53,4.53,0,0,0,3.85,5.23l6.28.86q3.07.42,6.12,1l-2.75,12.4c0,.15-.07.29-.09.45L171,142.31l-54.12-25.79a18.5,18.5,0,0,0-2.5-10l-2.24-3.81a1.37,1.37,0,0,1,0-1.42,1.35,1.35,0,0,1,1.23-.71h10a8.51,8.51,0,0,0,8.5-8.51H113.64A10.19,10.19,0,0,0,105,96.77a9.81,9.81,0,0,0-.15,10.28l2.23,3.81a9.92,9.92,0,0,1,1.17,7l-3.4,16.92c-.91-.07-1.83-.12-2.75-.12a35.43,35.43,0,1,0,11.09,1.78l1.74-8.66,42.68,43.47a11.33,11.33,0,0,0,10.21,15.85,9.18,9.18,0,0,0,2.88-.29l12.12-2.95a35.46,35.46,0,0,0,28.78,21.43c1.11-2.74,2.18-5.5,3.17-8.29a27,27,0,0,1-23.53-15.18l25.58-6.21.13,0a5.67,5.67,0,0,0-.22-11l-13.4-18.49a26.82,26.82,0,0,1,22.72-.74c.26-2.94.44-5.9.57-8.86a34.64,34.64,0,0,0-9.58-1.78,35.18,35.18,0,0,0-18.75,4.42l-4.36-6,5.7-3.57a3.16,3.16,0,0,1,1.71-.5h25.47c0-.49,0-1,0-1.48v-7ZM129,170.07a26.93,26.93,0,1,1-26.93-26.93l1.06,0-4.5,22.4a5.67,5.67,0,1,0,9.11,4.51,5.59,5.59,0,0,0-.77-2.84l4.5-22.4A27,27,0,0,1,129,170.07Zm37.09-5.5a11,11,0,0,0-2.44.69l-31.44-32,36.92,17.6Zm14.39-.17h-5.64l7.31-33.05,9.22,12.73A35.39,35.39,0,0,0,180.46,164.4ZM196.39,151l9.68,13.36h-17A27,27,0,0,1,196.39,151Z"/></g></svg>