<svg xmlns="http://www.w3.org/2000/svg" xml:space="preserve" style="enable-background:new 0 0 208.1 187.7" viewBox="0 0 208.1 187.7"><style>.st0{fill:#002c73}.st1{fill:#fefefe}.st2{fill:#fff}.st3,.st4,.st5,.st6,.st7,.st8,.st9{fill:none;stroke:#002c73;stroke-width:4;stroke-miterlimit:10}.st4,.st5,.st6,.st7,.st8,.st9{stroke:#231f20;stroke-width:.25}.st5,.st6,.st7,.st8,.st9{stroke:#002c73;stroke-width:7}.st6,.st7,.st8,.st9{stroke:#fff;stroke-width:4}.st7,.st8,.st9{stroke-width:4.1077}.st8,.st9{stroke-width:14}.st9{stroke-width:8.5;stroke-linecap:round}.st10{fill:#ffbe2e}.st11{fill:none;stroke-width:6.7936}.st11,.st12,.st13{stroke:#fff;stroke-miterlimit:10}.st12{fill:#fff;stroke-width:4.8526}.st13{stroke-width:6.7936;stroke-linecap:round}.st13,.st14{fill:none}.st15{fill:#ff6b00}.st16{fill:#fcfdff}.st17{fill:#ec0}.st18{fill:#e30613}.st19{fill:#ff6400}.st20{fill:#2c2c2c}.st21{stroke:#ff6400;stroke-width:10.2545;stroke-linecap:round}.st21,.st22,.st23,.st24{fill:none;stroke-miterlimit:10}.st22{stroke:#2b2b2b;stroke-width:10.2545;stroke-linecap:round}.st23,.st24{stroke:#fff;stroke-width:8}.st24{fill:#002c73}.st25,.st26,.st27{clip-path:url(#SVGID_00000016043256908489910290000014785909101244755585_);fill:#002c73}.st26,.st27{fill:#fff}.st27{fill:#ff6b00}.st28{fill:none;stroke:#fff;stroke-width:5.5}.st28,.st29,.st30{stroke-miterlimit:10}.st29{fill:none;stroke:#fff;stroke-width:8;stroke-linecap:round;stroke-linejoin:round;stroke-dasharray:1.6319,19.5829}.st30{stroke-width:12}.st30,.st31,.st32,.st33{fill:none;stroke:#fff}.st31{stroke-width:10;stroke-miterlimit:10}.st32,.st33{stroke-width:7.7654;stroke-linejoin:round}.st32{stroke-miterlimit:10}.st33{stroke-linecap:round}.st33,.st34,.st35{stroke-miterlimit:10}.st34{fill:#fff;stroke:#fff;stroke-width:7.7654;stroke-linecap:round;stroke-linejoin:round}.st35{fill:none;stroke:#000;stroke-width:7}</style><g id="Layer_1"><path d="M126.8 169.2h7.1c13.7 0 27.3-.6 41-1.9v13.5c0 2.3 1.9 4.2 4.2 4.2h14.1c2.3 0 4.2-1.9 4.2-4.2v-15.6l3.4-.3c2.9-.3 5.1-2.7 5.1-5.6V113c0-19.8-1.1-39.6-3.3-59.3L199 20.5c-.9-8-7.2-14.2-15.2-15l-.6-.1c-18.7-1.9-37.6-2.8-56.4-2.8V14h28.7c1.3 0 2.4 1.1 2.4 2.4v3.7c0 1.3-1.1 2.4-2.4 2.4h-28.7v9.9h57.5c2.9 0 5.3 2.2 5.6 5.1l2.7 25.7c1.4 13.4 2.1 26.9 2.1 40.4 0 2.9-2.3 5.4-5.2 5.6l-16.3 1.3c-12.1 1-24.1 1.5-36.2 1.5h-10.1v57.2zm43.8-29.4c0-5.5 4.4-9.9 9.9-9.9s9.9 4.4 9.9 9.9-4.4 9.9-9.9 9.9c-5.4 0-9.9-4.4-9.9-9.9zM24.8 60.1v65.3c0 5.6 1.7 11.1 4.8 15.7l5.2 7.8c2.6 3.9 7.1 6.3 11.8 6.3h8c.8 0 1.4.6 1.4 1.4v8.5c0 1.6 1.3 2.8 2.8 2.8h34v-56.7H64.2c-3.2 0-6-2.1-6.8-5.2L43.8 56c-1-3.6 1.7-7.2 5.5-7.2h43.6V2.6c-8.9 0-17.7.1-26.6.4-9.9.3-18.9 5.8-23.8 14.4L30.2 39.3c-3.6 6.3-5.4 13.5-5.4 20.8zM38.9 134c0-4.7 3.8-8.5 8.5-8.5s8.5 3.8 8.5 8.5-3.8 8.5-8.5 8.5-8.5-3.8-8.5-8.5zM3.5 176.5h32.6v-9.7c0-.9.7-1.6 1.6-1.6h8.1c.9 0 1.6.7 1.6 1.6v9.7h45.4v8.5H3.5c-.8 0-1.4-.6-1.4-1.4V178c0-.8.6-1.5 1.4-1.5zM106.3 2.6h7V185h-7z"/></g></svg>