<?xml version="1.0" encoding="UTF-8"?>
<svg id="Layer_1" data-name="Layer 1" xmlns="http://www.w3.org/2000/svg" viewBox="0 0 226.77 352.15">
  <defs>
    <style>
      .icecrossed-1 {
        fill: #fff;
      }

      .icecrossed-2 {
        fill: #ff6b00;
      }

      .icecrossed-3 {
        fill: #002c73;
      }
    </style>
  </defs>
  <path class="icecrossed-3" d="M185.47,0H41.3C18.49,0,0,18.49,0,41.3v86.23c0,37.93,10.47,75.13,30.25,107.5l65.55,107.26c8.04,13.15,27.14,13.15,35.18,0l65.55-107.26c19.78-32.37,30.25-69.56,30.25-107.5V41.3c0-22.81-18.49-41.3-41.3-41.3Z"/>
  <g>
    <path class="icecrossed-1" d="M189.88,145.06v5.24c0,2.36-1.71,4.29-3.86,4.39l-28.31-.19c-9.21-.06-18.39-1.2-27.33-3.46-.06-.02-.13-.03-.19-.05-9.72-2.47-19.8-5.86-35.03-8.08l.34,7.74c0,2.13-1.59,3.86-3.55,3.86h-24.37c-1.96,0-3.54-1.73-3.54-3.86l.05-23.91c27.88,1.14,46.43,10.99,58.09,13.98,13.61,3.48,27.42,5.51,41.34,5.51,2.42,0,4.84-.06,7.27-.19l19.08-.99Z"/>
    <path class="icecrossed-1" d="M183.59,115.43c-7.39-3.34-21.64-6.64-34.39-12.07-14.01-5.97-24.22-19.35-27.06-35.43-1.39-7.87-2.41-17.65-1.98-28.57.16-4.17-2.97-7.58-6.8-7.44-10,.37-27.99,2.36-39.12,11.28-2.48,1.99-3.9,5.17-3.9,8.52v17.76c0,6.65-1.12,13.26-3.38,19.45-3.2,8.72-6.91,16.63-2.86,32.97h.2c21.15.87,37.03,6.55,48.62,10.68,4.06,1.45,7.56,2.7,10.47,3.45,13.69,3.51,27,5.31,39.56,5.36h.21c1.33,0,2.67-.02,4-.05.55,0,1.1-.03,1.65-.05.29,0,.58-.02.87-.03.56-.02,1.13-.05,1.69-.08l18.51-.96s0,0,0,0c.16-.5,6.12-19.15-6.29-24.77ZM104.09,60.67c0-3,2.44-5.44,5.44-5.44s5.44,2.44,5.44,5.44-2.44,5.44-5.44,5.44-5.44-2.44-5.44-5.44ZM113.52,88.05c-3,0-5.44-2.44-5.44-5.44s2.44-5.44,5.44-5.44,5.44,2.44,5.44,5.44-2.44,5.44-5.44,5.44ZM125.81,105.77c-3,0-5.44-2.44-5.44-5.44s2.44-5.44,5.44-5.44,5.44,2.44,5.44,5.44-2.44,5.44-5.44,5.44ZM146.35,118.45c-3,0-5.44-2.44-5.44-5.44s2.44-5.44,5.44-5.44,5.44,2.44,5.44,5.44-2.44,5.44-5.44,5.44Z"/>
    <path class="icecrossed-1" d="M183.82,154.68l-6.38-.79,2.85,7.3c1.7,4.34-1.5,9.02-6.16,9.03-4.04,0-9.13,0-14.86,0-6.42-.94-14.25-4.85-12.07-18.78h-10.23s7.45,18.46-17.9,18.68c-1.71.02-3.07.05-4.13.11h-2.54c-31.8,0-25.02-16.35-25.02-16.35h-16.23s6.48,16.29-19.41,16.29c-1.2,0-2.16,1.02-2.16,2.22v3.17c0,1.23,1,2.22,2.22,2.22h128.78s7.99.44,9.31-7.59c1.32-8.03-6.06-15.52-6.06-15.52Z"/>
  </g>
  <path class="icecrossed-2" d="M210.19,8.21L14.62,203.78c1.5,3.76,3.11,7.48,4.83,11.16L218.23,16.16c-2.31-3-5.01-5.68-8.04-7.95Z"/>
</svg>