<svg width="50" height="50" xmlns="http://www.w3.org/2000/svg"><g style="fill:#6cc24a;fill-opacity:1"><path d="M0 0c0 78.276-63.456 141.732-141.732 141.732-78.277 0-141.733-63.456-141.733-141.732 0-78.277 63.456-141.732 141.733-141.732C-63.456-141.732 0-78.277 0 0" style="fill:#6cc24a;fill-opacity:1;fill-rule:nonzero;stroke:none" transform="matrix(.16933 0 0 -.16933 50 25)"/></g><path d="m4.933 28.581 1.456-4.488c.758-2.35 2.214-3.2 4.609-3.2h2.684L13 23h-1.788c-.865 0-1.364.347-1.623 1.121l-1.44 4.457H4.933ZM12.801 31.462l2.956-3.519-1.547-7.05h3.244l.486 2.502c.167.878.259 1.472.272 1.94h.075c.304-.471.834-1.062 1.592-1.94l2.139-2.502h3.594l-9.128 10.569zM26.885 28.581c-2.138 0-3.215-.818-3.215-2.35 0-1.244.574-2.621 1.424-3.594 1.001-1.137 2.442-1.744 4.305-1.744h3.152l.945-2.88h3.215l-2.334 7.173c-.682 2.106-2.394 3.395-4.883 3.395zM31.8 23.26a6.169 6.169 0 0 1-.85.044h-1.608c-1.045 0-1.7.515-2.062 1.093-.196.32-.38.727-.38 1.137 0 .44.335.638 1.198.638h1.5c.85 0 1.396-.455 1.592-1.061zM37.74 28.581c-1.879 0-2.788-.47-2.788-1.835 0-.53.136-1.197.41-2.015.942-2.912 2.063-3.838 4.823-3.838h3.595c1.532 0 2.154.515 2.154 1.409 0 .272-.06.59-.167.941-.515 1.56-1.425 2.274-2.761 2.274H38.23c-.044.228-.075.411-.075.547 0 .395.211.499.742.499h5.398l-.651 2.015h-5.903zm2.853-5.793c-.954 0-1.548.348-1.851 1.153h2.865c.53 0 .878-.211 1.03-.65a.831.831 0 0 0 .06-.288c0-.151-.092-.211-.304-.211h-1.8z" style="stroke-width:.315852"/></svg>