<svg xmlns="http://www.w3.org/2000/svg" viewBox="0 0 226.77 352.16"><defs><style>.cls-1{fill:#002c73;}.cls-2{fill:#fefefe;}</style></defs><g id="Layer_2" data-name="Layer 2"><g id="Layer_1-2" data-name="Layer 1"><path class="cls-1" d="M185.47,0H41.3A41.3,41.3,0,0,0,0,41.3v86.24A206.12,206.12,0,0,0,30.25,235L95.79,342.3a20.63,20.63,0,0,0,35.19,0L196.53,235a206.11,206.11,0,0,0,30.24-107.49V41.3A41.3,41.3,0,0,0,185.47,0Z"/><path class="cls-2" d="M184.51,167.13a39.24,39.24,0,0,0-14.67-14.93l-6.56-3.78a1.41,1.41,0,0,0-1.93.52l-5,8.59-23.16-13.37V99.56a28.13,28.13,0,0,0-1.46-9l-2.42-7.28a2.87,2.87,0,0,1,.15-2.17l1.12-2.23c4.42.85,9.36-.77,13.1-4l1,1h0l2.56,2.56.18-.18a1.41,1.41,0,0,0,.17-1.79l-1.41-2.12c5.54-6,5.38-13.84-.52-19.73-6.06-6.07-14.21-6.08-20.26,0l-1,1,1,1C122,60.93,120.36,66.6,122,71.37l-2.14,1.71a2.85,2.85,0,0,1-1.77.62H88.76a14.19,14.19,0,0,0-10.8,5L59.43,100.5a2.82,2.82,0,0,0-.27,3.29l.51.85-.85,1.47a1.42,1.42,0,0,0,.52,1.94L74.75,117l-5.23,7.16a2.12,2.12,0,0,0,.76,3.16l.59.29L68.08,161a2.83,2.83,0,0,1-.29,1L53.41,190.82h0l-3.8,7.6,8.5,4.26h0L68,207.62l.73-1.47a2.84,2.84,0,0,0-.94-3.61l-5-3.43-1.39-1.23L80.7,169.46a14.18,14.18,0,0,0,2.1-4.83l6.49-28.57h.58a1.4,1.4,0,0,1,1.24.74l14.86,27a2.68,2.68,0,0,1,.35,1.26l1.4,39h20.55v-1.63a2.84,2.84,0,0,0-2.45-2.81l-6-.83-3-.79,3.33-33.34a14.07,14.07,0,0,0-.72-6.07l-6.9-19.86,41,23.68-5,8.59a1.42,1.42,0,0,0,.52,1.94l6.55,3.78A39.25,39.25,0,0,0,175.92,182h0a10,10,0,0,0,8.51-5h0A10,10,0,0,0,184.51,167.13ZM66.4,105.57l19.25-17a2.89,2.89,0,0,1,1.88-.71h6A1.42,1.42,0,0,1,95,89.29l-16.84,23ZM109.5,130a2.79,2.79,0,0,1,.08-2.07l9.48-21.66h.14a1.42,1.42,0,0,1,1.41,1.26L124,138.81l-14.27-8.24Z"/></g></g></svg>