<svg xmlns="http://www.w3.org/2000/svg" id="Layer_1" version="1.1" viewBox="0 0 400 400"><defs id="defs1896"><style id="style1894">.cls-4{stroke:#000;stroke-miterlimit:10;stroke-width:3px;fill:#ce4b16}</style></defs><circle id="circle1898" cx="200" cy="200" r="200" style="fill:#072c73;fill-opacity:1;stroke-width:0"/><path id="path1900" d="M250.15 303.33c-.01-.04-.02-.08-.03-.11-.54-2.09-1.14-4.08-1.81-5.98-5.51-18.7-10.47-41.23-7.29-74.38a219.25 219.25 0 0 1 9.13-44.93h-73.97c-.81 9.46-1.74 18.92-2.75 28.38-51.16 33.28-91.93 38.85-120.54 37.3-15-.81-30.04-3.77-46.77-7.8 1.18 2.39 2.13 4.86 2.76 7.35 2.64 10.44 5.88 20.69 9.79 30.72 6.26 13.77 13.83 26.85 22.72 39.09 11.44 14.03 24.47 26.6 38.59 37.93 20 14.81 41.52 27.46 63.99 38.15 1.75.83 3.51 1.65 5.26 2.46 1.09.28 2.17.58 3.25.91 1.66.51 3.31 1.02 4.96 1.5 3.64-.27 7.21-.11 10.66.44 1.67-.21 3.33-.32 4.99-.32 3.97 0 7.78.53 11.37 1.51 27.19-7.74 52.93-21.65 63.17-45.49 6.54-15.22 6.06-32.85 2.52-46.71Z" class="cls-4" style="fill:#fff"/><path id="path1902" d="M344.5 182.04c-58.35-53.01-57.73-140.76-138.43-140.88s-.05 0-.08 0h-.08c-80.7.12-80.08 87.87-138.43 140.89-6.94 6.3-16.02 9.73-25.4 9.73 0 11.32 9.18 20.5 20.5 20.5s20.43-9.11 20.5-20.37h.05c.65 10.73 9.56 19.23 20.46 19.23s19.8-8.5 20.46-19.23h.09c.65 10.73 9.56 19.23 20.46 19.23 10.02 0 18.33-7.19 20.12-16.69 1.31 21.58 19.21 38.67 41.11 38.67 22.61 0 40.96-18.22 41.19-40.78.87 10.52 9.66 18.79 20.41 18.79s19.8-8.5 20.46-19.23h.09c.65 10.73 9.56 19.23 20.46 19.23s19.8-8.5 20.46-19.23h.05c.07 11.26 9.22 20.37 20.5 20.37s20.5-9.18 20.5-20.5c-9.38 0-18.46-3.43-25.4-9.73Z" class="cls-4" style="fill:#fff"/><path id="path1934" d="M200 7c26.06 0 51.33 5.1 75.12 15.16 22.98 9.72 43.62 23.64 61.35 41.36 17.73 17.73 31.64 38.37 41.36 61.35 10.06 23.79 15.16 49.06 15.16 75.12s-5.1 51.33-15.16 75.12c-9.72 22.98-23.64 43.62-41.36 61.35-17.73 17.73-38.37 31.64-61.35 41.36-23.79 10.06-49.06 15.16-75.12 15.16s-51.33-5.1-75.12-15.16c-22.98-9.72-43.62-23.64-61.35-41.36-17.73-17.73-31.64-38.37-41.36-61.35-10.06-23.79-15.16-49.06-15.16-75.12s5.1-51.33 15.16-75.12c9.72-22.98 23.64-43.62 41.36-61.35 17.73-17.73 38.37-31.64 61.35-41.36C148.67 12.1 173.94 7 200 7m0-7C89.54 0 0 89.54 0 200s89.54 200 200 200 200-89.54 200-200S310.46 0 200 0Z" style="stroke-width:0"/></svg>