<?xml version="1.0" encoding="UTF-8"?><svg id="Layer_1" xmlns="http://www.w3.org/2000/svg" viewBox="0 0 400 400"><defs><style>.cls-1{fill:none;stroke-linejoin:round;stroke-width:3.39px;}.cls-1,.cls-2,.cls-3{stroke:#000;}.cls-4,.cls-5{stroke-width:0px;}.cls-5{fill:#fff;}.cls-2{fill:#ce4b16;}.cls-2,.cls-3{stroke-miterlimit:10;stroke-width:3px;}.cls-3{fill:#b2af9e;}</style></defs><circle class="cls-5" cx="200" cy="200" r="200"/><path class="cls-3" d="M240.85,310.58c-.35-27.79-.5-56.32-21.65-74.19-22.62-19.11-45.39,12.38-66.61,21.18-22.92,9.51-48.57,26.57-68.79,30.45-24.37,4.68-43.33,3.36-59.94,1.23,1.34,1.65,2.54,3.38,3.57,5.18,2.84,4.94,4.73,10.3,7.45,15.27,2.07,2.08,4.22,4.08,6.23,6.21,7.54,7.97,12.81,17.69,20.67,25.28,5.54,5.35,11.09,10.72,17.21,15.39,6.06,4.64,12.69,8.4,18.98,12.68,6.12,4.16,12.92,8.72,19.86,11.38,14.7,5.62,29.86,10.14,45.32,13.14,7.85,1.52,15.78,2.65,23.75,3.3,7.2.59,16.44,2.03,23.5.31.02-.15-.29-1.38-.5-1.24,4.22-2.82,8.23-6.02,11.77-9.69,19.88-20.65,19.5-50.82,19.19-75.86Z"/><path class="cls-2" d="M253.77,337.51c2.35-17.79,13.02-21.52,10.18-31.08-2.72-9.15-14.98-14.12-21.74-16.86-5.19-2.11-9.84-3.07-13.22-3.55l-90.1-65.8c-4.17-3.05-9.42-4.35-14.5-3.37-2.51.49-4.88,1.49-6.73,3.3-6.19,6.04-1.31,15.79-5.89,26.26-1.76,4.03-5.18,8.73-12.26,12.96-6.56,3.92-10.11,11.41-9.02,18.97.13.87.27,1.76.42,2.66-15.08,2.73-30.89,5.17-47.39,7.21-6.37.79-12.64,1.48-18.82,2.1,3.32,4.37,4.58,9.65,7.6,14.27s6.85,8.86,10.48,13.12c4.25,4.98,8.32,10.11,12.18,15.4,2.29,3.14,5.9,11.27,10.72,8.35,3.29-1.99,6.4-4.37,9.55-6.56,6.73-4.68,15.98-11.07,27.55-18.96.33.62.67,1.23,1.02,1.85,22.59,39.75,78.43,62.49,120.99,56.77,7.47-1,23.32-3.34,28.47-13.98,3.35-6.94-1.1-10.64.54-23.04Z"/><path class="cls-3" d="M193.44,53.99c-.24-24.91-21.93-38.93-37-23.86-1.7,1.7-3.41,3.53-5.11,5.45-.05.06-.11.11-.16.17-.21.24-.42.49-.63.73-.31.36-.62.71-.92,1.07-.4.47-.79.95-1.18,1.43-.27.33-.54.65-.81.99-.65.8-1.29,1.62-1.93,2.46-.16.21-.32.43-.48.65-.5.66-.99,1.32-1.48,2-.25.34-.49.7-.74,1.04-.4.57-.81,1.15-1.21,1.73-.26.38-.52.77-.78,1.16-.39.58-.77,1.17-1.16,1.76-.25.39-.51.79-.76,1.19-.4.63-.79,1.27-1.18,1.92-.23.38-.46.75-.69,1.13-.47.79-.93,1.6-1.39,2.41-.14.25-.29.5-.43.76-.6,1.07-1.19,2.17-1.77,3.28-.16.3-.31.61-.46.91-.42.83-.85,1.67-1.26,2.52-.21.42-.41.85-.61,1.28-.36.76-.72,1.52-1.07,2.3-.21.46-.42.93-.62,1.4-.34.78-.68,1.56-1.01,2.35-.2.47-.4.94-.59,1.42-.35.86-.7,1.74-1.04,2.62-.16.42-.33.83-.49,1.25-.49,1.31-.98,2.64-1.44,4-.15.44-.3.88-.45,1.31-15.05,44.91,5.53,96.6,42.12,106.16l2.65.69h0c8.49,2.22,16.97,4.43,25.46,6.65l-1.37-142.34Z"/><path class="cls-3" d="M282.01,82.82c-.15-.44-.3-.88-.45-1.31-.47-1.36-.95-2.69-1.45-4-.16-.42-.32-.83-.48-1.24-.34-.89-.69-1.77-1.04-2.63-.19-.47-.39-.94-.59-1.41-.33-.8-.67-1.58-1.01-2.36-.21-.47-.41-.93-.62-1.39-.35-.78-.71-1.55-1.07-2.31-.2-.42-.4-.85-.61-1.27-.42-.86-.84-1.7-1.27-2.53-.15-.3-.3-.6-.45-.9-.58-1.11-1.17-2.21-1.77-3.28-.14-.25-.28-.5-.43-.75-.46-.82-.93-1.63-1.4-2.42-.23-.38-.45-.75-.68-1.13-.39-.65-.79-1.29-1.19-1.93-.25-.4-.51-.8-.76-1.19-.38-.6-.77-1.18-1.16-1.77-.26-.39-.52-.77-.78-1.15-.4-.59-.81-1.17-1.22-1.74-.25-.35-.49-.7-.74-1.04-.5-.69-.99-1.35-1.49-2.02-.16-.21-.31-.43-.47-.63-.64-.84-1.28-1.66-1.93-2.46-.27-.33-.53-.65-.8-.98-.4-.48-.79-.97-1.19-1.44-.31-.36-.61-.71-.92-1.07-.21-.24-.42-.49-.63-.73-.05-.06-.11-.11-.16-.17-1.7-1.92-3.41-3.75-5.11-5.45-15.07-15.07-36.76-1.05-37,23.86l-1.37,142.34c8.49-2.22,16.97-4.43,25.46-6.65h0s2.65-.69,2.65-.69c36.59-9.56,57.17-61.25,42.12-106.16Z"/><path class="cls-3" d="M263.09,210.2l-.38-.76c-2.29-4.6-3.71-9.57-4.48-14.66-3.61-23.98-26.33-42.46-51.21-42.46h-7.91c-24.87,0-47.59,18.48-51.21,42.46-.77,5.14-2.16,10.16-4.39,14.85l-.58,1.22c-1.2,2.53-2.67,4.92-4.27,7.22-19.43,27.99-5.7,67.53,22.35,89.01h0c24.97,19.11,59.65,19.11,84.61,0h0c28.26-21.63,41.85-61.6,21.9-89.62-1.65-2.31-3.17-4.71-4.44-7.25Z"/><circle class="cls-4" cx="152.59" cy="228.22" r="5.53"/><circle class="cls-4" cx="186" cy="257.57" r="5.53"/><path class="cls-5" d="M169.8,262.62c-11.42,0-20.71-9.29-20.71-20.71s9.29-20.72,20.71-20.72,20.72,9.29,20.72,20.72-9.29,20.71-20.72,20.71Z"/><path class="cls-4" d="M169.8,222.69c10.61,0,19.22,8.6,19.22,19.22s-8.6,19.22-19.22,19.22-19.22-8.6-19.22-19.22,8.6-19.22,19.22-19.22M169.8,219.69c-12.25,0-22.22,9.97-22.22,22.22s9.97,22.22,22.22,22.22,22.22-9.97,22.22-22.22-9.97-22.22-22.22-22.22h0Z"/><circle class="cls-4" cx="169.8" cy="241.9" r="11.68"/><circle class="cls-4" cx="254.01" cy="227.23" r="5.53"/><circle class="cls-4" cx="220.59" cy="256.58" r="5.53"/><path class="cls-5" d="M236.79,261.62c-11.42,0-20.71-9.29-20.71-20.71s9.29-20.72,20.71-20.72,20.72,9.29,20.72,20.72-9.29,20.71-20.72,20.71Z"/><path class="cls-4" d="M236.79,221.69c10.61,0,19.22,8.6,19.22,19.22s-8.6,19.22-19.22,19.22-19.22-8.6-19.22-19.22,8.6-19.22,19.22-19.22M236.79,218.69c-12.25,0-22.22,9.97-22.22,22.22s9.97,22.22,22.22,22.22,22.22-9.97,22.22-22.22-9.97-22.22-22.22-22.22h0Z"/><circle class="cls-4" cx="236.79" cy="240.91" r="11.68"/><path class="cls-1" d="M219.07,289.55l-5.43,5.92c-5.01,5.45-13.6,5.45-18.61,0l-5.43-5.92"/><line class="cls-1" x1="204.33" y1="299.55" x2="204.33" y2="321.4"/><path class="cls-4" d="M200,7c26.06,0,51.33,5.1,75.12,15.16,22.98,9.72,43.62,23.64,61.35,41.36,17.73,17.73,31.64,38.37,41.36,61.35,10.06,23.79,15.16,49.06,15.16,75.12s-5.1,51.33-15.16,75.12c-9.72,22.98-23.64,43.62-41.36,61.35-17.73,17.73-38.37,31.64-61.35,41.36-23.79,10.06-49.06,15.16-75.12,15.16s-51.33-5.1-75.12-15.16c-22.98-9.72-43.62-23.64-61.35-41.36-17.73-17.73-31.64-38.37-41.36-61.35-10.06-23.79-15.16-49.06-15.16-75.12s5.1-51.33,15.16-75.12c9.72-22.98,23.64-43.62,41.36-61.35,17.73-17.73,38.37-31.64,61.35-41.36,23.79-10.06,49.06-15.16,75.12-15.16M200,0C89.54,0,0,89.54,0,200s89.54,200,200,200,200-89.54,200-200S310.46,0,200,0h0Z"/></svg>