<svg xmlns="http://www.w3.org/2000/svg" viewBox="0 0 283.46 283.46"><g data-name="Layer 1"><circle cx="141.73" cy="141.73" r="141.73" style="fill:#002c73"/><path d="M196.76 160.37a35.61 35.61 0 0 0-8 .93l-3.82-11.4-2.49-7.15a2.14 2.14 0 0 1 .14-1.7l1.1-2a8.43 8.43 0 0 0 0-8.27 8 8 0 0 0-7-4h-5.84l-18.5-9.25a2.77 2.77 0 0 1-1.32-1.44l-8.51-21.28-2.2-14.81a1.35 1.35 0 0 1 .91-1.49c5.53-1.9 9-8.07 9-14.38 0-7.6-4.93-12.51-12.54-12.51s-12.53 4.91-12.53 12.51a16.49 16.49 0 0 0 4.63 11.69 1.35 1.35 0 0 1 .24 1.57l-.45.9a14.14 14.14 0 0 1-2 3l-3 3.35a13.79 13.79 0 0 0-2.15 3.25l-18.22 38.52c-2.08 4.39-1.84 9.6 1 13.21a40 40 0 0 0 4.48 3.8l6.57 4.91-3.93 5.57-8.53-5.36a2.71 2.71 0 0 0-1.44-.41h-32.6a3.4 3.4 0 0 0-3.4 3.4 3.4 3.4 0 0 0 3.4 3.39h30.61a2.72 2.72 0 0 1 1.44.42l6.57 4.12-4 5.61A35.72 35.72 0 1 0 120 209l16.16 3.5a11.71 11.71 0 0 0 2.42.26 11.26 11.26 0 0 0 7.09-2.52c.13-.1.24-.22.37-.33l7.27.87.19-1.58a2.76 2.76 0 0 0-2.05-3s-1.46-.36-2.38-.61a11.23 11.23 0 0 0-1.43-10.92l31.92-39.34 2.71 8.09a35.71 35.71 0 1 0 14.49-3.08ZM115 190.12H95.07l11-15.53a28.88 28.88 0 0 1 8.93 15.53Zm21.45-5.29-3.65-10.29 5.26-2.51Zm19-21.12 13.92-6.64-18.7 23.05ZM133 128.87l2-11.87a2.74 2.74 0 0 1 2.17 1.06l5.63 7.2a8.23 8.23 0 0 0 4.21 2.85l21.15 6.12a2.73 2.73 0 0 0 2.67-.66h5.76a1.28 1.28 0 0 1 1.13.64 1.27 1.27 0 0 1 0 1.29l-1.25 2.32A8.87 8.87 0 0 0 176 145l.42 1.23-21.67 10.34a7.65 7.65 0 0 0-.67-.94l-20.43-24.52a2.75 2.75 0 0 1-.65-2.24Zm4.6 34.66a2.93 2.93 0 0 1 .75.82l-7.87 3.75-4.45-12.55Zm-18.58-7.41 12.06 34h-9.2A35.74 35.74 0 0 0 110 169ZM86.7 225a28.93 28.93 0 1 1 13.79-54.37l-13.73 19.49a5.8 5.8 0 0 0-1.09 11.46l27.6 6A29 29 0 0 1 86.7 225Zm109 0a28.93 28.93 0 0 1-11.26-55.08l7.71 23a5.61 5.61 0 1 0 6.45-2.13l-7.72-23a28.93 28.93 0 1 1 4.81 57.21Z" style="fill:#fff"/></g></svg>