<svg xmlns="http://www.w3.org/2000/svg" viewBox="0 0 226.77 352.15"><defs><style>.cls-1{fill:#002c73;}.cls-2{fill:#fff;}</style></defs><g id="Layer_1" data-name="Layer 1"><path class="cls-1" d="M185.47,0H41.3A41.31,41.31,0,0,0,0,41.3v86.23A206.18,206.18,0,0,0,30.25,235L95.79,342.29a20.63,20.63,0,0,0,35.19,0L196.53,235a206.17,206.17,0,0,0,30.24-107.5V41.3A41.31,41.31,0,0,0,185.47,0Z"/><path class="cls-2" d="M168.66,34H58.11a1.42,1.42,0,0,0-1.42,1.42v129H170.08v-129A1.42,1.42,0,0,0,168.66,34ZM161.58,155.9H65.2V42.51h96.38Z"/><path class="cls-2" d="M47.31,32.94,24.67,23.56a1.41,1.41,0,0,0-2,1.29V170.94a1.42,1.42,0,0,0,1.86,1.35l22.68-7.56a1.43,1.43,0,0,0,1-1.35V34.25A1.42,1.42,0,0,0,47.31,32.94Z"/><path class="cls-2" d="M202.1,23.56l-22.64,9.38a1.42,1.42,0,0,0-.88,1.31V163.38a1.43,1.43,0,0,0,1,1.35l22.68,7.56a1.42,1.42,0,0,0,1.86-1.35V24.85A1.41,1.41,0,0,0,202.1,23.56Z"/><path class="cls-2" d="M56.69,188.5a1.42,1.42,0,0,0,1.42,1.41h5.67v11.34a2.84,2.84,0,0,0,2.83,2.84H78a2.84,2.84,0,0,0,2.84-2.84V189.91H146v11.34a2.84,2.84,0,0,0,2.84,2.84h11.34a2.84,2.84,0,0,0,2.83-2.84V189.91h5.67a1.42,1.42,0,0,0,1.42-1.41V172.91H56.69Z"/><rect class="cls-2" x="73.7" y="102.04" width="34.02" height="45.35" rx="1.42"/><rect class="cls-2" x="87.87" y="59.52" width="34.02" height="34.02" rx="1.42"/><rect class="cls-2" x="116.22" y="102.04" width="34.02" height="45.35" rx="1.42"/></g></svg>