<svg width="35" height="35" xmlns="http://www.w3.org/2000/svg"><path d="M0 0a7.691 7.691 0 0 0 5.958 6.018l11.246 2.368c5.525 1.163 10.72-3.053 10.72-8.698A8.888 8.888 0 0 0 19.035-9.2H7.542C2.688-9.2-.952-4.76 0 0m-88.226 23.399c-2.041 0-3.413 2.092-2.599 3.964l10.534 24.23a8.503 8.503 0 0 0 6.675 5.038 285.67 285.67 0 0 0 75.519 0 8.502 8.502 0 0 0 6.675-5.038l10.535-24.229c.814-1.873-.558-3.965-2.6-3.965zM-79.254-9.2h-11.494a8.888 8.888 0 0 0-8.888 8.888c0 5.645 5.195 9.861 10.72 8.698l11.246-2.368A7.691 7.691 0 0 0-71.712 0c.952-4.76-2.688-9.2-7.542-9.2M44.002 35.313l-2.973.33a5.297 5.297 0 0 1-5.724-3.98 5.285 5.285 0 0 0-4.766-3.981L17.166 53.687A19.843 19.843 0 0 1 1.838 64.318h-.001a322.625 322.625 0 0 1-75.387 0 19.842 19.842 0 0 1-15.328-10.631l-13.374-26.005a5.286 5.286 0 0 0-4.765 3.981 5.297 5.297 0 0 1-5.724 3.98l-2.973-.33a5.824 5.824 0 0 1-.578-11.484l11.079-2.374a56.674 56.674 0 0 1-4.344-21.701v-26.537a5.67 5.67 0 0 1 5.065-5.637l.627-.067a89.13 89.13 0 0 1 .873-11.33 4.252 4.252 0 0 1 4.209-3.651h9.633a4.252 4.252 0 0 1 4.209 3.651c.441 3.086.717 6.192.832 9.306a425.124 425.124 0 0 1 36.95-1.618h22.605c12.336 0 24.663.546 36.95 1.618.115-3.114.391-6.22.832-9.306a4.252 4.252 0 0 1 4.209-3.651h9.633a4.252 4.252 0 0 1 4.209 3.651 89.13 89.13 0 0 1 .873 11.33l.627.067a5.67 5.67 0 0 1 5.066 5.637V-.247a56.676 56.676 0 0 1-4.344 21.702l11.078 2.374a5.825 5.825 0 0 1-.577 11.484" style="fill-opacity:1;fill-rule:nonzero;stroke:none" transform="matrix(.16463 0 0 -.16463 22.525 21.852)"/></svg>