<svg xmlns="http://www.w3.org/2000/svg" viewBox="0 0 283.46 283.46"><g data-name="Layer 2"><g data-name="Layer 1"><circle cx="141.73" cy="141.73" r="141.73" style="fill:#002c73"/><path d="M171.68 114.28a5.75 5.75 0 0 1-2.38-2.55l-8.6-18.36a14.24 14.24 0 0 0-3.46-4.61l-9.07-8a2.87 2.87 0 0 1-.92-1.7l-.35-2.27c4.94-2.42 7.93-8.29 7.93-14.29 0-7.83-5.08-12.89-12.93-12.89S129 54.67 129 62.5c0 5.82 2.81 11.51 7.47 14.06l-.17.94a2.89 2.89 0 0 1-1.19 1.83l-8.81 6a28.07 28.07 0 0 0-6.41 6l-10.79 13.93a14.22 14.22 0 0 0-2.89 10.18l2.6 24.43a4.25 4.25 0 0 0 3.53 3.74l5.32.89 1.34-26.1a5.72 5.72 0 0 1 1.65-3.73l3.54-3.54a2 2 0 0 1 1.41-.58h1.3L119.31 153a2 2 0 0 0 1.07 2.12l1.51.75-2.7 29.72a8.63 8.63 0 0 1-.76 2.81l-17.8 38.34 8.5 4.25L119 236l.73-1.46a2.83 2.83 0 0 0-.93-3.61l-5-3.43-1.57-1.4 21.06-33.92a14.27 14.27 0 0 0 1.87-4.78l4.47-23h2.12l7.91 26.36c.4 1.32.73 2.66 1 4l7.34 37.68h20.55v-1.64a2.82 2.82 0 0 0-2.45-2.8l-6-.83-3.27-.87-2.19-32.89a67.65 67.65 0 0 0-.81-6.94l-5.09-30.57 1.53-.76a2 2 0 0 0 1.07-2.09l-5.43-34h1a2 2 0 0 1 1.68.94l.33.51a14.14 14.14 0 0 0 7.34 5.87l20.8 7.28a4.24 4.24 0 0 0 4.72-1.36l3.79-4.73Z" style="fill:#fefefe"/></g></g></svg>