<svg xmlns="http://www.w3.org/2000/svg" xml:space="preserve" style="enable-background:new 0 0 226.8 352.1" viewBox="0 0 226.8 352.1"><style>.st2{fill:#fff}</style><g id="Layer_1"><path d="M185.5 0H41.3C18.5 0 0 18.5 0 41.3v86.2c0 37.9 10.5 75.1 30.2 107.5l65.5 107.3c8 13.2 27.1 13.2 35.2 0L196.5 235c19.8-32.4 30.2-69.6 30.2-107.5V41.3C226.8 18.5 208.3 0 185.5 0z" style="fill:#002c73"/><path d="M45.4 86.8c7.8 0 14.7-.5 20.7-1.6s11.2-2.9 15.3-5.4c4.2-2.5 7.3-5.9 9.4-10 2.1-4.2 3.2-9.3 3.2-15.5 0-6.7-1-12.1-3.1-16.3-2.1-4.2-4.9-7.4-8.7-9.6-3.7-2.3-8.3-3.8-13.7-4.5-5.4-.8-11.4-1.1-18-1.1H22.7v90.7h22.7V86.8zm0-47.5h7.4c2.6 0 5 .1 7.3.4 2.3.3 4.2.9 5.8 2 1.6 1.1 2.9 2.6 3.9 4.6 1 2 1.5 4.8 1.5 8.3 0 6.5-2.1 10.9-6.3 13.4-4.2 2.4-10.7 3.6-19.6 3.6V39.3zM77.1 128.7H40.9c-.7 0-1.2.7-1.2 1.4v72.7c0 .7.6 1.3 1.1 1.3h17.5c.8 0 1.3-.5 1.3-1.4v-24.4c0-.6.5-1.3 1-1.3h16.3c.7 0 1.2-.5 1.2-1.1v-18.2c0-.5-.6-1-1.1-1H60.6c-.7 0-1-.4-1-.9v-6c0-.7.5-1.1 1.1-1.1H77c.7 0 1.3-.6 1.3-1.3v-17.5c.1-.7-.5-1.2-1.2-1.2zM163.7 183.3h-17.2c-.3 0-.6-.3-.6-.7v-52.8c0-.6-.4-1.1-1-1.1h-17c-.7 0-1.3.8-1.3 1.4v72.7c0 .7.5 1.3 1.1 1.3h36.1c.6 0 1.1-.5 1.1-1.1v-18.7c-.1-.5-.5-1-1.2-1zM185.9 128.7h-17.2c-.5 0-.9.5-.9 1v72.9c0 .8.6 1.5 1.3 1.5h16.8c.7 0 1.2-.7 1.2-1.3v-73.1c0-.6-.5-1-1.2-1zM83.6 124.5c0 4.6 3.8 8.4 8.4 8.4s8.4-3.8 8.4-8.4c0-4.6-3.8-8.4-8.4-8.4s-8.4 3.7-8.4 8.4zM111.2 132.8c4.6 0 8.3-3.8 8.3-8.4 0-4.6-3.7-8.4-8.3-8.4-4.6 0-8.3 3.8-8.3 8.4 0 4.7 3.7 8.4 8.3 8.4zM102.3 139.3c-11.2 0-21 7.6-21 23.1v19c0 15.6 9.9 23 21 23s21-7.6 21-23v-19c0-15.6-9.8-23.1-21-23.1zm4.5 41.6c0 2.5-2 4.5-4.5 4.5s-4.5-2-4.5-4.5v-18.3c0-2.5 2-4.5 4.5-4.5s4.5 2 4.5 4.5v18.3zM181.4 56.7V34h-22.7v22.7h-22.6v22.7h22.6V102h22.7V79.4h22.7V56.7z" class="st2"/></g></svg>