<?xml version="1.0" encoding="UTF-8"?>
<svg id="Layer_1" data-name="Layer 1" xmlns="http://www.w3.org/2000/svg" viewBox="0 0 226.77 352.15">
  <defs>
    <style>
      .taxi-1 {
        fill: #fff;
      }

      .taxi-2 {
        fill: #002c73;
      }
    </style>
  </defs>
  <path class="taxi-2" d="M192.75.94H34.02C15.23.94,0,16.17,0,34.96v103.67C0,169.92,8.64,200.61,24.96,227.31l69.08,113.05c8.84,14.47,29.86,14.47,38.7,0l69.08-113.05c16.32-26.7,24.96-57.39,24.96-88.68V34.96c0-18.79-15.23-34.02-34.02-34.02"/>
  <g>
    <polygon class="taxi-1" points="55.45 85.49 65.25 85.49 65.25 54.35 76.03 54.35 77.15 46.3 43.55 46.3 43.55 54.35 55.45 54.35 55.45 85.49"/>
    <rect class="taxi-1" x="164.64" y="46.3" width="9.94" height="39.2"/>
    <path class="taxi-1" d="M89.75,77.73h13.3l1.42,4.94c2.98-.08,5.95-.13,8.92-.13.43,0,.86.01,1.29.01l-11.98-36.25h-12.6l-12.62,38.2c3.52-.38,7.06-.71,10.6-.98l1.67-5.79ZM93.74,61.14c.51-1.96,1.02-3.85,1.51-5.67.49-1.82.87-3.27,1.15-4.34.23.84.54,2.02.91,3.54.37,1.51.96,3.67,1.75,6.47l2.59,9.38h-10.5l2.59-9.38Z"/>
    <path class="taxi-1" d="M193.24,122.26l-2.98-.33c-2.63-.3-5.08,1.4-5.72,3.98-.56,2.23-2.5,3.82-4.77,3.98l-13.37-26.01c-3.02-5.87-8.77-9.86-15.33-10.63-25.04-2.94-50.34-2.94-75.39,0-6.56.77-12.3,4.76-15.32,10.63l-13.38,26.01c-2.27-.16-4.2-1.75-4.76-3.98-.65-2.58-3.09-4.28-5.73-3.98l-2.97.33c-2.95.33-5.18,2.82-5.18,5.79,0,2.74,1.92,5.12,4.6,5.69l11.08,2.37c-2.85,6.87-4.34,14.24-4.34,21.71v26.53c0,2.9,2.18,5.33,5.06,5.64l.63.07c.05,3.79.34,7.57.87,11.33.3,2.09,2.1,3.65,4.21,3.65h9.63c2.12,0,3.92-1.56,4.21-3.65.44-3.09.72-6.2.84-9.31,12.28,1.07,24.61,1.62,36.95,1.62h22.6c12.34,0,24.66-.55,36.95-1.62.12,3.11.39,6.22.83,9.31.3,2.09,2.1,3.65,4.21,3.65h9.63c2.12,0,3.91-1.56,4.21-3.65.54-3.76.82-7.54.88-11.33l.62-.07c2.88-.31,5.07-2.74,5.07-5.64v-26.53c0-7.47-1.5-14.84-4.34-21.71l11.07-2.37c2.69-.57,4.61-2.95,4.61-5.69,0-2.97-2.23-5.46-5.18-5.79M69.99,166.76h-11.49c-4.91,0-8.89-3.98-8.89-8.89,0-5.64,5.19-9.86,10.72-8.7l11.25,2.37c3.01.64,5.35,3,5.95,6.02.96,4.76-2.69,9.2-7.54,9.2M61.02,134.17c-2.04,0-3.41-2.09-2.6-3.96l10.53-24.23c1.19-2.74,3.72-4.65,6.68-5.04,25.06-3.34,50.46-3.34,75.52,0,2.95.39,5.48,2.3,6.67,5.04l10.54,24.23c.81,1.87-.56,3.96-2.6,3.96H61.02ZM168.27,166.76h-11.49c-4.86,0-8.5-4.44-7.55-9.2.61-3.02,2.95-5.38,5.96-6.02l11.25-2.37c5.52-1.16,10.72,3.06,10.72,8.7,0,4.91-3.98,8.89-8.89,8.89"/>
    <path class="taxi-1" d="M120.79,82.63c3.69.08,7.39.22,11.09.43l5.82-12.05,6.19,12.94c2.74.26,5.47.54,8.19.86,1.26.14,2.49.38,3.7.69h.47l-11.83-20.72,11.13-18.48h-11.83l-6.02,13.16-6.02-13.16h-11.83l11.13,18.48-10.19,17.85Z"/>
  </g>
</svg>