<svg width="50" height="50" xmlns="http://www.w3.org/2000/svg"><path d="M0 0h-144.165c-22.811 0-41.303-18.492-41.303-41.303v-86.234a206.15 206.15 0 0 1 30.246-107.497l65.549-107.262c8.038-13.154 27.143-13.154 35.182 0l65.548 107.262a206.15 206.15 0 0 1 30.246 107.497v86.234C41.303-18.492 22.811 0 0 0" style="fill:#002c73;fill-opacity:1;fill-rule:nonzero;stroke:none" transform="matrix(.14198 0 0 -.14198 36 0)"/><path d="M0 0c-4.205-2.426-10.744-3.638-19.603-3.638v32.402h7.449c2.597 0 5.022-.145 7.289-.408 2.268-.277 4.219-.95 5.84-2.03 1.622-1.081 2.914-2.611 3.889-4.614.963-2.004 1.45-4.772 1.45-8.345C6.314 6.894 4.218 2.439 0 0m25.838-1.608c2.109 4.152 3.163 9.307 3.163 15.463 0 6.697-1.028 12.128-3.084 16.28-2.057 4.153-4.944 7.369-8.661 9.637-3.731 2.267-8.292 3.783-13.697 4.535-5.392.751-11.39 1.133-17.981 1.133h-27.854v-90.709h22.673v26.563c7.778 0 14.686.54 20.737 1.621 6.05 1.081 11.152 2.887 15.304 5.432 4.166 2.531 7.291 5.879 9.4 10.045" style="fill:#fff;fill-opacity:1;fill-rule:nonzero;stroke:none" transform="matrix(.14198 0 0 -.14198 18.89 9.671)"/><path d="M38.925 23.343h-2.408a3.82 3.82 0 0 1 1.034-1.896zm-3.637 0h-.8l1.037-4.692 1.31 1.808a5.02 5.02 0 0 0-1.547 2.884m-2.042.024c-.12.02-.237.053-.347.098l-4.464-4.546 5.242 2.498zm-5.267.78a3.828 3.828 0 0 1-3.823 3.824 3.828 3.828 0 0 1-3.824-3.823 3.828 3.828 0 0 1 3.975-3.82l-.639 3.18a.803.803 0 0 0 .488 1.445.805.805 0 0 0 .696-1.207l.639-3.18a3.83 3.83 0 0 1 2.488 3.582m13.776-3.514c.036-.419.063-.838.08-1.259a5.011 5.011 0 0 0-4.023.374l-1.938-2.675.332-1.502a.02.02 0 0 0 .006-.004l.518.139a1.593 1.593 0 0 0 2.005-1.543.415.415 0 0 0-.415-.411H33.38c-.319 0-.607.222-.658.537a.643.643 0 0 0 .547.743l.891.122c.291.04.58.089.869.144l-.39 1.76c-.005.021-.01.042-.013.063l-.683 3.085-7.684-3.662a2.61 2.61 0 0 0-.355-1.414l-.317-.54a.195.195 0 0 1-.001-.203.195.195 0 0 1 .175-.1h1.412c.667 0 1.208-.541 1.208-1.208h-2.58c-.497 0-.972.24-1.235.661a1.395 1.395 0 0 0-.02 1.46l.316.54c.175.299.234.65.166.99l-.482 2.402a5.031 5.031 0 0 0-5.41 5.371c.171 2.481 2.181 4.491 4.662 4.662a5.031 5.031 0 0 0 1.932-9.796l.247-1.23 6.06 6.171a1.61 1.61 0 0 0 1.45 2.25 1.28 1.28 0 0 0 .407-.04l1.723-.419a5.033 5.033 0 0 0 4.084 3.043c.159-.39.31-.782.451-1.178a3.828 3.828 0 0 1-3.34-2.155l3.63-.881c.009-.002.013-.005.02-.007a.805.805 0 0 0-.032-1.561l-1.902-2.626a3.797 3.797 0 0 1 3.226-.104" style="fill:#fff;fill-opacity:1;fill-rule:nonzero;stroke:none;stroke-width:.14198"/></svg>