<svg xmlns="http://www.w3.org/2000/svg" viewBox="0 0 226.77 352.16"><defs><style>.cls-1{fill:#002c73;}.cls-2{fill:#fefefe;}</style></defs><g id="Layer_2" data-name="Layer 2"><g id="Layer_1-2" data-name="Layer 1"><path class="cls-1" d="M185.47,0H41.3A41.3,41.3,0,0,0,0,41.3v86.24A206.12,206.12,0,0,0,30.25,235L95.79,342.3a20.63,20.63,0,0,0,35.19,0L196.53,235a206.11,206.11,0,0,0,30.24-107.49V41.3A41.3,41.3,0,0,0,185.47,0Z"/><path class="cls-2" d="M199.1,158.12,29.19,136.88A3.53,3.53,0,0,0,25.57,142h0a73,73,0,0,1,3.5,55.94l-.52,1.51a3.53,3.53,0,0,0,3.35,4.69H196a3.54,3.54,0,0,0,3.35-4.69h0a46.49,46.49,0,0,1,2.46-36.1l0-.07A3.54,3.54,0,0,0,199.1,158.12Z"/><path class="cls-2" d="M181.42,102.05l-2.34-46.82a31.44,31.44,0,0,0-6.57-17.68,14.19,14.19,0,0,0-10.1-5.43h0a639.31,639.31,0,0,0-98,0h0a14.19,14.19,0,0,0-10.1,5.43,31.44,31.44,0,0,0-6.57,17.68l-2.34,46.82v28.28l136.07,17ZM68,127.56a8.51,8.51,0,1,1,8.5-8.51A8.5,8.5,0,0,1,68,127.56Zm90.71,0a8.51,8.51,0,1,1,8.5-8.51A8.51,8.51,0,0,1,158.74,127.56Zm8.37-25.51H59.67a2.85,2.85,0,0,1-2.84-3L58.93,55a5.67,5.67,0,0,1,5.66-5.4h97.59a5.67,5.67,0,0,1,5.66,5.4l2.1,44.08A2.85,2.85,0,0,1,167.11,102.05Z"/></g></g></svg>