<?xml version="1.0" encoding="utf-8"?>
<!-- Generator: Adobe Illustrator 26.3.1, SVG Export Plug-In . SVG Version: 6.00 Build 0)  -->
<svg version="1.1" xmlns="http://www.w3.org/2000/svg" xmlns:xlink="http://www.w3.org/1999/xlink" x="0px" y="0px"
	 viewBox="0 0 283.5 283.5" style="enable-background:new 0 0 283.5 283.5;" xml:space="preserve">
<style type="text/css">
	.st0{fill:#E94E1B;}
	.st1{fill:none;stroke:#FEFEFE;stroke-width:0.25;stroke-miterlimit:10;}
	.st2{fill:#FFFFFF;}
	.st3{fill:#00A7E1;}
	.st4{fill:#002C73;}
	.st5{fill:#FEFEFE;}
	.st6{fill:none;stroke:#002C73;stroke-width:4;stroke-miterlimit:10;}
	.st7{fill:none;stroke:#002C73;stroke-width:8;stroke-miterlimit:10;}
	.st8{fill:none;stroke:#FFFFFF;stroke-width:2;stroke-miterlimit:10;}
	.st9{fill:none;stroke:#FFFFFF;stroke-width:2;stroke-miterlimit:10;stroke-dasharray:6,8;}
	.st10{fill:#0075C9;stroke:#FFFFFF;stroke-linejoin:round;stroke-miterlimit:10;}
	.st11{fill:#0075C9;}
	.st12{fill:none;stroke:#FFFFFF;stroke-linejoin:round;stroke-miterlimit:10;}
	.st13{fill:none;stroke:#231F20;stroke-width:0.25;stroke-miterlimit:10;}
	.st14{fill:none;stroke:#002C73;stroke-width:7;stroke-miterlimit:10;}
	.st15{fill:none;stroke:#FFFFFF;stroke-width:4;stroke-miterlimit:10;}
	.st16{fill:none;stroke:#FFFFFF;stroke-width:4.1077;stroke-miterlimit:10;}
	.st17{fill:none;stroke:#FFFFFF;stroke-width:14;stroke-miterlimit:10;}
	.st18{fill:none;stroke:#FFFFFF;stroke-width:8.5;stroke-linecap:round;stroke-miterlimit:10;}
	.st19{fill:#FFBE2E;}
	.st20{fill:none;stroke:#FFFFFF;stroke-width:6.7936;stroke-miterlimit:10;}
	.st21{fill:#FFFFFF;stroke:#FFFFFF;stroke-width:4.8526;stroke-miterlimit:10;}
	.st22{fill:none;stroke:#FFFFFF;stroke-width:6.7936;stroke-linecap:round;stroke-miterlimit:10;}
</style>
<g id="Ruudukko">
</g>
<g id="Layer_1">
	<circle class="st19" cx="141.7" cy="141.7" r="141.7"/>
	<g>
		<path d="M73.3,135.5c-19.5,0-35.3,15.8-35.3,35.3s15.8,35.3,35.3,35.3c19.5,0,35.3-15.8,35.3-35.3S92.8,135.5,73.3,135.5
			 M73.3,212.2c-22.9,0-41.3-18.5-41.3-41.3s18.5-41.3,41.3-41.3c22.9,0,41.3,18.5,41.3,41.3C114.7,193.5,96.2,212.2,73.3,212.2"/>
		<path d="M138.7,173.8h-0.4c-1,0-1.8-0.6-2.4-1.6L92.4,94.4h-11c-1.6,0-3-1.4-3-3c0-1.6,1.4-3,3-3h27.9c1.6,0,3,1.4,3,3
			c0,1.6-1.4,3-3,3h-9.8l39.7,71l52.1-60.4c1-1.2,3-1.4,4.2-0.4c1.2,1,1.4,3,0.4,4.2l-54.9,63.8
			C140.3,173.4,139.5,173.8,138.7,173.8"/>
		<path d="M210.1,172.8c-1.4,0-2.6-1-3-2.4c-7.4-32.3-20.1-82.6-24.3-89.2c-2.8-4.4-14.4-4.2-19.5-3.2c-1.6,0.4-3.2-0.8-3.6-2.4
			c-0.4-1.6,0.8-3.2,2.4-3.6c2-0.4,19.9-3,25.7,6c6.2,9.6,23.1,82.8,25.1,91c0.4,1.6-0.6,3.2-2.2,3.6
			C210.5,172.8,210.3,172.8,210.1,172.8"/>
		<path d="M138.7,173.8H73.3c-1.6,0-3-1.4-3-3c0-1.6,1.4-3,3-3h65.4c1.6,0,3,1.4,3,3C141.7,172.4,140.3,173.8,138.7,173.8"/>
		<path d="M73.3,173.8c-0.6,0-1-0.2-1.4-0.4c-1.4-0.8-2-2.6-1-4l32.3-56c0.8-1.4,2.6-2,4-1c1.4,0.8,2,2.6,1,4l-32.3,56
			C75.4,173.2,74.3,173.8,73.3,173.8"/>
		<path d="M210.1,135.5c-19.5,0-35.3,15.8-35.3,35.3s15.8,35.3,35.3,35.3c19.5,0,35.3-15.8,35.3-35.3S229.6,135.5,210.1,135.5
			 M210.1,212.2c-22.9,0-41.3-18.5-41.3-41.3s18.5-41.3,41.3-41.3c22.9,0,41.3,18.5,41.3,41.3C251.4,193.5,233,212.2,210.1,212.2"/>
	</g>
</g>
</svg>
