<svg width="40" height="40"
    xmlns="http://www.w3.org/2000/svg">
    <path d="M0 0c0 5.479 4.442 9.921 9.921 9.921 5.48 0 9.922-4.442 9.922-9.921 0-5.479-4.442-9.921-9.922-9.921C4.442-9.921 0-5.479 0 0m-54.09 27.992c-12.124 0-24.244.486-36.329 1.457l-16.334 1.313a5.67 5.67 0 0 0-5.215 5.651c0 13.511.701 27.014 2.101 40.452l2.684 25.769a5.67 5.67 0 0 0 5.639 5.082H13.67a5.67 5.67 0 0 0 5.639-5.082l2.684-25.769a390.41 390.41 0 0 0 2.102-40.452 5.67 5.67 0 0 0-5.215-5.651L2.545 29.449a453.617 453.617 0 0 0-36.329-1.457ZM-97.795-9.921c-5.479 0-9.921 4.442-9.921 9.921 0 5.479 4.442 9.921 9.921 9.921 5.479 0 9.921-4.442 9.921-9.921 0-5.479-4.442-9.921-9.921-9.921m22.678 133.668a2.395 2.395 0 0 0 2.395 2.395h57.572a2.395 2.395 0 0 0 2.395-2.395v-3.714a2.395 2.395 0 0 0-2.395-2.395h-57.572a2.395 2.395 0 0 0-2.395 2.395zM32.659 81.658l-4.211 37.894a17.006 17.006 0 0 1-15.211 15.045l-.621.062a568.099 568.099 0 0 1-113.105 0l-.623-.062a17.006 17.006 0 0 1-15.211-15.045l-3.69-33.213a538.42 538.42 0 0 1-3.294-59.476v-46.327a5.668 5.668 0 0 1 5.14-5.644l3.364-.316v-15.679a4.25 4.25 0 0 1 4.251-4.251h14.174a4.252 4.252 0 0 1 4.252 4.251v13.561A453.444 453.444 0 0 1-51.07-29.41h14.266c13.707 0 27.406.627 41.056 1.868v-13.561a4.25 4.25 0 0 1 4.252-4.251h14.173a4.252 4.252 0 0 1 4.252 4.251v15.679l3.364.316a5.669 5.669 0 0 1 5.14 5.644v51.037c0 16.733-.926 33.454-2.774 50.085" style="fill-opacity:1;fill-rule:nonzero;stroke:none" transform="matrix(.20784 0 0 -.20784 28.612 30.72)"/>
</svg>