<svg xmlns="http://www.w3.org/2000/svg" viewBox="0 0 226.77 226.77"><defs><style>.cls-1{fill:#002c73;}.cls-2{fill:#fff;}</style></defs><g id="Layer_2" data-name="Layer 2"><g id="Layer_1-2" data-name="Layer 1"><rect class="cls-1" width="226.77" height="226.77" rx="9.07"/><path class="cls-2" d="M192.05,34.72a10.57,10.57,0,0,0-11.46-2.3,108.75,108.75,0,0,0-41.9,30.47l-1.39,1.65L41.15,48.89a8.51,8.51,0,0,0-7.38,2.38l-5.42,5.42L111,95.61,70.87,143.15l-38.11-7.89a5.7,5.7,0,0,0-5.16,1.55l-4.92,4.92L65.2,161.57,85,204.09,90,199.17A5.7,5.7,0,0,0,91.51,194l-7.89-38.1,47.54-40.18,38.92,82.7L175.5,193a8.48,8.48,0,0,0,2.38-7.38L162.23,89.48l1.65-1.4a108.75,108.75,0,0,0,30.47-41.9h0A10.57,10.57,0,0,0,192.05,34.72Z"/></g></g></svg>