<svg xmlns="http://www.w3.org/2000/svg" id="Layer_1" version="1.1" viewBox="0 0 400 400"><defs id="defs1657"><style id="style1655">.cls-2{stroke:#000;stroke-miterlimit:10;stroke-width:3px}</style></defs><circle id="circle1659" cx="200" cy="200" r="200" style="fill:#072c73;fill-opacity:1;stroke-width:0"/><path id="path1661" d="M256.43 182.02c-2.21-4.44-3.82-9.18-4.51-14.1-1.15-8.28-4.69-15.89-9.85-22.25 30.02-10.55 45.78-44.84 32.5-74.95-.14-.32-.28-.64-.43-.95-6.48-14.27-15.54-25.06-24.87-33.13-.04-.03-.08-.07-.11-.1 0 0-.01 0-.02-.02-1.67-1.44-3.35-2.79-5.02-4.07-14.4-10.95-35.13-.76-35.36 17.33l-.98 77.31c-1.61-.16-3.24-.26-4.88-.26h-7.56c-1.49 0-2.98.07-4.45.21l-.98-77.26c-.23-18.09-20.96-28.27-35.36-17.33-1.67 1.27-3.35 2.63-5.02 4.07 0 0-.01 0-.02.02-.04.03-.08.07-.11.1-9.33 8.07-18.39 18.85-24.87 33.13-.14.32-.29.64-.43.95-13.23 30 2.37 64.16 32.17 74.84-5.24 6.42-8.82 14.11-9.96 22.49-.67 4.92-2.25 9.66-4.38 14.14l-.13.27c-1.2 2.53-2.65 4.93-4.24 7.23-18.04 26.02-6.12 62.47 19.21 83.32a43.213 43.213 0 0 0 6.95 16.09c.33 4.69.59 9.47.76 14.35l.06 1.66c1.03 32.21-17 60.46-43.76 74.24 12.98 4.74 26.6 7.5 39.56 12.34 1.11.41 2.18.85 3.22 1.31 26.89 2.17 53.88.27 80.85-.3a895.642 895.642 0 0 0-6.42-46.38c-1.53-9.27-2.23-21.45-1.66-41.72.18-6.55.5-12.94.92-19.19a43.09 43.09 0 0 0 4.62-12.35c25.62-21.05 37.45-58.05 18.73-84.13a51.632 51.632 0 0 1-4.2-6.9Z" style="fill:#fff;stroke:#000;stroke-miterlimit:10;stroke-width:3px"/><path id="path1693" d="M200 7c26.06 0 51.33 5.1 75.12 15.16 22.98 9.72 43.62 23.64 61.35 41.36 17.73 17.73 31.64 38.37 41.36 61.35 10.06 23.79 15.16 49.06 15.16 75.12s-5.1 51.33-15.16 75.12c-9.72 22.98-23.64 43.62-41.36 61.35-17.73 17.73-38.37 31.64-61.35 41.36-23.79 10.06-49.06 15.16-75.12 15.16s-51.33-5.1-75.12-15.16c-22.98-9.72-43.62-23.64-61.35-41.36-17.73-17.73-31.64-38.37-41.36-61.35-10.06-23.79-15.16-49.06-15.16-75.12s5.1-51.33 15.16-75.12c9.72-22.98 23.64-43.62 41.36-61.35 17.73-17.73 38.37-31.64 61.35-41.36C148.67 12.1 173.94 7 200 7m0-7C89.54 0 0 89.54 0 200s89.54 200 200 200 200-89.54 200-200S310.46 0 200 0Z" style="stroke-width:0"/></svg>