<svg xmlns="http://www.w3.org/2000/svg" viewBox="0 0 226.77 352.16"><defs><style>.cls-1{fill:#002c73;}.cls-2{fill:#fff;}</style></defs><g id="Layer_2" data-name="Layer 2"><g id="Layer_1-2" data-name="Layer 1"><path class="cls-1" d="M185.47,0H41.3A41.3,41.3,0,0,0,0,41.3v86.24A206.12,206.12,0,0,0,30.25,235L95.79,342.3a20.63,20.63,0,0,0,35.19,0L196.53,235a206.11,206.11,0,0,0,30.24-107.49V41.3A41.3,41.3,0,0,0,185.47,0Z"/><path class="cls-2" d="M202.68,195.59h-32.6v-9.7a1.64,1.64,0,0,0-1.64-1.64h-8.06a1.64,1.64,0,0,0-1.64,1.64v9.7H68v-9.7a1.64,1.64,0,0,0-1.64-1.64H58.33a1.65,1.65,0,0,0-1.64,1.64v9.7H24.09A1.42,1.42,0,0,0,22.68,197v5.67a1.42,1.42,0,0,0,1.41,1.42H202.68a1.42,1.42,0,0,0,1.41-1.42V197A1.42,1.42,0,0,0,202.68,195.59Z"/><path class="cls-2" d="M55.32,168a14.17,14.17,0,0,0,11.79,6.31h8a1.43,1.43,0,0,1,1.42,1.42v8.5a2.83,2.83,0,0,0,2.83,2.84h68a2.84,2.84,0,0,0,2.84-2.84v-8.5a1.42,1.42,0,0,1,1.41-1.42h8A14.15,14.15,0,0,0,171.45,168l5.21-7.81a28.34,28.34,0,0,0,4.76-15.72V79.17A42.49,42.49,0,0,0,176,58.33L163.73,36.58A28.36,28.36,0,0,0,140,22.15h0q-26.57-.88-53.15,0h0A28.33,28.33,0,0,0,63.05,36.58L50.82,58.32a42.57,42.57,0,0,0-5.47,20.85v65.32a28.27,28.27,0,0,0,4.77,15.72Zm111.92-15a8.5,8.5,0,1,1-8.5-8.5A8.5,8.5,0,0,1,167.24,153.07ZM69.78,68H157a5.67,5.67,0,0,1,5.47,7.16l-13.63,50a7.09,7.09,0,0,1-6.84,5.22H84.78A7.07,7.07,0,0,1,78,125.17l-13.63-50A5.67,5.67,0,0,1,69.78,68ZM68,144.57a8.51,8.51,0,1,1-8.5,8.5A8.51,8.51,0,0,1,68,144.57Z"/></g></g></svg>