<svg xmlns="http://www.w3.org/2000/svg" viewBox="0 0 226.77 352.15"><defs><style>.cls-1{fill:#002c73;}.cls-2{fill:#fff;}</style></defs><g id="Layer_1" data-name="Layer 1"><path class="cls-1" d="M185.47,0H41.3A41.31,41.31,0,0,0,0,41.3v86.23A206.18,206.18,0,0,0,30.25,235L95.79,342.29a20.63,20.63,0,0,0,35.19,0L196.53,235a206.17,206.17,0,0,0,30.24-107.5V41.3A41.31,41.31,0,0,0,185.47,0Z"/><path class="cls-2" d="M82.21,28.34a35.48,35.48,0,0,0-13.7-4.54,131.18,131.18,0,0,0-18-1.13H22.68v90.71H45.35V86.81a118.89,118.89,0,0,0,20.74-1.62,43.7,43.7,0,0,0,15.3-5.43,24.57,24.57,0,0,0,9.4-10Q94,63.48,94,54.25q0-10-3.08-16.28A22.84,22.84,0,0,0,82.21,28.34ZM65,68.11q-6.3,3.63-19.6,3.64V39.34H52.8a63.88,63.88,0,0,1,7.29.41,13.31,13.31,0,0,1,5.84,2,11.36,11.36,0,0,1,3.89,4.62,19.6,19.6,0,0,1,1.45,8.34Q71.27,64.44,65,68.11Z"/><path class="cls-2" d="M215.65,182H168.07a4,4,0,0,1-3.38-1.87l-27.05-42.94,8.42-68h22.41a5.89,5.89,0,1,0,0-11.77H141.18a7,7,0,0,0-6.94,6.14L120.77,172.15a16.82,16.82,0,1,0,12.34,1.52l2.14-17.32,20.9,33.17a9,9,0,0,0,7.61,4.2h52.09c.06-.15.11-.31.16-.47.52-1.53,1-3.07,1.49-4.61l.39-1.28q.75-2.46,1.44-5l.12-.46Z"/></g></svg>