<?xml version="1.0" encoding="utf-8"?>
<!-- Generator: Adobe Illustrator 27.2.0, SVG Export Plug-In . SVG Version: 6.00 Build 0)  -->
<svg version="1.1" xmlns="http://www.w3.org/2000/svg" xmlns:xlink="http://www.w3.org/1999/xlink" x="0px" y="0px"
	 viewBox="0 0 226.8 352.1" style="enable-background:new 0 0 226.8 352.1;" xml:space="preserve">
<style type="text/css">
	.st0{fill:#E94E1B;}
	.st1{fill:none;stroke:#FEFEFE;stroke-width:0.25;stroke-miterlimit:10;}
	.st2{fill:#FFFFFF;}
	.st3{fill:#00A7E1;}
	.st4{fill:#002C73;}
	.st5{fill:#FEFEFE;}
	.st6{fill:none;stroke:#002C73;stroke-width:4;stroke-miterlimit:10;}
	.st7{fill:none;stroke:#002C73;stroke-width:8;stroke-miterlimit:10;}
	.st8{fill:none;stroke:#FFFFFF;stroke-width:2;stroke-miterlimit:10;}
	.st9{fill:none;stroke:#FFFFFF;stroke-width:2;stroke-miterlimit:10;stroke-dasharray:6,8;}
	.st10{fill:#0075C9;stroke:#FFFFFF;stroke-linejoin:round;stroke-miterlimit:10;}
	.st11{fill:#0075C9;}
	.st12{fill:none;stroke:#FFFFFF;stroke-linejoin:round;stroke-miterlimit:10;}
	.st13{fill:none;stroke:#231F20;stroke-width:0.25;stroke-miterlimit:10;}
	.st14{fill:none;stroke:#002C73;stroke-width:7;stroke-miterlimit:10;}
	.st15{fill:none;stroke:#FFFFFF;stroke-width:4;stroke-miterlimit:10;}
	.st16{fill:none;stroke:#FFFFFF;stroke-width:4.1077;stroke-miterlimit:10;}
	.st17{fill:none;stroke:#FFFFFF;stroke-width:14;stroke-miterlimit:10;}
	.st18{fill:none;stroke:#FFFFFF;stroke-width:8.5;stroke-linecap:round;stroke-miterlimit:10;}
	.st19{fill:#FFBE2E;}
	.st20{fill:none;stroke:#FFFFFF;stroke-width:6.7936;stroke-miterlimit:10;}
	.st21{fill:#FFFFFF;stroke:#FFFFFF;stroke-width:4.8526;stroke-miterlimit:10;}
	.st22{fill:none;stroke:#FFFFFF;stroke-width:6.7936;stroke-linecap:round;stroke-miterlimit:10;}
</style>
<g id="Ruudukko">
</g>
<g id="Layer_1">
	<path class="st4" d="M185.5,0H41.3C18.5,0,0,18.5,0,41.3l0,86.2c0,37.9,10.5,75.1,30.2,107.5l65.5,107.3c8,13.2,27.1,13.2,35.2,0
		L196.5,235c19.8-32.4,30.2-69.6,30.2-107.5V41.3C226.8,18.5,208.3,0,185.5,0z"/>
	<path class="st2" d="M186.3,36.4c-2.3,0-4.1,1.8-4.1,4.1v1.4h-26.6c-0.2-0.7-0.8-1.2-1.6-1.3l-4.1-0.4c-1.1-0.1-2,0.7-2.1,1.7l0,0
		h-23.8c1.3-2.4,2-5.3,2-8.1c0-7.6-4.9-12.5-12.5-12.5c-7.6,0-12.5,4.9-12.5,12.5c0,2.9,0.7,5.7,2,8.1H79l0,0
		c-0.1-1.1-1.1-1.8-2.1-1.7l-4.1,0.4c-0.8,0.1-1.4,0.6-1.6,1.3H44.6v-1.4c0-2.3-1.8-4.1-4.1-4.1c-2.3,0-4.1,1.8-4.1,4.1v158.1h8.2
		V47.4h26.2l-1.6,28.2c-0.1,2.3,1.3,4.3,3.5,4.9c1.1,0.3,2.2,0.2,3.2-0.2l17.9-7.5c0.9-0.4,1.9-0.6,2.9-0.6l-5.1,47.2
		c-0.1,1.1,0.8,2.1,1.9,2.1h2l4,71c0.1,1,0.9,1.8,1.9,1.8l4.6,0c1,0,1.9-0.8,1.9-1.8l4-69.7h2.7l4,69.7c0.1,1,0.9,1.8,1.9,1.8l4.6,0
		c1,0,1.9-0.8,1.9-1.8l4-71h2c1.1,0,2-1,1.9-2.1L130,72.3c1,0,2,0.2,2.9,0.6l17.9,7.5c1,0.4,2.1,0.5,3.2,0.2
		c2.2-0.6,3.6-2.7,3.5-4.9l-1.6-28.2h26.2v151.2h8.2V40.5C190.4,38.2,188.5,36.4,186.3,36.4z M104.6,51.1l-8.1,2.5
		c-1.8,0.5-3.5,1.5-4.9,2.7L83.7,63c-0.7,0.6-1.5,0.9-2.4,0.9l-1.7-16.5h28.5c0.1,0,0.1,0.1,0.2,0.1
		C107.7,49.2,106.4,50.6,104.6,51.1z M145.5,63.9c-0.9,0-1.7-0.3-2.4-0.9l-7.9-6.7c-1.4-1.2-3.1-2.1-4.9-2.7l-8.1-2.5
		c-1.8-0.5-3.1-1.9-3.7-3.6c0.1,0,0.1-0.1,0.2-0.1h28.5L145.5,63.9z"/>
</g>
</svg>
