<?xml version="1.0" encoding="utf-8"?>
<!-- Generator: Adobe Illustrator 28.3.0, SVG Export Plug-In . SVG Version: 6.00 Build 0)  -->
<svg version="1.1" xmlns="http://www.w3.org/2000/svg" xmlns:xlink="http://www.w3.org/1999/xlink" x="0px" y="0px"
	 viewBox="0 0 208.1 187.7" style="enable-background:new 0 0 208.1 187.7;" xml:space="preserve">
<style type="text/css">
	.st0{fill:#002C73;}
	.st1{fill:#FEFEFE;}
	.st2{fill:#FFFFFF;}
	.st3{fill:none;stroke:#002C73;stroke-width:4;stroke-miterlimit:10;}
	.st4{fill:none;stroke:#231F20;stroke-width:0.25;stroke-miterlimit:10;}
	.st5{fill:none;stroke:#002C73;stroke-width:7;stroke-miterlimit:10;}
	.st6{fill:none;stroke:#FFFFFF;stroke-width:4;stroke-miterlimit:10;}
	.st7{fill:none;stroke:#FFFFFF;stroke-width:4.1077;stroke-miterlimit:10;}
	.st8{fill:none;stroke:#FFFFFF;stroke-width:14;stroke-miterlimit:10;}
	.st9{fill:none;stroke:#FFFFFF;stroke-width:8.5;stroke-linecap:round;stroke-miterlimit:10;}
	.st10{fill:#FFBE2E;}
	.st11{fill:none;stroke:#FFFFFF;stroke-width:6.7936;stroke-miterlimit:10;}
	.st12{fill:#FFFFFF;stroke:#FFFFFF;stroke-width:4.8526;stroke-miterlimit:10;}
	.st13{fill:none;stroke:#FFFFFF;stroke-width:6.7936;stroke-linecap:round;stroke-miterlimit:10;}
	.st14{fill:none;}
	.st15{fill:#FF6B00;}
	.st16{fill:#FCFDFF;}
	.st17{fill:#EECC00;}
	.st18{fill:#E30613;}
	.st19{fill:#FF6400;}
	.st20{fill:#2C2C2C;}
	.st21{fill:none;stroke:#FF6400;stroke-width:10.2545;stroke-linecap:round;stroke-miterlimit:10;}
	.st22{fill:none;stroke:#2B2B2B;stroke-width:10.2545;stroke-linecap:round;stroke-miterlimit:10;}
	.st23{fill:none;stroke:#FFFFFF;stroke-width:8;stroke-miterlimit:10;}
	.st24{fill:#002C73;stroke:#FFFFFF;stroke-width:8;stroke-miterlimit:10;}
	.st25{clip-path:url(#SVGID_00000016043256908489910290000014785909101244755585_);fill:#002C73;}
	.st26{clip-path:url(#SVGID_00000016043256908489910290000014785909101244755585_);fill:#FFFFFF;}
	.st27{clip-path:url(#SVGID_00000016043256908489910290000014785909101244755585_);fill:#FF6B00;}
	.st28{fill:none;stroke:#FFFFFF;stroke-width:5.5;stroke-miterlimit:10;}
	
		.st29{fill:none;stroke:#FFFFFF;stroke-width:8;stroke-linecap:round;stroke-linejoin:round;stroke-miterlimit:10;stroke-dasharray:1.6319,19.5829;}
	.st30{fill:none;stroke:#FFFFFF;stroke-width:12;stroke-miterlimit:10;}
	.st31{fill:none;stroke:#FFFFFF;stroke-width:10;stroke-miterlimit:10;}
	.st32{fill:none;stroke:#FFFFFF;stroke-width:7.7654;stroke-linejoin:round;stroke-miterlimit:10;}
	.st33{fill:none;stroke:#FFFFFF;stroke-width:7.7654;stroke-linecap:round;stroke-linejoin:round;stroke-miterlimit:10;}
	.st34{fill:#FFFFFF;stroke:#FFFFFF;stroke-width:7.7654;stroke-linecap:round;stroke-linejoin:round;stroke-miterlimit:10;}
	.st35{fill:none;stroke:#000000;stroke-width:7;stroke-miterlimit:10;}
</style>
<g id="Ruudukko">
</g>
<g id="Layer_1">
	<g>
		<path d="M126.8,169.2h7.1c13.7,0,27.3-0.6,41-1.9v13.5c0,2.3,1.9,4.2,4.2,4.2h14.1c2.3,0,4.2-1.9,4.2-4.2v-15.6l3.4-0.3
			c2.9-0.3,5.1-2.7,5.1-5.6V113c0-19.8-1.1-39.6-3.3-59.3L199,20.5c-0.9-8-7.2-14.2-15.2-15l-0.6-0.1c-18.7-1.9-37.6-2.8-56.4-2.8
			V14h28.7c1.3,0,2.4,1.1,2.4,2.4v3.7c0,1.3-1.1,2.4-2.4,2.4h-28.7v9.9h57.5c2.9,0,5.3,2.2,5.6,5.1l2.7,25.7
			c1.4,13.4,2.1,26.9,2.1,40.4l0,0c0,2.9-2.3,5.4-5.2,5.6l-16.3,1.3c-12.1,1-24.1,1.5-36.2,1.5h-10.1V169.2z M170.6,139.8
			c0-5.5,4.4-9.9,9.9-9.9c5.5,0,9.9,4.4,9.9,9.9c0,5.5-4.4,9.9-9.9,9.9C175.1,149.7,170.6,145.3,170.6,139.8z"/>
		<g>
			<path d="M24.8,60.1l0,65.3c0,5.6,1.7,11.1,4.8,15.7l5.2,7.8c2.6,3.9,7.1,6.3,11.8,6.3h8c0.8,0,1.4,0.6,1.4,1.4v8.5
				c0,1.6,1.3,2.8,2.8,2.8h34v-56.7H64.2c-3.2,0-6-2.1-6.8-5.2l-13.6-50c-1-3.6,1.7-7.2,5.5-7.2h43.6V2.6c-8.9,0-17.7,0.1-26.6,0.4
				h0c-9.9,0.3-18.9,5.8-23.8,14.4L30.2,39.3C26.6,45.6,24.8,52.8,24.8,60.1z M38.9,134c0-4.7,3.8-8.5,8.5-8.5s8.5,3.8,8.5,8.5
				c0,4.7-3.8,8.5-8.5,8.5S38.9,138.7,38.9,134z"/>
			<path d="M3.5,176.5h32.6v-9.7c0-0.9,0.7-1.6,1.6-1.6h8.1c0.9,0,1.6,0.7,1.6,1.6v9.7h45.4v8.5H3.5c-0.8,0-1.4-0.6-1.4-1.4V178
				C2.1,177.2,2.7,176.5,3.5,176.5z"/>
		</g>
		<rect x="106.3" y="2.6" width="7" height="182.4"/>
	</g>
</g>
</svg>
