<?xml version="1.0" encoding="utf-8"?>
<!-- Generator: Adobe Illustrator 27.3.1, SVG Export Plug-In . SVG Version: 6.00 Build 0)  -->
<svg version="1.1" xmlns="http://www.w3.org/2000/svg" xmlns:xlink="http://www.w3.org/1999/xlink" x="0px" y="0px"
	 viewBox="0 0 226.8 352.1" style="enable-background:new 0 0 226.8 352.1;" xml:space="preserve">
<style type="text/css">
	.st0{fill:#E94E1B;}
	.st1{fill:none;stroke:#FEFEFE;stroke-width:0.25;stroke-miterlimit:10;}
	.st2{fill:#FFFFFF;}
	.st3{fill:#00A7E1;}
	.st4{fill:#002C73;}
	.st5{fill:#FEFEFE;}
	.st6{fill:none;stroke:#002C73;stroke-width:4;stroke-miterlimit:10;}
	.st7{fill:none;stroke:#002C73;stroke-width:8;stroke-miterlimit:10;}
	.st8{fill:none;stroke:#FFFFFF;stroke-width:2;stroke-miterlimit:10;}
	.st9{fill:none;stroke:#FFFFFF;stroke-width:2;stroke-miterlimit:10;stroke-dasharray:6,8;}
	.st10{fill:#0075C9;stroke:#FFFFFF;stroke-linejoin:round;stroke-miterlimit:10;}
	.st11{fill:#0075C9;}
	.st12{fill:none;stroke:#FFFFFF;stroke-linejoin:round;stroke-miterlimit:10;}
	.st13{fill:none;stroke:#231F20;stroke-width:0.25;stroke-miterlimit:10;}
	.st14{fill:none;stroke:#002C73;stroke-width:7;stroke-miterlimit:10;}
	.st15{fill:none;stroke:#FFFFFF;stroke-width:4;stroke-miterlimit:10;}
	.st16{fill:none;stroke:#FFFFFF;stroke-width:4.1077;stroke-miterlimit:10;}
	.st17{fill:none;stroke:#FFFFFF;stroke-width:14;stroke-miterlimit:10;}
	.st18{fill:none;stroke:#FFFFFF;stroke-width:8.5;stroke-linecap:round;stroke-miterlimit:10;}
	.st19{fill:#FFBE2E;}
	.st20{fill:none;stroke:#FFFFFF;stroke-width:6.7936;stroke-miterlimit:10;}
	.st21{fill:#FFFFFF;stroke:#FFFFFF;stroke-width:4.8526;stroke-miterlimit:10;}
	.st22{fill:none;stroke:#FFFFFF;stroke-width:6.7936;stroke-linecap:round;stroke-miterlimit:10;}
	.st23{fill:none;}
</style>
<g id="Ruudukko">
</g>
<g id="Layer_1">
	<g>
		<path class="st4" d="M185.5,0H41.3C18.5,0,0,18.5,0,41.3l0,86.2c0,37.9,10.5,75.1,30.2,107.5l65.5,107.3c8,13.2,27.1,13.2,35.2,0
			L196.5,235c19.8-32.4,30.2-69.6,30.2-107.5V41.3C226.8,18.5,208.3,0,185.5,0z"/>
		<g>
			<g>
				<path class="st5" d="M81.7,85.9c1-0.6,1.9-1.5,2.4-2.6L92.7,65c0.8-1.8,2-3.3,3.5-4.6l9.1-8c0.5-0.4,0.8-1,0.9-1.7l0.3-2.3
					c-4.9-2.4-7.9-8.3-7.9-14.3c0-7.8,5.1-12.9,12.9-12.9s12.9,5.1,12.9,12.9c0,5.8-2.8,11.5-7.5,14.1l0.2,0.9
					c0.1,0.7,0.6,1.4,1.2,1.8l8.8,6c2.4,1.7,4.6,3.7,6.4,6l10.8,13.9c2.2,2.9,3.3,6.5,2.9,10.2l-2.6,24.4c-0.2,1.9-1.6,3.4-3.5,3.7
					l-5.3,0.9L134.5,90c-0.1-1.4-0.7-2.7-1.7-3.7l-3.5-3.5c-0.4-0.4-0.9-0.6-1.4-0.6h-1.3l7.5,42.5c0.2,0.9-0.3,1.7-1.1,2.1
					l-1.5,0.8l2.7,29.7c0.1,1,0.3,1.9,0.8,2.8l17.8,38.4l-8.5,4.3l-9.9,4.9l-0.7-1.5c-0.6-1.3-0.2-2.8,0.9-3.6l5-3.4l1.6-1.4
					l-21.1-34c-0.9-1.5-1.5-3.1-1.9-4.8l-4.5-23h-0.7c-0.9,0-1.7,0.6-1.9,1.4l-7.5,25c-0.4,1.3-0.7,2.7-1,4l-7.4,37.7h-2.3H74.8
					v-1.6c0-1.4,1-2.6,2.5-2.8l6-0.8l3.3-0.9l2.2-32.9c0.2-2.3,0.4-4.6,0.8-6.9l5.1-30.6l-1.5-0.8c-0.8-0.4-1.2-1.2-1.1-2.1l5.4-34
					h-1c-0.7,0-1.3,0.4-1.7,0.9l-0.3,0.5c-1.7,2.7-4.3,4.8-7.3,5.9l-20.8,7.3c-1.7,0.6-3.6,0.1-4.7-1.4l-3.8-4.7L81.7,85.9z"/>
			</g>
		</g>
		<polygon class="st2" points="125.1,226.1 101.4,226.1 103.3,186.9 123.3,186.9 		"/>
		<g>
			<path class="st2" d="M74.8,207.2h-3v-3v-1.6c0-2.9,2.2-5.4,5-5.8l5.9-0.8l1-0.3l0.6-8.8h-17l-12.5,39.2h23.7l4.1-19H74.8z"/>
		</g>
		<g>
			<polygon class="st2" points="152.8,198.5 147.4,186.9 139.7,186.9 143.3,203.2 144.3,202.7 			"/>
			<polygon class="st2" points="159.5,186.9 150.7,186.9 155.5,197.2 156.8,199.9 154.2,201.2 145.6,205.4 144,206.3 148.3,226.1 
				172,226.1 			"/>
		</g>
		<g>
			<path class="st23" d="M185.5,0H41.3C18.5,0,0,18.5,0,41.3v86.2c0,28.6,6,56.9,17.4,82.9l13.5-23.6h19.2l-18,39.2h-7
				c1.6,3,3.3,6,5.1,8.9l65.5,107.3c8,13.2,27.1,13.2,35.2,0L196.5,235c1.8-2.9,3.5-5.9,5.1-8.9h-7l-18-39.2h19.2l13.5,23.6
				c11.4-26,17.4-54.3,17.4-82.9V41.3C226.8,18.5,208.3,0,185.5,0z"/>
			<path class="st2" d="M50.1,186.9H30.9l-13.5,23.6c2.3,5.3,4.9,10.5,7.7,15.7h7L50.1,186.9z"/>
			<path class="st2" d="M176.6,186.9l18,39.2h7c2.8-5.1,5.4-10.3,7.7-15.7l-13.5-23.6H176.6z"/>
		</g>
	</g>
</g>
</svg>
