<svg xmlns="http://www.w3.org/2000/svg" xml:space="preserve" style="enable-background:new 0 0 226.8 352.1" viewBox="0 0 226.8 352.1"><style>.st2{fill:#fff}</style><g id="Layer_1"><path d="M185.5 0H41.3C18.5 0 0 18.5 0 41.3v86.2c0 37.9 10.5 75.1 30.2 107.5l65.5 107.3c8 13.2 27.1 13.2 35.2 0L196.5 235c19.8-32.4 30.2-69.6 30.2-107.5V41.3C226.8 18.5 208.3 0 185.5 0z" style="fill:#002c73"/><path d="M31.8 90.1H20.2c-2.1 0-3.9-1.7-3.9-3.9s1.7-3.9 3.9-3.9h11.6c2.1 0 3.9 1.7 3.9 3.9s-1.7 3.9-3.9 3.9zM86.2 35.7c-2.1 0-3.9-1.7-3.9-3.9V20.2c0-2.1 1.7-3.9 3.9-3.9s3.9 1.7 3.9 3.9v11.6c0 2.2-1.7 3.9-3.9 3.9zM29 123.1c-1.3 0-2.6-.7-3.4-1.9-1.1-1.9-.4-4.2 1.4-5.3l10.1-5.8c1.9-1.1 4.2-.4 5.3 1.4 1.1 1.9.4 4.2-1.4 5.3l-10 5.8c-.6.3-1.3.5-2 .5zM133.3 62.9c-1.3 0-2.6-.7-3.4-1.9-1.1-1.9-.4-4.2 1.4-5.3l10.1-5.8c1.9-1.1 4.2-.4 5.3 1.4 1.1 1.9.4 4.2-1.4 5.3l-10.1 5.8c-.6.3-1.3.5-1.9.5zM59 43c-1.3 0-2.6-.7-3.4-1.9L49.8 31c-1.1-1.9-.4-4.2 1.4-5.3 1.9-1.1 4.2-.4 5.3 1.4l5.8 10.1c1.1 1.9.4 4.2-1.4 5.3-.5.3-1.2.5-1.9.5zM113.4 43c-.7 0-1.3-.2-1.9-.5-1.9-1.1-2.5-3.4-1.4-5.3l5.8-10.1c1.1-1.9 3.4-2.5 5.3-1.4s2.5 3.4 1.4 5.3l-5.8 10.1c-.8 1.2-2.1 1.9-3.4 1.9zM39.1 62.9c-.7 0-1.3-.2-1.9-.5l-10.1-5.8c-1.9-1.1-2.5-3.4-1.4-5.3s3.4-2.5 5.3-1.4l10.1 5.8c1.9 1.1 2.5 3.4 1.4 5.3-.7 1.2-2 1.9-3.4 1.9zM58.6 118.8c2-1.8 4.1-3.4 6.5-4.7-8.4-6.4-13.9-16.5-13.9-27.8 0-19.3 15.7-34.9 34.9-34.9 16.3 0 30 11.2 33.9 26.3 2.1-1.8 4.3-3.4 6.7-4.8C121 55.7 105 43.5 86.2 43.5c-23.6 0-42.7 19.2-42.7 42.7 0 13 5.9 24.7 15.1 32.6zM179.4 171.6H82.3c-15 0-27.2-12.2-27.2-27.2s12.2-27.2 27.2-27.2h.3c1.9-11 11.4-19.4 23-19.4 3.2 0 6.3.7 9.2 1.9 4.2-14.7 17.8-25.2 33.6-25.2 19.3 0 34.9 15.7 34.9 34.9v.2c15.3 1.9 27.2 15 27.2 30.8 0 17.3-14 31.2-31.1 31.2zm-.3-58.2zM126.2 192.4c-.9-1.6-2.9-2.1-4.5-1.2l-10.2 5.9v-11.8c0-1.8-1.5-3.3-3.3-3.3-1.8 0-3.3 1.5-3.3 3.3V197l-10.2-5.9c-1.6-.9-3.6-.4-4.5 1.2-.9 1.6-.4 3.6 1.2 4.5l10.2 5.9-10.2 5.9c-1.6.9-2.1 2.9-1.2 4.5.6 1 1.7 1.6 2.8 1.6.6 0 1.1-.1 1.6-.4l10.2-5.9v11.8c0 1.8 1.5 3.3 3.3 3.3 1.8 0 3.3-1.5 3.3-3.3v-11.8l10.2 5.9c.5.3 1.1.4 1.6.4 1.1 0 2.2-.6 2.8-1.6.9-1.6.4-3.6-1.2-4.5l-10.2-5.9 10.2-5.9c1.8-.9 2.3-2.9 1.4-4.4zM175.1 192.4c-.9-1.6-2.9-2.1-4.5-1.2l-10.2 5.9v-11.8c0-1.8-1.5-3.3-3.3-3.3-1.8 0-3.3 1.5-3.3 3.3V197l-10.2-5.9c-1.6-.9-3.6-.4-4.5 1.2-.9 1.6-.4 3.6 1.2 4.5l10.2 5.9-10.2 5.9c-1.6.9-2.1 2.9-1.2 4.5.6 1 1.7 1.6 2.8 1.6.6 0 1.1-.1 1.6-.4l10.2-5.9v11.8c0 1.8 1.5 3.3 3.3 3.3 1.8 0 3.3-1.5 3.3-3.3v-11.8l10.2 5.9c.5.3 1.1.4 1.6.4 1.1 0 2.2-.6 2.8-1.6.9-1.6.4-3.6-1.2-4.5l-10.2-5.9 10.2-5.9c1.7-.9 2.3-2.9 1.4-4.4z" class="st2"/></g></svg>