<svg xmlns="http://www.w3.org/2000/svg" viewBox="0 0 226.77 352.16"><defs><style>.cls-1{fill:#002c73;}.cls-2{fill:#fff;}</style></defs><g id="Layer_2" data-name="Layer 2"><g id="Layer_1-2" data-name="Layer 1"><path class="cls-1" d="M185.47,0H41.3A41.3,41.3,0,0,0,0,41.3v86.24A206.12,206.12,0,0,0,30.25,235L95.79,342.3a20.63,20.63,0,0,0,35.19,0L196.53,235a206.11,206.11,0,0,0,30.24-107.49V41.3A41.3,41.3,0,0,0,185.47,0Z"/><path class="cls-2" d="M175.75,151.65a15.59,15.59,0,1,0,15.59,15.59A15.59,15.59,0,0,0,175.75,151.65Zm0,22.68a7.09,7.09,0,1,1,7.08-7.09A7.08,7.08,0,0,1,175.75,174.33Z"/><path class="cls-2" d="M51,151.65a15.59,15.59,0,1,0,15.59,15.59A15.59,15.59,0,0,0,51,151.65Zm0,22.68a7.09,7.09,0,1,1,7.09-7.09A7.08,7.08,0,0,1,51,174.33Z"/><path class="cls-2" d="M184.25,134.65h-8.5a32.61,32.61,0,0,0-32.1,26.92H90.3a2.83,2.83,0,0,1-2.45-1.41l-11.43-19.8L80.29,121a17,17,0,0,0-11.76-19.61l8.73-43.61a7.11,7.11,0,0,0-4.44-8A7,7,0,0,0,71,49.32l-7.34-.74A5.67,5.67,0,1,0,62.83,57l5.78.58L51.5,143.16a24.08,24.08,0,0,1,20.39,12L78,165.83a14.17,14.17,0,0,0,12.27,7.08h58.52a2.83,2.83,0,0,0,2.83-2.83v-2.84a24.1,24.1,0,0,1,24.1-24.09A8.51,8.51,0,0,0,184.25,134.65Z"/></g></g></svg>