<svg width="40" height="40"
    xmlns="http://www.w3.org/2000/svg">
    <path d="M34.592 32.675a1.709 1.709 0 1 1 0-3.417 1.709 1.709 0 0 1 0 3.417m0-5.467a3.759 3.759 0 1 0 0 7.518 3.759 3.759 0 0 0 0-7.518" style="fill-opacity:1;fill-rule:nonzero;stroke:none;stroke-width:.241091"/>
    <path d="M0 0a7.086 7.086 0 0 0 0 14.173A7.087 7.087 0 1 0 0 0m0 22.677c-8.61 0-15.591-6.98-15.591-15.59C-15.591-1.524-8.61-8.504 0-8.504c8.611 0 15.591 6.98 15.591 15.591 0 8.61-6.98 15.59-15.591 15.59" style="fill-opacity:1;fill-rule:nonzero;stroke:none" transform="matrix(.2411 0 0 -.2411 6.11 32.597)"/>
    <path d="M0 0h-8.504c-16.069 0-29.412-11.63-32.097-26.929h-53.35c-1.012 0-1.948.54-2.455 1.417l-11.428 19.796 3.875 19.377c1.734 8.672-3.46 17.116-11.759 19.613l8.723 43.614c.645 3.225-1.011 6.677-4.435 8.025a6.812 6.812 0 0 1-1.815.417l-7.333.733a5.647 5.647 0 0 1-4.146 1.812 5.67 5.67 0 0 1 0-11.339c1.233 0 2.37.398 3.3 1.066l5.784-.579-17.108-85.539c8.715-.171 16.291-4.965 20.383-12.035l6.14-10.632a14.173 14.173 0 0 1 12.273-7.085h58.519a2.835 2.835 0 0 1 2.835 2.835v2.837C-32.597-19.29-21.81-8.504-8.504-8.504A8.504 8.504 0 0 1 0 0" style="fill-opacity:1;fill-rule:nonzero;stroke:none" transform="matrix(.2411 0 0 -.2411 37.496 24.29)"/>
</svg>