<svg xmlns="http://www.w3.org/2000/svg" viewBox="0 0 226.77 352.15"><defs><style>.cls-1{fill:#002c73;}.cls-2{fill:#fff;}</style></defs><g id="Layer_1" data-name="Layer 1"><path class="cls-1" d="M185.47,0H41.3A41.31,41.31,0,0,0,0,41.3v86.23A206.18,206.18,0,0,0,30.25,235L95.79,342.29a20.63,20.63,0,0,0,35.19,0L196.53,235a206.17,206.17,0,0,0,30.24-107.5V41.3A41.31,41.31,0,0,0,185.47,0Z"/><path class="cls-2" d="M210.25,121.31l-3-.33a5.29,5.29,0,0,0-5.73,4h0a5.27,5.27,0,0,1-4.76,4l-13.37-26A19.87,19.87,0,0,0,168.09,92.3h0a323.3,323.3,0,0,0-75.39,0h0a19.85,19.85,0,0,0-15.33,10.63L64,128.94a5.29,5.29,0,0,1-4.77-4h0a5.28,5.28,0,0,0-5.72-4l-3,.33A5.82,5.82,0,0,0,50,132.79L61,135.16a56.66,56.66,0,0,0-4.35,21.71V183.4A5.68,5.68,0,0,0,61.76,189l.62.07a89.61,89.61,0,0,0,.88,11.33,4.25,4.25,0,0,0,4.21,3.65H77.1a4.25,4.25,0,0,0,4.21-3.65h0a88.18,88.18,0,0,0,.83-9.31q18.44,1.6,37,1.62H141.7q18.5,0,37-1.62a88.18,88.18,0,0,0,.83,9.31,4.25,4.25,0,0,0,4.21,3.65h9.63a4.25,4.25,0,0,0,4.21-3.65h0a89.6,89.6,0,0,0,.87-11.33L199,189a5.67,5.67,0,0,0,5.06-5.64V156.87a56.65,56.65,0,0,0-4.34-21.71l11.08-2.37a5.82,5.82,0,0,0-.58-11.48ZM87,165.82H75.5a8.89,8.89,0,0,1-8.89-8.89h0a8.9,8.9,0,0,1,10.72-8.7l11.25,2.37A7.69,7.69,0,0,1,87,165.82Zm-9-32.6a2.83,2.83,0,0,1-2.6-4L86,105a8.49,8.49,0,0,1,6.67-5,285.85,285.85,0,0,1,75.52,0h0a8.49,8.49,0,0,1,6.68,5l10.53,24.23a2.83,2.83,0,0,1-2.6,4Zm116.15,23.71a8.89,8.89,0,0,1-8.88,8.89h-11.5a7.69,7.69,0,0,1-1.58-15.22l11.24-2.37a8.89,8.89,0,0,1,10.72,8.7Z"/><path class="cls-2" d="M62.36,21.25a41.11,41.11,0,1,0,5.36,81.85L69.81,99a28.3,28.3,0,0,1,21.9-15.18c2-.24,4-.45,6.07-.65a41.11,41.11,0,0,0-35.42-62ZM84,73.13A10.71,10.71,0,0,1,77.9,71.2L63,82.17a10.92,10.92,0,0,1,.48,3.2,10.77,10.77,0,1,1-4.63-8.84l14.93-11a10.94,10.94,0,0,1,0-6.41l-14.93-11a10.77,10.77,0,1,1,4.63-8.85A11,11,0,0,1,63,42.55l14.93,11A10.77,10.77,0,1,1,84,73.13Z"/></g></svg>