<svg xmlns="http://www.w3.org/2000/svg" viewBox="0 0 226.77 352.16"><defs><style>.cls-1{fill:#002c73;}.cls-2{fill:#fefefe;}</style></defs><g id="Layer_2" data-name="Layer 2"><g id="Layer_1-2" data-name="Layer 1"><path class="cls-1" d="M185.47,0H41.3A41.3,41.3,0,0,0,0,41.3v86.24A206.12,206.12,0,0,0,30.25,235L95.79,342.3a20.63,20.63,0,0,0,35.19,0L196.53,235a206.11,206.11,0,0,0,30.24-107.49V41.3A41.3,41.3,0,0,0,185.47,0Z"/><path class="cls-2" d="M181.42,45.35H170.08V34a5.67,5.67,0,0,0-5.67-5.67h-34a5.65,5.65,0,0,0-5.48,4.25H90.12A32.56,32.56,0,0,0,58.51,57.23L31,166.36a30.32,30.32,0,1,0,59.72,7.41V104.88h1.42a1.41,1.41,0,0,0,1.41-1.42V90.71h8.51v112a1.41,1.41,0,0,0,1.41,1.41h87.88a1.41,1.41,0,0,0,1.41-1.41v-146A11.34,11.34,0,0,0,181.42,45.35ZM102.05,56.69V68L85.81,72.09a8.51,8.51,0,0,0-6.44,8.25v23.12a1.41,1.41,0,0,0,1.42,1.42h1.42v68.89a21.82,21.82,0,1,1-43-5.33L66.75,59.31A24.08,24.08,0,0,1,90.12,41.1h34.6v4.25H113.39A11.34,11.34,0,0,0,102.05,56.69Zm57.53,112.53a2.83,2.83,0,0,1-2,.86H154c15.69-16.62-6.28-27.8-.69-39-22.21,11.11-22.66,27.65-12,39h-4a2.86,2.86,0,0,1-2-.85c-21.83-22.4-21.27-44.79,23.52-67.18C147.5,124.53,192,135.87,159.58,169.22Zm21.84-81.35a2.84,2.84,0,0,1-2.84,2.84H116.22a2.83,2.83,0,0,1-2.83-2.84V59.53a2.83,2.83,0,0,1,2.83-2.84h62.36a2.84,2.84,0,0,1,2.84,2.84Z"/></g></g></svg>