<svg xmlns="http://www.w3.org/2000/svg" width="55.574" height="62.739"><defs><filter id="a" x="0" y="0" width="55.574" height="62.739" filterUnits="userSpaceOnUse"><feOffset dy="3"/><feGaussianBlur stdDeviation="3" result="blur"/><feFlood flood-opacity=".251"/><feComposite operator="in" in2="blur"/><feComposite in="SourceGraphic"/></filter></defs><path data-name="Path 2243" d="M40.018 37.003 27.786 49.24l-12.23-12.237a17.287 17.287 0 1 1 24.462 0" fill="#fff"/><g transform="translate(0 .001)" filter="url(#a)"><path data-name="Path 2244" d="M40.018 37.002 27.786 49.239l-12.23-12.237a17.287 17.287 0 1 1 24.462 0Z" fill="#fff" stroke="#f39c12" stroke-linecap="round" stroke-linejoin="round" stroke-width="3"/></g><path data-name="Path 2245" d="M18.588 28.35s4.3-3.751 4.3-7.28c0-2.07-1.269-3.148-3.679-3.148a4.946 4.946 0 0 0-2.7.757l.188 1.9a4.4 4.4 0 0 1 2.368-.919 1.641 1.641 0 0 1 1.745 1.531v.122c0 1.581-1.313 3.563-3.814 6.173l-.72.774v1.783h6.714V28.35Z" fill="#f39c12"/><path data-name="Path 2246" d="m27.967 18.021-4.156 7.452v2.008h4.571v2.561h1.889V18.021Zm.418 7.877h-3.031l3.031-5.8Z" fill="#f39c12"/><path data-name="Path 2247" d="M35.881 24.231a3.281 3.281 0 0 0 2.5-3.19 2.975 2.975 0 0 0-3.267-2.995h-3.368v12h1.172v-5.634h1.816l3.3 5.634h1.256Zm-1.562-.823h-1.4v-4.346h1.927a2.123 2.123 0 0 1 2.391 2.059c0 1.34-1.183 2.289-2.918 2.29Z"/></svg>