<svg xmlns="http://www.w3.org/2000/svg" viewBox="0 0 226.77 352.15"><defs><style>.cls-1{fill:#002c73;}.cls-2{fill:#fff;}</style></defs><g id="Layer_1" data-name="Layer 1"><path class="cls-1" d="M185.47,0H41.3A41.31,41.31,0,0,0,0,41.3v86.23A206.18,206.18,0,0,0,30.25,235L95.79,342.29a20.63,20.63,0,0,0,35.19,0L196.53,235a206.17,206.17,0,0,0,30.24-107.5V41.3A41.31,41.31,0,0,0,185.47,0Z"/><path class="cls-2" d="M143.33,85.92A5.7,5.7,0,0,1,141,83.37L132.35,65a14.1,14.1,0,0,0-3.45-4.61l-9.07-8a2.85,2.85,0,0,1-.93-1.71l-.34-2.26c4.93-2.42,7.92-8.29,7.92-14.29,0-7.83-5.08-12.9-12.92-12.9s-12.93,5.07-12.93,12.9c0,5.81,2.81,11.51,7.47,14.06l-.17.93A2.84,2.84,0,0,1,106.74,51l-8.81,6a28.51,28.51,0,0,0-6.41,6L80.73,77a14.15,14.15,0,0,0-2.88,10.18l2.6,24.42A4.26,4.26,0,0,0,84,115.33l5.32.88L90.6,90.05a5.69,5.69,0,0,1,1.65-3.73l3.55-3.54a2,2,0,0,1,1.4-.58h1.3L91,124.68A2,2,0,0,0,92,126.8l1.51.75-2.7,29.71a8.49,8.49,0,0,1-.76,2.81l-17.8,38.35,8.51,4.25,9.87,4.94.74-1.46a2.84,2.84,0,0,0-.94-3.61l-5-3.44-1.56-1.39,21-33.93A14.16,14.16,0,0,0,106.8,159l4.46-22.95h.65a2,2,0,0,1,1.9,1.41l7.48,24.95c.4,1.32.73,2.66,1,4l7.39,37.65h20.56v-1.64a2.84,2.84,0,0,0-2.45-2.81l-6-.82-3.26-.88-2.19-32.88q-.24-3.5-.81-6.94l-5.1-30.57,1.54-.76A2,2,0,0,0,133,124.7l-5.44-34h1a2,2,0,0,1,1.68.93l.32.52A14.24,14.24,0,0,0,137.93,98l20.8,7.28a4.27,4.27,0,0,0,4.73-1.36l3.78-4.73Z"/><path class="cls-2" d="M180.71,87.06l-8.26-3.78a1.43,1.43,0,0,0-1.82.58L165,93.48l7.82,4.34a.44.44,0,0,1,.13.66l-5.77,7.21,2.41,1.1a1.41,1.41,0,0,0,1.82-.58l9.91-17.16a1.41,1.41,0,0,0-.64-2"/></g></svg>