<svg width="35" height="35" xmlns="http://www.w3.org/2000/svg"><path d="M0 0c-10.649 0-19.872 6.214-24.239 15.205l25.573 6.207c.056.014.089.032.137.048a5.665 5.665 0 0 1 4.198 5.469 5.67 5.67 0 0 1-4.423 5.528l-13.399 18.491A26.748 26.748 0 0 0 0 53.858c14.849 0 26.929-12.08 26.929-26.929C26.929 12.08 14.849 0 0 0m-40.706 71.575-8.656-39.146a11.285 11.285 0 0 1-2.118-.571l-36.701 39.717Zm16.626-18.661c-5.668-5.255-9.613-12.339-10.896-20.316h-5.639l7.307 33.05zm14.721-20.316h-16.964a26.904 26.904 0 0 0 7.285 13.358zm-77.098-5.669C-86.457 12.08-98.537 0-113.386 0c-14.848 0-26.929 12.08-26.929 26.929 0 14.849 12.081 26.929 26.929 26.929.357 0 .711-.013 1.064-.027l-4.496-22.397a5.656 5.656 0 0 1-2.237-4.505 5.669 5.669 0 1 1 11.339 0 5.634 5.634 0 0 1-.764 2.833l4.497 22.399c10.225-3.823 17.526-13.689 17.526-25.232M0 62.362a35.27 35.27 0 0 1-17.197-4.453l-13.655 18.844 2.347 10.613.033-.009 3.648-.977c7.126-1.91 14.124 3.459 14.124 10.836a2.925 2.925 0 0 1-2.925 2.924h-34.951a4.528 4.528 0 0 1-.613-9.014l6.274-.858c2.049-.28 4.088-.627 6.118-1.015l-2.028-9.174H-97.9c-.164 0-.325-.017-.486-.036l.953 4.746a12.761 12.761 0 0 1-2.199 10.027l-1.139 1.562h10.063a8.503 8.503 0 0 1 8.503 8.504h-18.274c-3.114 0-6.102-1.551-7.656-4.25a8.473 8.473 0 0 1 .493-9.264l1.139-1.563a4.26 4.26 0 0 0 .732-3.341l-4.862-24.219c-.909.07-1.825.117-2.753.117-19.569 0-35.433-15.864-35.433-35.433s15.864-35.433 35.433-35.433S-77.953 7.36-77.953 26.929c0 15.694-10.206 28.995-24.34 33.652l2.265 11.283 42.302-45.778a11.27 11.27 0 0 1-1.09-4.826c0-6.199 4.977-11.229 11.152-11.329.797-.067 1.734.009 2.876.286l12.13 2.944C-27.285.431-14.686-8.504 0-8.504c19.569 0 35.433 15.864 35.433 35.433S19.569 62.362 0 62.362" style="fill-opacity:1;fill-rule:nonzero;stroke:none" transform="matrix(.15197 0 0 -.15197 26.398 26.996)"/></svg>