<svg xmlns="http://www.w3.org/2000/svg" xml:space="preserve" style="enable-background:new 0 0 226.8 352.1" viewBox="0 0 226.8 352.1"><style>.st2{fill:#fff}</style><g id="Layer_1"><path d="M185.5 0H41.3C18.5 0 0 18.5 0 41.3v86.2c0 37.9 10.5 75.1 30.2 107.5l65.5 107.3c8 13.2 27.1 13.2 35.2 0L196.5 235c19.8-32.4 30.2-69.6 30.2-107.5V41.3C226.8 18.5 208.3 0 185.5 0z" style="fill:#002c73"/><path d="M12.3 127.1c0 2.7 1.9 5.1 4.6 5.7l11.1 2.4c-2.8 6.9-4.3 14.2-4.3 21.7v26.5c0 2.9 2.2 5.3 5.1 5.6l.6.1c.1 3.8.3 7.6.9 11.3.3 2.1 2.1 3.7 4.2 3.7H44c2.1 0 3.9-1.6 4.2-3.7.4-3.1.7-6.2.8-9.3 12.3 1.1 24.6 1.6 36.9 1.6h22.6c12.3 0 24.7-.5 37-1.6.1 3.1.4 6.2.8 9.3.3 2.1 2.1 3.7 4.2 3.7h9.6c2.1 0 3.9-1.6 4.2-3.7.5-3.8.8-7.5.9-11.3l.6-.1c2.9-.3 5.1-2.7 5.1-5.6v-26.5c0-7.5-1.5-14.8-4.3-21.7l11.1-2.4c2.7-.6 4.6-2.9 4.6-5.7 0-3-2.2-5.5-5.2-5.8l-3-.3c-2.6-.3-5.1 1.4-5.7 4-.6 2.2-2.5 3.8-4.8 4l-13.4-26c-3-5.9-8.8-9.9-15.3-10.6-25-2.9-50.3-2.9-75.4 0-6.6.8-12.3 4.8-15.3 10.6l-13.4 26c-2.3-.2-4.2-1.7-4.8-4-.6-2.6-3.1-4.3-5.7-4l-3 .3c-2.8.3-5 2.8-5 5.8zm120.9 29.5c.6-3 2.9-5.4 6-6l11.2-2.4c5.5-1.2 10.7 3.1 10.7 8.7 0 4.9-4 8.9-8.9 8.9h-11.5c-4.8 0-8.5-4.4-7.5-9.2zM45 133.2c-2 0-3.4-2.1-2.6-4L52.9 105c1.2-2.7 3.7-4.6 6.7-5 25.1-3.3 50.5-3.3 75.5 0 3 .4 5.5 2.3 6.7 5l10.5 24.2c.8 1.9-.6 4-2.6 4H45zm-11.4 23.7c0-5.6 5.2-9.9 10.7-8.7l11.2 2.4c3 .6 5.4 3 6 6 1 4.8-2.7 9.2-7.5 9.2H42.4c-4.9 0-8.8-4-8.8-8.9zM124.3 62.4c0 7.6 2.1 14.7 5.7 20.9 2 .2 4.1.4 6.1.7 9.4 1.1 17.6 6.8 21.9 15.2l2.1 4.1c1.8.2 3.5.4 5.4.4 22.7 0 41.1-18.4 41.1-41.1s-18.4-41.1-41.1-41.1-41.2 18.2-41.2 40.9zm8.6 0c0-5.9 4.8-10.8 10.8-10.8 2.3 0 4.4.7 6.1 1.9l14.9-11c-.3-1-.5-2.1-.5-3.2 0-5.9 4.8-10.8 10.8-10.8s10.8 4.8 10.8 10.8c0 5.9-4.8 10.8-10.8 10.8-2.3 0-4.4-.7-6.1-1.9l-14.9 11c.3 1 .5 2.1.5 3.2s-.2 2.2-.5 3.2l14.9 11c1.7-1.2 3.9-1.9 6.1-1.9 5.9 0 10.8 4.8 10.8 10.8S181 96.1 175 96.1s-10.8-4.8-10.8-10.8c0-1.1.2-2.2.5-3.2l-14.9-11c-1.7 1.2-3.9 1.9-6.1 1.9-6 .1-10.8-4.7-10.8-10.6z" class="st2"/><path d="M89.6 36.3c-2.1-4.2-4.9-7.4-8.7-9.6-3.7-2.3-8.3-3.8-13.7-4.5-5.4-.8-11.4-1.1-18-1.1H21.4v90.7h8.9l13.8-26.6c7.8 0 14.7-.5 20.7-1.6 6.1-1.1 11.2-2.9 15.3-5.4 4.2-2.5 7.3-5.9 9.4-10 2.1-4.2 3.2-9.3 3.2-15.5 0-6.8-1-12.2-3.1-16.4zM63.7 66.4C59.5 68.8 53 70 44.1 70V37.7h7.4c2.6 0 5 .1 7.3.4 2.3.3 4.2.9 5.8 2 1.6 1.1 2.9 2.6 3.9 4.6 1 2 1.5 4.8 1.5 8.3 0 6.6-2.1 11-6.3 13.4z" class="st2"/></g></svg>